<?xml version="1.0" encoding="UTF-8" standalone="no"?>
<!-- Created with Inkscape (http://www.inkscape.org/) -->

<svg
   width="102.47014mm"
   height="116.16932mm"
   viewBox="0 0 102.47014 116.16932"
   version="1.1"
   id="svg1"
   xml:space="preserve"
   inkscape:version="1.4 (86a8ad7, 2024-10-11)"
   sodipodi:docname="Mapa_cdmx.svg"
   xmlns:inkscape="http://www.inkscape.org/namespaces/inkscape"
   xmlns:sodipodi="http://sodipodi.sourceforge.net/DTD/sodipodi-0.dtd"
   xmlns="http://www.w3.org/2000/svg"
   xmlns:svg="http://www.w3.org/2000/svg"><sodipodi:namedview
     id="namedview1"
     pagecolor="#ffffff"
     bordercolor="#000000"
     borderopacity="0.25"
     inkscape:showpageshadow="2"
     inkscape:pageopacity="0.0"
     inkscape:pagecheckerboard="0"
     inkscape:deskcolor="#d1d1d1"
     inkscape:document-units="mm"
     inkscape:zoom="1.0244809"
     inkscape:cx="432.90216"
     inkscape:cy="581.26998"
     inkscape:window-width="1366"
     inkscape:window-height="697"
     inkscape:window-x="-8"
     inkscape:window-y="-8"
     inkscape:window-maximized="1"
     inkscape:current-layer="layer1"><inkscape:page
       x="0"
       y="0"
       width="102.47014"
       height="116.16932"
       id="page2"
       margin="0"
       bleed="0" /></sodipodi:namedview><defs
     id="defs1" /><g
     inkscape:label="Capa 1"
     inkscape:groupmode="layer"
     id="layer1"
     transform="translate(-53.502897,-111.50986)"><circle
       style="opacity:1;fill:#ffcc01;fill-opacity:1;stroke:#e4b601;stroke-width:1;stroke-dasharray:none;stroke-opacity:1"
       id="path9"
       cx="104.73797"
       cy="176.44411"
       r="50.735073"
       inkscape:export-filename="..\Documentos\Pagina  web\Imagenes\Alcades.svg"
       inkscape:export-xdpi="96"
       inkscape:export-ydpi="96" /><path
       style="opacity:1;fill:#ffcc01;fill-opacity:1;stroke:#e4b601;stroke-width:1;stroke-dasharray:none;stroke-opacity:1"
       d="m 87.780293,128.6269 c 0,0 -0.505012,-16.49405 18.493487,-16.61658 15.95773,-0.10292 15.65262,16.69908 15.65262,16.69908 v 0 0 l -4.90803,-1.49149 c 0,0 0.33284,-10.66678 -11.3869,-10.55521 -12.711405,0.12101 -12.284024,10.34151 -12.284024,10.34151 z"
       id="path18"
       sodipodi:nodetypes="csccccscc" /><path
       style="fill:#ffffff;fill-opacity:1;stroke-width:1.21308"
       d="m 104.04016,207.17623 c -2.80944,-0.21392 -5.490259,-1.51778 -7.258842,-3.53042 -1.074834,-1.22317 -1.999512,-2.79122 -2.45232,-4.15862 -0.370652,-1.1193 -0.508456,-2.09011 -0.504654,-3.55521 0.0049,-1.89551 0.270477,-3.17355 1.002352,-4.82393 0.478837,-1.07979 1.660708,-2.71294 2.565373,-3.54492 1.5742,-1.44774 3.835871,-2.53153 5.942011,-2.84744 1.14743,-0.17209 3.08595,-0.11851 4.05005,0.11194 3.85287,0.92112 7.13891,3.94075 8.32313,7.64839 0.37965,1.18862 0.51259,2.08018 0.51532,3.4559 0.004,1.91078 -0.32651,3.4266 -1.08842,4.99503 -0.5677,1.16866 -1.26808,2.11716 -2.29746,3.11135 -2.4348,2.35161 -5.37037,3.39877 -8.79654,3.13787 z m 2.84684,-2.35045 c 1.1762,-0.24098 2.63305,-0.90111 3.55601,-1.61132 0.66065,-0.50836 1.62493,-1.56272 2.11436,-2.3119 2.905,-4.44666 1.20423,-10.71998 -3.56208,-13.13888 -1.86887,-0.94846 -4.18659,-1.20596 -6.21372,-0.69039 -1.01423,0.25797 -2.46565,0.98013 -3.303831,1.64384 -2.810383,2.2254 -4.017337,5.93645 -3.112777,9.57089 0.235799,0.94741 0.60484,1.7594 1.2165,2.6766 2.098453,3.14674 5.633418,4.6135 9.305538,3.86116 z m -5.41021,-5.76861 c -1.02047,-1.04826 -2.053869,-2.12088 -2.296435,-2.38362 l -0.441013,-0.47767 0.89649,-0.89395 0.896478,-0.89394 1.48414,1.47111 1.48412,1.47111 2.433,-2.50155 c 1.33815,-1.37586 2.74178,-2.82546 3.11915,-3.22135 l 0.68615,-0.71978 0.84776,0.90654 c 0.46627,0.4986 0.85809,0.9344 0.87069,0.96844 0.0506,0.13638 -7.86894,8.18612 -8.0498,8.18221 -0.0414,-7.4e-4 -0.91025,-0.85929 -1.93073,-1.90755 z M 84.160805,186.33015 c -0.238071,-0.23807 -0.240426,-0.24844 -0.190604,-0.83782 0.02774,-0.32823 0.05044,-0.853 0.05044,-1.16616 0,-0.87642 0.06861,-0.93101 1.231696,-0.98013 l 0.931511,-0.0393 v -1.27533 c 0,-1.11935 0.01718,-1.2925 0.140463,-1.41592 0.133952,-0.13407 0.982005,-0.14166 18.288949,-0.16346 9.98167,-0.0127 18.30335,-7.4e-4 18.49267,0.026 0.20808,0.0295 0.41804,0.1227 0.53096,0.23562 0.18057,0.18057 0.18677,0.22738 0.18677,1.40962 v 1.22284 l 0.88495,0.002 c 1.26877,0.004 1.2806,0.0186 1.31036,1.65155 l 0.0208,1.14274 -0.2162,0.2162 -0.21618,0.2162 -5.55259,-0.0218 -5.55261,-0.0218 -0.59916,-0.51129 c -2.27203,-1.93888 -4.55192,-2.98559 -7.28281,-3.34357 -1.4202,-0.18618 -2.6421,-0.12894 -4.23717,0.19848 -2.0338,0.41748 -4.129403,1.47495 -5.973149,3.01411 -0.389374,0.32506 -0.809727,0.61139 -0.934113,0.6363 -0.124386,0.0249 -2.666911,0.0453 -5.650056,0.0453 h -5.4239 z m 7.031323,-7.22958 c -2.771203,-0.0483 -2.652327,-0.0106 -2.584376,-0.80517 0.06584,-0.76914 0.528377,-1.16485 1.224142,-1.04731 l 0.301641,0.051 0.04747,-0.34634 c 0.0261,-0.19049 0.07235,-3.53785 0.102757,-7.43856 l 0.05529,-7.09222 h -0.474086 c -0.367213,0 -0.522955,-0.0384 -0.690879,-0.17052 -0.439926,-0.34604 -0.59624,-1.21796 -0.256728,-1.43202 0.232083,-0.14633 4.155759,-0.24506 6.506718,-0.16374 2.030792,0.0703 2.045842,0.0764 1.903178,0.78684 -0.06118,0.30456 -0.163978,0.53531 -0.303326,0.68075 -0.1823,0.19029 -0.271113,0.22002 -0.656852,0.22002 h -0.446048 l -0.05054,0.48352 c -0.06568,0.62799 -0.06605,13.07545 -4.29e-4,13.85143 l 0.05009,0.59281 0.359675,0.0405 c 0.297792,0.0336 0.416141,0.1003 0.687809,0.38782 0.264294,0.27972 0.338846,0.42529 0.383264,0.74824 0.0345,0.25075 0.02224,0.46247 -0.03272,0.56514 -0.08564,0.16003 -0.134049,0.16374 -1.913994,0.14679 -1.004366,-0.009 -2.899806,-0.0361 -4.212083,-0.0589 z m 9.581532,-0.0357 c -0.11677,-0.11665 -0.0914,-0.96845 0.0362,-1.21509 0.17235,-0.33327 0.32148,-0.42006 0.81252,-0.47283 l 0.45127,-0.0486 0.046,-0.70795 c 0.0494,-0.76087 0.007,-13.87652 -0.0448,-13.96074 -0.0172,-0.0277 -0.20146,-0.0584 -0.40949,-0.0681 -0.21684,-0.009 -0.46216,-0.0785 -0.57488,-0.1608 -0.17963,-0.13087 -0.19863,-0.20188 -0.21934,-0.81901 -0.0213,-0.63413 -0.0118,-0.68187 0.15733,-0.77558 0.13835,-0.0768 1.06656,-0.10054 4.01169,-0.10277 3.35013,-0.002 3.84697,0.0125 3.95329,0.11851 0.0831,0.0829 0.12767,0.30289 0.14075,0.69427 0.0187,0.55766 0.0122,0.57908 -0.23775,0.80298 -0.21648,0.19382 -0.32338,0.23 -0.67955,0.23 h -0.42263 l -0.054,0.28798 c -0.0602,0.32069 0.0155,12.4737 0.0848,13.60761 l 0.0439,0.71971 0.3669,0.0547 c 0.54889,0.0818 0.85368,0.23619 0.99095,0.50163 0.14971,0.28949 0.16655,1.13559 0.0249,1.25067 -0.13274,0.10782 -8.37181,0.16928 -8.47788,0.0631 z m 15.54302,0.0531 c -2.93077,-0.019 -3.31452,-0.0359 -3.44147,-0.15073 -0.26905,-0.24347 -0.12444,-1.07942 0.25179,-1.45564 0.17704,-0.17705 0.29349,-0.22253 0.56974,-0.22253 h 0.3472 l 0.0522,-3.4347 c 0.0287,-1.88909 0.0522,-5.23421 0.0522,-7.43356 v -3.99886 h -0.45442 c -0.39083,0 -0.48916,-0.0318 -0.70237,-0.22644 -0.26902,-0.24572 -0.44057,-0.73136 -0.40133,-1.13617 0.0442,-0.45597 0.17039,-0.468 4.45295,-0.42409 4.4392,0.0455 4.13454,-0.0172 4.07356,0.83724 -0.0323,0.4547 -0.066,0.54281 -0.27873,0.73313 -0.24846,0.22224 -0.37057,0.25203 -0.8996,0.21946 l -0.30624,-0.0188 0.0514,5.57322 c 0.0283,3.06526 0.0735,6.42275 0.10065,7.46109 l 0.0495,1.88789 0.45823,0.005 c 0.33726,0.004 0.50344,0.0452 0.62936,0.15731 0.24439,0.21782 0.38539,0.59919 0.38539,1.0424 0,0.57075 -0.12294,0.64844 -0.98947,0.62524 -0.38597,-0.009 -2.18612,-0.0283 -4.00033,-0.0401 z M 92.060952,159.12038 c -5.896119,-0.0456 -5.519379,-0.009 -5.521915,-0.51949 -7.38e-4,-0.1526 0.06415,-0.30049 0.175785,-0.40052 0.218572,-0.19582 1.333483,-0.8105 3.814425,-2.10301 1.048779,-0.54639 3.739021,-1.97257 5.978319,-3.1693 7.185994,-3.84034 8.315194,-4.4268 8.525964,-4.42806 0.11371,-6.8e-4 0.50309,0.1623 0.86529,0.36217 0.36219,0.19989 0.83552,0.46118 1.05184,0.58067 0.21632,0.11949 0.94198,0.51004 1.61257,0.86788 0.6706,0.35785 1.34316,0.72847 1.49457,0.82359 0.4492,0.28221 5.53625,2.98824 10.89472,5.79539 1.77639,0.93063 2.28006,1.25273 2.43879,1.5597 0.14143,0.27349 0.0975,0.52223 -0.10265,0.58183 -0.19672,0.0586 -24.970798,0.0975 -31.227726,0.0491 z"
       id="path58" /></g></svg>
