<?xml version="1.0" encoding="UTF-8" standalone="no"?>
<!-- Created with Inkscape (http://www.inkscape.org/) -->

<svg
   width="102.47014mm"
   height="116.16932mm"
   viewBox="0 0 102.47014 116.16932"
   version="1.1"
   id="svg1"
   xml:space="preserve"
   xmlns:inkscape="http://www.inkscape.org/namespaces/inkscape"
   xmlns:sodipodi="http://sodipodi.sourceforge.net/DTD/sodipodi-0.dtd"
   xmlns="http://www.w3.org/2000/svg"
   xmlns:svg="http://www.w3.org/2000/svg"><sodipodi:namedview
     id="namedview1"
     pagecolor="#ffffff"
     bordercolor="#000000"
     borderopacity="0.25"
     inkscape:showpageshadow="2"
     inkscape:pageopacity="0.0"
     inkscape:pagecheckerboard="0"
     inkscape:deskcolor="#d1d1d1"
     inkscape:document-units="mm"
     inkscape:zoom="1.4488348"
     inkscape:cx="363.39547"
     inkscape:cy="679.51156"
     inkscape:window-width="1366"
     inkscape:window-height="697"
     inkscape:window-x="-8"
     inkscape:window-y="-8"
     inkscape:window-maximized="1"
     inkscape:current-layer="layer1"><inkscape:page
       x="0"
       y="0"
       width="102.47014"
       height="116.16932"
       id="page2"
       margin="0"
       bleed="0" /></sodipodi:namedview><defs
     id="defs1"><clipPath
       clipPathUnits="userSpaceOnUse"
       id="clipPath7"><rect
         style="opacity:1;fill:#800000;fill-opacity:1;stroke-width:0.444"
         id="rect8"
         width="65.860031"
         height="71.716949"
         x="74.224403"
         y="105.60058" /></clipPath></defs><g
     inkscape:label="Capa 1"
     inkscape:groupmode="layer"
     id="layer1"
     transform="translate(-53.502897,-111.50986)"><circle
       style="opacity:1;fill:#ab0058;fill-opacity:1;stroke:#780040;stroke-width:1;stroke-dasharray:none;stroke-opacity:1"
       id="path9"
       cx="104.73797"
       cy="176.44411"
       r="50.735073" /><g
       id="g1"
       transform="translate(-0.23667904,32.467512)"
       style="fill:none;fill-opacity:1;stroke:#ffffff;stroke-opacity:1"
       clip-path="url(#clipPath7)"
       inkscape:export-filename="cdmx_mapa1,0.svg"
       inkscape:export-xdpi="96"
       inkscape:export-ydpi="96"><path
         id="path7"
         style="fill:none;fill-opacity:1;stroke:#ffffff;stroke-opacity:1"
         d="m 151.75456,105.26517 c -0.0523,-0.011 -0.11072,0.009 -0.17105,0.0698 -0.0762,0.0761 -0.0497,0.36442 0.0584,0.63975 0.18707,0.47603 0.20139,0.47726 0.29404,0.0171 0.0758,-0.37683 -0.0246,-0.6936 -0.18139,-0.72657 z m -92.501328,0.76532 c -0.04523,-0.0469 -0.07967,0.11752 -0.08372,0.44494 -0.0054,0.43656 0.04949,0.64732 0.121956,0.46819 0.07247,-0.17913 0.0769,-0.53632 0.0098,-0.79375 -0.01677,-0.0644 -0.03298,-0.10374 -0.04806,-0.11938 z m 5.820833,0 c -0.04523,-0.0469 -0.07967,0.11752 -0.08372,0.44494 -0.0054,0.43656 0.04949,0.64732 0.121957,0.46819 0.07247,-0.17913 0.0769,-0.53632 0.0098,-0.79375 -0.01677,-0.0644 -0.03298,-0.10374 -0.04806,-0.11938 z m -8.995833,0.007 c -0.04339,-0.025 -0.0739,0.18799 -0.0739,0.56999 0,0.50932 0.05437,0.71768 0.120923,0.46302 0.06655,-0.25466 0.06655,-0.67138 0,-0.92604 -0.01664,-0.0637 -0.03256,-0.0987 -0.04702,-0.10697 z m 4.7625,0 c -0.04339,-0.025 -0.0739,0.18799 -0.0739,0.56999 0,0.50932 0.05437,0.71768 0.120923,0.46302 0.06655,-0.25466 0.06655,-0.67138 0,-0.92604 -0.01664,-0.0637 -0.03256,-0.0987 -0.04702,-0.10697 z m 2.38125,0 c -0.04339,-0.025 -0.0739,0.18799 -0.0739,0.56999 0,0.50932 0.05437,0.71768 0.120923,0.46302 0.06655,-0.25466 0.06655,-0.67138 0,-0.92604 -0.01664,-0.0637 -0.03256,-0.0987 -0.04703,-0.10697 z m 7.072953,0.52865 c -1.71e-4,0.0194 -0.0031,0.021 -0.0031,0.0413 0,0.50932 0.05437,0.71768 0.120923,0.46302 0.01823,-0.0698 0.01915,-0.16629 0.02739,-0.25373 -0.05484,-0.0817 -0.102236,-0.16563 -0.145211,-0.25063 z m 77.791115,1.99523 c -0.0698,0.0131 -0.13233,0.0524 -0.17053,0.1142 -0.0764,0.12364 0.0346,0.22479 0.2465,0.22479 0.44613,0 0.48467,-0.0832 0.13849,-0.29714 -0.0677,-0.0418 -0.14463,-0.055 -0.21446,-0.0418 z m 3.3166,0.52555 c -0.10017,-0.10958 -0.3082,0.14716 -0.37052,0.57205 -0.0315,0.21481 0.0512,0.32333 0.18396,0.24133 0.13275,-0.082 0.24133,-0.34069 0.24133,-0.57464 0,-0.12535 -0.0214,-0.20222 -0.0548,-0.23874 z m -85.198938,65.84559 c -0.0388,-0.0296 -0.103006,0.0411 -0.206706,0.20154 -0.141064,0.21828 -0.258249,0.48617 -0.260449,0.59531 -0.0022,0.10914 0.114929,0.19844 0.260449,0.19844 0.145521,0 0.262649,-0.2679 0.260449,-0.59532 -0.0016,-0.2407 -0.01494,-0.37042 -0.05374,-0.39997 z m -9.570992,0.20205 c -0.05719,0 -0.172555,0.17859 -0.256315,0.39688 -0.08376,0.21828 -0.03708,0.39687 0.103869,0.39687 0.140954,0 0.256316,-0.17859 0.256316,-0.39687 0,-0.21829 -0.04668,-0.39688 -0.10387,-0.39688 z m 10.757483,0.046 c -0.03119,-0.006 -0.07155,-0.002 -0.11989,0.0139 -0.172905,0.0576 -0.361495,0.24628 -0.419095,0.41909 -0.158738,0.47621 0.388538,0.37603 0.573091,-0.1049 0.07416,-0.19327 0.05946,-0.30923 -0.03411,-0.32814 z m -13.033313,0.0243 c -1.256147,0.0148 -1.544149,0.15083 -1.150318,0.54467 v 5.2e-4 c 0.09575,0.0958 0.323061,0.05 0.505396,-0.10129 0.230734,-0.19144 0.386217,-0.18653 0.51108,0.0155 0.130188,0.21065 0.27535,0.21065 0.529167,0 0.246033,-0.20466 0.401513,-0.2075 0.523999,-0.009 0.09577,0.15495 0.286941,0.21233 0.42478,0.12713 0.53353,-0.32974 -0.0775,-0.59213 -1.344104,-0.57723 z m 15.257983,0.0124 c -0.141242,0.0197 -0.302453,0.15649 -0.382405,0.39635 -0.0576,0.1728 0.06411,0.3142 0.270267,0.3142 0.206155,0 0.374654,-0.18179 0.374654,-0.40411 0,-0.22872 -0.121273,-0.32616 -0.262516,-0.30644 z m -9.084717,0.0176 c -0.02384,-6e-4 -0.05501,0.0104 -0.0925,0.0336 -0.143854,0.0889 -0.261483,0.27338 -0.261483,0.41031 0,0.38059 0.18946,0.29714 0.365352,-0.16123 0.06777,-0.1766 0.06014,-0.28088 -0.01137,-0.28267 z m 11.39052,5.1e-4 c -0.03163,-10e-4 -0.06646,0.009 -0.102836,0.031 -0.14552,0.0899 -0.264584,0.27545 -0.264584,0.41238 0,0.13693 0.119064,0.24908 0.264584,0.24908 0.145521,0 0.264583,-0.18551 0.264583,-0.41238 0,-0.17015 -0.06687,-0.27588 -0.161747,-0.28009 z m -8.669755,0.002 c -0.09643,0.003 -0.164331,0.10839 -0.164331,0.27854 0,0.46475 0.158694,0.53339 0.385506,0.1664 0.08372,-0.13547 0.03111,-0.3215 -0.116789,-0.4129 -0.03697,-0.0229 -0.07225,-0.0331 -0.104386,-0.032 z m -5.884913,5.2e-4 c -0.03214,-0.001 -0.06741,0.009 -0.104386,0.032 -0.147897,0.0914 -0.200509,0.27691 -0.116789,0.41238 0.226812,0.36699 0.385507,0.29887 0.385507,-0.16588 0,-0.17018 -0.06791,-0.2753 -0.164332,-0.27854 z m 15.345834,0 c -0.03214,-0.001 -0.06741,0.009 -0.104387,0.032 -0.147896,0.0914 -0.200508,0.27691 -0.116788,0.41238 0.226811,0.36699 0.385506,0.29887 0.385506,-0.16588 0,-0.17018 -0.0679,-0.2753 -0.164331,-0.27854 z m -13.735079,0.0191 c -0.04786,-0.0178 -0.08165,0.13435 -0.08165,0.40721 0,0.36383 0.05992,0.51263 0.133325,0.33073 0.0734,-0.1819 0.0734,-0.47956 0,-0.66146 -0.01835,-0.0455 -0.03572,-0.0705 -0.05168,-0.0765 z m 2.38125,0 c -0.04786,-0.0178 -0.08165,0.13435 -0.08165,0.40721 0,0.36383 0.05992,0.51263 0.133325,0.33073 0.0734,-0.1819 0.0734,-0.47956 0,-0.66146 -0.01835,-0.0455 -0.03572,-0.0705 -0.05168,-0.0765 z m 90.204317,0.21032 c -0.0821,-0.008 -0.19898,-0.008 -0.35089,0.004 -0.28096,0.0212 -0.4559,0.12772 -0.3886,0.23668 0.0673,0.109 0.29694,0.13109 0.51056,0.0491 0.40399,-0.15506 0.47505,-0.26395 0.22893,-0.28939 z m -84.286332,1.25522 c -0.121266,0 -0.220658,0.17859 -0.220658,0.39688 0,0.21828 0.09939,0.39687 0.220658,0.39687 0.121266,0 0.220141,-0.17859 0.220141,-0.39687 0,-0.21829 -0.09887,-0.39688 -0.220141,-0.39688 z m -9.407178,0.10026 c -0.02782,0.0278 -0.04636,0.12028 -0.05271,0.2744 -0.01149,0.27886 0.05057,0.43516 0.138493,0.34726 0.08792,-0.0879 0.09762,-0.31594 0.02119,-0.50694 -0.04223,-0.10553 -0.07915,-0.14254 -0.10697,-0.11472 z m 3.175,0 c -0.02782,0.0278 -0.04636,0.12028 -0.05271,0.2744 -0.01149,0.27886 0.05057,0.43516 0.138493,0.34726 0.08792,-0.0879 0.09762,-0.31594 0.02119,-0.50694 -0.04223,-0.10553 -0.07915,-0.14254 -0.10697,-0.11472 z m 1.5875,0 c -0.02782,0.0278 -0.04636,0.12028 -0.05271,0.2744 -0.01149,0.27886 0.05057,0.43516 0.138493,0.34726 0.08792,-0.0879 0.09762,-0.31594 0.02119,-0.50694 -0.04223,-0.10553 -0.07915,-0.14254 -0.10697,-0.11472 z m 3.190503,5.1e-4 c -0.02384,-6e-4 -0.055,0.01 -0.0925,0.0331 -0.143854,0.0889 -0.261482,0.27389 -0.261482,0.41082 0,0.38059 0.189459,0.29663 0.365352,-0.16174 0.06777,-0.1766 0.06015,-0.28036 -0.01137,-0.28216 z m -5.925736,0.16382 c -0.154107,0 -0.206729,0.11906 -0.116789,0.26458 0.08994,0.14552 0.215916,0.26458 0.280086,0.26458 0.06418,0 0.116789,-0.11906 0.116789,-0.26458 0,-0.14552 -0.125977,-0.26458 -0.280086,-0.26458 z" /><path
         style="fill:none;fill-opacity:1;stroke:#ffffff;stroke-opacity:1"
         d="m 59.138779,177.09705 c 0.0127,-0.30823 0.07539,-0.37092 0.159853,-0.15986 0.07643,0.191 0.06703,0.4192 -0.02089,0.50712 -0.08792,0.0879 -0.150453,-0.0684 -0.138965,-0.34726 z m 7.14375,0 c 0.0127,-0.30823 0.07539,-0.37092 0.159852,-0.15986 0.07643,0.191 0.06703,0.4192 -0.02089,0.50712 -0.08792,0.0879 -0.150453,-0.0684 -0.138964,-0.34726 z m 87.453821,-1.48158 c 0.0764,-0.12364 0.24977,-0.1563 0.38523,-0.0726 0.34618,0.21395 0.3072,0.29739 -0.13893,0.29739 -0.21188,0 -0.32272,-0.10117 -0.2463,-0.22481 z M 60.726279,109.6283 c 0.0127,-0.30823 0.07539,-0.37092 0.159853,-0.15986 0.07643,0.191 0.06703,0.4192 -0.02089,0.50712 -0.08792,0.0879 -0.150452,-0.0683 -0.138964,-0.34726 z m 2.910417,0 c 0.0127,-0.30823 0.07539,-0.37092 0.159852,-0.15986 0.07643,0.191 0.06703,0.4192 -0.02089,0.50712 -0.08792,0.0879 -0.150453,-0.0683 -0.138964,-0.34726 z m -2.137555,-0.12586 c 0,-0.15411 0.119062,-0.20662 0.264583,-0.11668 0.145521,0.0899 0.264584,0.21603 0.264584,0.2802 0,0.0642 -0.119063,0.11668 -0.264584,0.11668 -0.145521,0 -0.264583,-0.12609 -0.264583,-0.2802 z m 89.429159,-3.42397 c 0,-0.14552 0.12609,-0.26458 0.2802,-0.26458 0.15411,0 0.20661,0.11906 0.11668,0.26458 -0.0899,0.14552 -0.21603,0.26458 -0.2802,0.26458 -0.0642,0 -0.11668,-0.11906 -0.11668,-0.26458 z"
         id="path6" /><path
         id="path5"
         style="fill:none;fill-opacity:1;stroke:#ffffff;stroke-opacity:1"
         d="m 56.814621,106.17777 c -0.04796,0.0212 -0.07803,0.0728 -0.07803,0.14986 0,0.15411 0.119062,0.28009 0.264583,0.28009 0.14552,0 0.264583,-0.0526 0.264583,-0.11679 0,-0.0642 -0.119063,-0.19019 -0.264583,-0.28009 -0.07276,-0.045 -0.138596,-0.0542 -0.186552,-0.0331 z m 2.641699,0.001 c -0.02782,0.0278 -0.04636,0.12028 -0.05271,0.2744 -0.01149,0.27886 0.05057,0.43516 0.138493,0.34726 0.08792,-0.0879 0.09762,-0.31594 0.02119,-0.50694 -0.04223,-0.10553 -0.07915,-0.14254 -0.10697,-0.11472 z m 5.820833,0 c -0.02782,0.0278 -0.04636,0.12028 -0.05271,0.2744 -0.01149,0.27886 0.05057,0.43516 0.138492,0.34726 0.08792,-0.0879 0.09762,-0.31594 0.02119,-0.50694 -0.04223,-0.10553 -0.07915,-0.14254 -0.106972,-0.11472 z m -11.580171,0.11627 c -0.04523,-0.0469 -0.07967,0.11751 -0.08372,0.44493 -0.0054,0.43655 0.04949,0.64733 0.121956,0.46819 0.07247,-0.17913 0.0769,-0.53631 0.0098,-0.79375 -0.01677,-0.0644 -0.03298,-0.10373 -0.04806,-0.11937 z m 12.78785,0.185 c -0.07906,0.01 -0.134876,0.11239 -0.134876,0.2713 0,0.21188 0.09887,0.38551 0.220142,0.38551 0.121266,0 0.220658,-0.11214 0.220658,-0.24908 0,-0.13693 -0.09939,-0.30999 -0.220658,-0.38499 -0.03032,-0.0187 -0.05891,-0.026 -0.08527,-0.0227 z m 82.400658,1.81539 c -0.0278,0.0278 -0.0464,0.12029 -0.0527,0.2744 h -5.2e-4 c -0.0115,0.27887 0.0511,0.43517 0.13901,0.34727 0.0879,-0.0879 0.0976,-0.31595 0.0212,-0.50695 -0.0422,-0.10553 -0.0791,-0.14254 -0.10697,-0.11472 z m -0.73536,0.25218 c -0.20543,0 -0.31219,0.0994 -0.23719,0.22066 0.0749,0.12129 0.18159,0.22066 0.23719,0.22066 0.0556,0 0.1622,-0.0994 0.2372,-0.22066 0.0749,-0.12129 -0.0317,-0.22066 -0.2372,-0.22066 z m -77.052143,0.80616 c -0.02782,0.0278 -0.04637,0.12028 -0.05271,0.2744 -0.01149,0.27896 0.05057,0.43516 0.138493,0.34726 0.08792,-0.0879 0.09762,-0.31594 0.02119,-0.50694 -0.04223,-0.10553 -0.07915,-0.14254 -0.10697,-0.11472 z m 80.320683,0.83199 c -0.0806,0.009 -0.13746,0.11084 -0.13746,0.26975 0,0.44613 0.0832,0.48518 0.29714,0.13901 0.0837,-0.13547 0.0513,-0.30859 -0.0724,-0.38499 -0.0309,-0.0191 -0.0605,-0.0267 -0.0873,-0.0238 z m -87.841671,65.0875 c -0.08061,0.009 -0.137459,0.11084 -0.137459,0.26975 10e-7,0.44614 0.08319,0.48519 0.297139,0.13901 0.08372,-0.13547 0.05129,-0.30859 -0.07235,-0.38499 -0.03091,-0.0191 -0.06046,-0.0267 -0.08733,-0.0238 z m -8.692493,1.71359 c -0.145521,0 -0.264583,0.11906 -0.264583,0.26458 0,0.14552 0.119062,0.26458 0.264583,0.26458 0.145521,0 0.264584,-0.11906 0.264584,-0.26458 0,-0.14552 -0.119063,-0.26458 -0.264584,-0.26458 z m 1.852084,0 c -0.145521,0 -0.264584,0.11906 -0.264584,0.26458 0,0.14552 0.119063,0.26458 0.264584,0.26458 0.145521,0 0.264583,-0.11906 0.264583,-0.26458 0,-0.14552 -0.119062,-0.26458 -0.264583,-0.26458 z" /><path
         id="path4"
         style="fill:none;fill-opacity:1;stroke:#ffffff;stroke-opacity:1"
         d="m 61.04382,105.91422 c -0.02782,0.0278 -0.04636,0.12029 -0.05271,0.2744 -0.01149,0.27897 0.05057,0.43517 0.138493,0.34727 0.08792,-0.0879 0.09762,-0.31595 0.02119,-0.50695 -0.04223,-0.10553 -0.07915,-0.14254 -0.10697,-0.11472 z m -4.701005,0.12351 c -0.04339,-0.025 -0.0739,0.18799 -0.0739,0.56999 0,0.50932 0.05437,0.71768 0.120923,0.46302 0.06655,-0.25466 0.06655,-0.67138 0,-0.92604 -0.01664,-0.0637 -0.03256,-0.0987 -0.04703,-0.10697 z m 7.14375,0 c -0.04339,-0.025 -0.0739,0.18799 -0.0739,0.56999 0,0.50932 0.05437,0.71768 0.120923,0.46302 0.06655,-0.25466 0.06655,-0.67138 0,-0.92604 -0.01664,-0.0637 -0.03256,-0.0987 -0.04703,-0.10697 z m 3.000851,0.17932 c -0.08061,0.009 -0.13746,0.11084 -0.13746,0.26975 0,0.44613 0.08319,0.48518 0.29714,0.13901 0.08372,-0.13547 0.05129,-0.30859 -0.07235,-0.38499 -0.03091,-0.0191 -0.06046,-0.0267 -0.08733,-0.0238 z m 4.037996,0.71623 c -0.0019,0.0236 -0.0082,0.0215 -0.0093,0.0491 -0.01149,0.27897 0.05057,0.43517 0.138493,0.34727 0.03573,-0.0357 0.0496,-0.10452 0.05891,-0.17467 -0.06822,-0.0719 -0.130583,-0.14583 -0.188102,-0.22169 z m 83.297758,1.79111 c -0.15407,0 -0.20669,0.11906 -0.11679,0.26458 0.0899,0.14552 0.21589,0.26458 0.28009,0.26458 0.0642,0 0.11679,-0.11906 0.11679,-0.26458 0,-0.14552 -0.12598,-0.26458 -0.28009,-0.26458 z m -94.36685,68.09817 c -0.02782,0.0278 -0.04636,0.12028 -0.05271,0.2744 -0.01149,0.27886 0.05057,0.43516 0.138493,0.34726 0.08792,-0.0879 0.09762,-0.31594 0.02119,-0.50694 -0.04223,-0.10553 -0.07915,-0.14254 -0.10697,-0.11472 z" /><path
         style="fill:none;fill-opacity:1;stroke:#ffffff;stroke-opacity:1"
         d="m 57.265808,106.87222 c -0.238467,-0.15411 -0.271101,-0.2581 -0.08176,-0.26053 0.173313,-0.002 0.388699,0.11501 0.478636,0.26053 0.203016,0.32849 0.111422,0.32849 -0.396876,0 z"
         id="path3" /><path
         id="path2"
         style="fill:none;fill-opacity:1;stroke:#ffffff;stroke-opacity:1"
         d="m 151.26674,106.97256 c -0.0278,0.0278 -0.0464,0.12028 -0.0527,0.2744 h -5.2e-4 c -0.0115,0.27896 0.0511,0.43516 0.13901,0.34726 0.0879,-0.0879 0.0976,-0.31594 0.0212,-0.50694 -0.0422,-0.10553 -0.0791,-0.14254 -0.10697,-0.11472 z m -89.487564,2.81016 c -0.154109,0 -0.280086,0.11906 -0.280086,0.26458 0,0.14552 0.05262,0.26459 0.116788,0.26459 0.06417,0 0.190147,-0.11907 0.280087,-0.26459 0.08994,-0.14552 0.03732,-0.26458 -0.116789,-0.26458 z m 7.762317,0.0677 c -0.08204,-0.008 -0.198975,-0.008 -0.350883,0.004 -0.28096,0.0212 -0.455947,0.12772 -0.388607,0.23668 0.06734,0.109 0.296942,0.13109 0.510563,0.0491 0.403991,-0.15498 0.475057,-0.26392 0.228927,-0.28938 z m 81.612587,1.92288 c -0.0806,0.009 -0.13746,0.11084 -0.13746,0.26975 0,0.44613 0.0832,0.48518 0.29714,0.13901 0.0837,-0.13547 0.0513,-0.30859 -0.0723,-0.38499 -0.0309,-0.0191 -0.0605,-0.0267 -0.0873,-0.0238 z m -48.29938,7.26984 c -0.0755,0 -0.0524,0.20836 0.0512,0.46302 1.54042,3.7888 1.5765,4.47234 0.2186,4.13153 -0.3989,-0.10011 -0.68208,0.0175 -0.90641,0.37672 -0.26564,0.42535 -0.52646,0.497 -1.40611,0.38551 -1.253888,-0.15892 -1.742017,-0.47331 -1.742017,-1.12293 0,-0.55944 -1.534585,-0.95802 -1.967839,-0.51108 -0.20025,0.20655 -0.16695,0.27477 0.115756,0.23667 1.072781,-0.14451 1.5875,0.0271 1.5875,0.52917 0,0.60104 0.734838,1.06764 1.68103,1.06764 1.71141,0 1.83692,0.47757 0.73123,2.77812 -0.41964,0.87312 -0.95636,2.03971 -1.1927,2.59261 l -0.429428,1.0051 0.815458,0.28474 c 0.89639,0.31248 0.77867,0.58491 -0.37052,0.85628 -0.616053,0.14548 -0.775382,0.0797 -0.892972,-0.37 -0.09234,-0.35317 -0.295436,-0.50135 -0.573092,-0.41755 -0.236622,0.0714 -0.906715,0.24648 -1.488798,0.38861 -2.84229,0.69401 -3.472656,0.91815 -3.878833,1.37924 -0.589436,0.66914 -1.001206,0.63091 -0.816488,-0.0755 0.120127,-0.45933 0.06059,-0.53907 -0.299206,-0.401 -0.276051,0.10593 -0.50649,0.0234 -0.59738,-0.21343 -0.12698,-0.33086 -0.200835,-0.33298 -0.519348,-0.0145 -0.524116,0.52412 -0.464635,0.67386 0.268201,0.67386 0.351675,0 0.688988,0.14772 0.749308,0.32867 0.123477,0.37043 -1.530387,1.788 -2.086178,1.788 -0.526731,0 -0.440215,0.96161 0.135909,1.51102 0.272986,0.26033 0.577648,0.73911 0.677478,1.06402 0.153137,0.49843 -0.01486,0.71551 -1.076936,1.38906 -0.692344,0.43908 -1.363441,0.7984 -1.490866,0.7984 -0.431778,0 -0.922017,0.68743 -1.114143,1.56218 -0.139017,0.63292 -0.270885,0.79158 -0.482142,0.58032 -0.478218,-0.47822 -0.783518,-0.33048 -0.659391,0.31885 0.115366,0.6035 -0.311737,1.24282 -0.83044,1.24282 -0.542101,0 -1.089555,1.54547 -0.920874,2.60035 0.111415,0.69675 0.0283,1.28595 -0.260449,1.84434 -0.299037,0.57828 -0.414888,1.46872 -0.393258,3.01635 0.01688,1.20778 0.08992,1.96121 0.162781,1.6738 0.07286,-0.28742 0.289065,-0.64461 0.480074,-0.79375 0.19101,-0.14915 0.385335,-0.56206 0.432015,-0.91726 0.06138,-0.46712 0.309532,-0.70346 0.896586,-0.85473 1.140172,-0.29379 4.095073,-3.33811 3.880383,-3.99768 -0.03695,-0.11353 0.09727,-0.53026 0.298173,-0.92605 0.200901,-0.39579 0.324422,-0.97115 0.274402,-1.27899 -0.06023,-0.37069 0.267153,-0.93654 0.969967,-1.67535 0.986636,-1.03719 1.133038,-1.10351 2.08256,-0.94309 0.631379,0.10668 1.089133,0.0629 1.198893,-0.11472 0.177885,-0.28782 1.853818,-1.07281 2.2903,-1.07281 0.492634,0 0.199731,0.8027 -0.447518,1.2268 -0.497495,0.32597 -0.640431,0.59996 -0.534335,1.02268 0.107071,0.4266 -0.02334,0.667 -0.498677,0.92139 -0.353843,0.18937 -0.762007,0.68449 -0.906921,1.10019 -0.144913,0.4157 -0.44801,0.75603 -0.673861,0.75603 -0.396911,0 -0.442216,0.1975 -0.545703,2.39313 -0.01746,0.37047 -0.106581,0.79479 -0.197921,0.94258 -0.09134,0.1478 -0.104652,0.65632 -0.02997,1.13016 0.08529,0.54121 -0.01902,1.09709 -0.280087,1.49552 -0.22857,0.34884 -0.415478,0.81764 -0.415478,1.04128 0,0.22365 -0.583738,0.82593 -1.297079,1.33842 -0.713342,0.51248 -1.35776,1.09102 -1.43247,1.28571 -0.206421,0.53792 -1.124889,0.67527 -1.883606,0.28164 -0.373138,-0.19356 -0.678512,-0.29156 -0.678512,-0.21756 0,0.074 -0.345781,-0.11143 -0.768428,-0.41238 -0.987405,-0.7031 -1.423343,-0.70358 -0.554488,-5.2e-4 0.824301,0.667 1.76693,1.09487 2.711979,1.23042 0.570081,0.0818 0.917996,-0.10362 1.606103,-0.85473 0.483048,-0.52727 1.155599,-1.0992 1.494999,-1.27124 0.632723,-0.32071 0.719188,-0.43992 1.468128,-2.03243 0.357912,-0.76104 0.668436,-3.30727 0.685746,-5.6224 0.0019,-0.25466 0.177835,-0.46302 0.390674,-0.46302 0.212839,0 0.503471,-0.30685 0.645955,-0.68161 0.521083,-1.37055 0.862162,-1.5049 2.563151,-1.00976 0.841648,0.24499 2.494414,0.45764 3.672643,0.47284 1.26537,0.0163 2.30239,0.16095 2.53369,0.35295 0.4572,0.37953 1.99096,-0.0536 2.50114,-0.70642 0.2585,-0.3307 0.48247,-0.32195 1.68414,0.0661 0.76225,0.24617 1.6955,0.44752 2.07377,0.44752 0.59556,0 0.63572,0.0486 0.30024,0.36483 -0.55023,0.51861 -3.92256,1.80568 -4.23126,1.61489 -0.14401,-0.089 -0.25735,0.17431 -0.25735,0.59738 0,0.41604 -0.1272,0.88373 -0.28267,1.03921 -0.20051,0.20052 -0.17641,0.54253 0.0832,1.17719 0.37855,0.92546 0.13092,2.61483 -0.38344,2.61483 -0.1331,0 -0.16845,0.11906 -0.0785,0.26458 0.0899,0.14552 0.0522,0.26459 -0.0842,0.26459 -0.13641,0 -0.36962,0.47766 -0.5178,1.06143 l -0.26923,1.06143 1.13378,0.28526 c 0.94221,0.23725 1.21085,0.45562 1.5875,1.29088 0.25198,0.55888 0.37778,1.24299 0.28318,1.54099 -0.0936,0.2948 -0.0407,0.61617 0.11783,0.71417 0.20521,0.12684 0.19881,0.2861 -0.0222,0.55242 -0.17086,0.20568 -0.24389,0.70592 -0.16279,1.11156 0.36618,1.83088 -0.5199,3.9729 -1.00769,2.43602 -0.0924,-0.29104 -0.39591,-0.52916 -0.67437,-0.52916 -0.51415,0 -0.58529,0.17348 -0.91984,2.23655 -0.0933,0.57531 -0.40845,1.51373 -0.70022,2.08566 l -0.53072,1.04025 1.66967,1.68413 c 0.91819,0.92642 1.72864,1.68466 1.80144,1.68466 0.0728,0 -0.61867,-0.75824 -1.53686,-1.68466 l -1.66966,-1.68413 0.5674,-1.11208 c 0.31196,-0.6115 0.63694,-1.70223 0.72244,-2.42414 0.18203,-1.53687 0.45189,-1.80372 1.07952,-1.06763 0.95043,1.11467 1.21505,0.86818 3.22668,-3.00757 1.05741,-2.0373 1.95167,-3.738 1.98747,-3.7791 0.0358,-0.0411 1.98574,-0.54969 4.33307,-1.13068 4.55897,-1.12839 8.58787,-1.5528 8.96431,-0.94413 0.22995,0.37182 1.7752,1.48828 2.05983,1.48828 0.1045,0 0.0416,-0.17859 -0.13953,-0.39687 -0.18116,-0.21829 -0.44786,-0.39688 -0.59273,-0.39688 -0.14488,0 -0.67015,-0.35719 -1.16737,-0.79375 -1.00523,-0.88261 -1.212,-0.91941 -2.85822,-0.50488 -2.00841,0.50572 -2.1257,0.29226 -0.80616,-1.46761 l 1.18133,-1.57613 -0.56689,-0.60306 c -0.3116,-0.33168 -0.95217,-0.67528 -1.42369,-0.76378 -0.47151,-0.0885 -1.08762,-0.42528 -1.36891,-0.74879 -0.28129,-0.32351 -1.27537,-0.86855 -2.20916,-1.21078 -0.9338,-0.34224 -1.7464,-0.66098 -1.8061,-0.70848 -0.0597,-0.0475 0.0982,-0.31497 0.3514,-0.5948 0.36114,-0.39905 0.39925,-0.62417 0.17519,-1.04283 -0.37617,-0.70297 -0.36128,-0.83302 0.0977,-0.83302 0.21105,0 0.47894,-0.163 0.59531,-0.36226 0.11638,-0.19926 1.16437,-0.69477 2.32854,-1.1007 1.16416,-0.40594 2.59291,-0.90729 3.175,-1.11466 0.69863,-0.24854 1.6878,-0.33524 2.91041,-0.25374 1.01865,0.0679 2.08635,0.0375 2.37299,-0.0677 0.28947,-0.10626 -0.56473,-0.20931 -1.92133,-0.23151 -1.62872,-0.0266 -2.81585,0.0961 -3.56361,0.36793 -1.52872,0.55575 -3.61348,1.20193 -4.27778,1.32602 -0.30138,0.0563 -0.72636,0.31913 -0.94464,0.58395 -0.21828,0.26483 -0.60312,0.5603 -0.85525,0.6568 -0.33485,0.1282 -0.42199,0.3743 -0.32349,0.91313 0.0742,0.40572 0.008,0.91653 -0.14573,1.13481 -0.23269,0.32953 -0.50601,0.14996 -1.6123,-1.05833 -0.7328,-0.80036 -1.60643,-1.87192 -1.94149,-2.38125 -0.33506,-0.50932 -0.87406,-1.1628 -1.19734,-1.45211 -0.32328,-0.28931 -0.94182,-1.28353 -1.37459,-2.20917 l -0.78652,-1.6831 -0.94464,0.17725 c -0.89114,0.16718 -0.93495,0.14272 -0.7798,-0.43667 0.0904,-0.3377 0.16595,-0.89143 0.16795,-1.23041 0.003,-0.54672 0.0933,-0.59648 0.79737,-0.44184 0.64152,0.1409 0.79375,0.0872 0.79375,-0.28008 0,-0.40098 0.20227,-0.43402 1.71979,-0.27854 1.11548,0.11424 1.71979,0.0808 1.71979,-0.0956 0,-0.14957 0.23978,-0.5116 0.53278,-0.8046 l 0.53279,-0.53278 1.04386,0.53278 c 1.47732,0.75367 1.8062,0.68735 2.01125,-0.40566 0.0969,-0.51611 0.11672,-0.99794 0.0439,-1.07074 -0.0728,-0.0728 -0.21171,0.29005 -0.30851,0.80616 -0.0968,0.51611 -0.23495,0.93844 -0.30695,0.93844 -0.072,0 -0.60865,-0.24438 -1.19321,-0.5426 -1.21819,-0.62148 -1.99322,-0.49199 -2.39986,0.40049 -0.25633,0.5626 -0.3964,0.59588 -1.96783,0.46974 -1.48491,-0.1192 -1.69241,-0.0793 -1.69241,0.32556 0,0.31201 -0.13555,0.40988 -0.41858,0.30127 -0.23019,-0.0883 -0.47538,-0.16071 -0.54518,-0.16071 -0.0697,0 -0.0448,-0.54915 0.0558,-1.22008 0.12707,-0.84736 0.0844,-1.2808 -0.14005,-1.41955 -0.48448,-0.29942 4.53059,-1.13026 5.60535,-0.92863 0.84726,0.15895 0.9645,0.0984 1.46864,-0.75602 0.37386,-0.63364 0.7856,-0.96417 1.29605,-1.04077 0.74293,-0.11144 0.74184,-0.11253 -0.0863,-0.15193 -0.6708,-0.0319 -0.93825,0.12533 -1.36736,0.80306 -0.49485,0.78153 -0.64496,0.84476 -2.07636,0.87436 -0.84868,0.0176 -2.1062,0.13061 -2.79466,0.25115 l -1.25161,0.21911 0.11886,-2.87941 c 0.0656,-1.58375 0.12312,-3.08292 0.12712,-3.33158 0.007,-0.39999 0.15814,-0.37726 1.30638,0.19947 0.71381,0.35852 1.48897,0.57866 1.7229,0.48886 0.23393,-0.0898 0.59631,-0.0214 0.80512,0.15192 0.25224,0.20935 0.52889,0.2312 0.82475,0.0656 0.29062,-0.16267 0.82868,-0.1335 1.54874,0.0832 0.90237,0.27157 1.22117,0.26702 1.75132,-0.0238 0.61817,-0.33908 0.60261,-0.34836 -0.33952,-0.20205 -0.55537,0.0863 -1.3376,0.009 -1.78645,-0.17725 -0.61132,-0.25325 -0.88583,-0.25827 -1.1715,-0.0212 -0.25507,0.21169 -0.42693,0.22172 -0.54416,0.032 -0.0943,-0.15259 -0.56466,-0.27699 -1.04489,-0.27699 -0.48023,0 -1.57465,-0.35593 -2.4319,-0.79065 -0.85725,-0.43472 -1.81171,-0.79175 -2.12132,-0.79375 -0.72386,-0.004 -0.90528,-0.26579 -1.79213,-2.58278 -0.40382,-1.05502 -0.79629,-1.91823 -0.87179,-1.91823 z m 2.18643,4.80642 c 1.59564,-0.0466 1.66502,0.41395 1.54926,3.19567 -0.0621,1.4923 -0.11152,3.04096 -0.10852,3.44114 0.005,0.72461 -0.003,0.7276 -1.83399,0.7276 -1.01149,0 -2.14492,0.11595 -2.5182,0.25787 -0.42821,0.16277 -0.67851,0.16479 -0.67851,0.005 0,-0.13914 -0.30448,-0.32973 -0.67696,-0.42323 -0.49853,-0.125 -0.62861,-0.28346 -0.49351,-0.59996 0.10105,-0.23671 0.33938,-0.84719 0.52969,-1.35651 0.19032,-0.50932 0.59097,-1.39757 0.89038,-1.97404 0.2994,-0.57648 0.54415,-1.43275 0.54415,-1.90272 0,-1.04994 0.21322,-1.19022 2.01538,-1.3255 0.29417,-0.0221 0.55289,-0.0388 0.78083,-0.0455 z m -0.93017,7.65483 c 0.70813,-0.0305 1.19957,0.0916 1.47433,0.36639 0.34641,0.34642 0.34089,0.67011 -0.0465,2.77812 l -0.43822,2.3859 h -1.64176 c -1.00265,0 -1.84175,-0.14683 -2.15542,-0.37672 -0.29279,-0.21463 -0.81453,-0.31618 -1.21388,-0.23668 -0.610623,0.1216 -0.723733,0.036 -0.8785,-0.66869 -0.09767,-0.44461 -0.09908,-1.3297 -0.0036,-1.96629 l 0.173633,-1.15703 1.955437,-0.57568 c 1.14157,-0.33585 2.06638,-0.51877 2.77451,-0.54932 z m -5.350579,0.0233 0.158647,0.63252 c 0.08728,0.34767 0.08308,1.10433 -0.0093,1.68206 -0.09238,0.57772 -0.08692,1.4815 0.01188,2.00815 0.171002,0.91153 0.225227,0.9538 1.134822,0.8754 0.52553,-0.0453 0.99688,0.0419 1.04748,0.19378 0.10534,0.31599 -2.228452,2.87499 -2.82774,3.10059 -0.333487,0.12553 -0.338217,0.19024 -0.03101,0.40514 0.465406,0.32556 0.211714,1.78332 -0.462504,2.65979 -0.575642,0.74833 -1.534917,0.58464 -1.869137,-0.31884 -0.164853,-0.44564 -0.01459,-0.80145 0.679029,-1.61179 0.489585,-0.57197 0.889868,-1.13744 0.889868,-1.25677 0,-0.429 -1.052831,-0.20344 -2.461865,0.52761 -1.029463,0.53412 -1.703605,0.71327 -2.382284,0.63407 -0.835525,-0.0975 -1.073098,0.0231 -2.02985,1.02888 -0.827168,0.86954 -1.090087,1.36151 -1.110527,2.07791 -0.01473,0.51619 -0.142168,1.08551 -0.283703,1.26556 -0.141529,0.18005 -0.191881,0.49881 -0.111621,0.70796 0.0854,0.22256 -0.121934,0.55553 -0.499712,0.80306 -0.355021,0.23261 -0.645438,0.5574 -0.645438,0.72192 0,0.60803 -2.184837,2.33474 -2.954342,2.33474 -0.599904,0 -0.750759,0.11896 -0.753959,0.59531 -0.0022,0.32742 -0.119385,0.77391 -0.260449,0.99219 -0.459723,0.71137 -0.307495,-2.58949 0.16123,-3.49591 0.283539,-0.54824 0.377934,-1.18244 0.282154,-1.89653 -0.132616,-0.98872 -0.06025,-1.15235 0.920874,-2.08566 0.585527,-0.557 1.003028,-1.17213 0.928108,-1.36736 -0.09377,-0.24436 0.02267,-0.31349 0.373621,-0.22169 0.402057,0.10514 0.544808,-0.041 0.674894,-0.69143 0.09072,-0.4536 0.269028,-0.82476 0.396358,-0.82476 0.127331,0 0.231511,-0.17489 0.231511,-0.3886 0,-0.2367 0.155122,-0.32896 0.396875,-0.23616 0.218281,0.0837 0.396875,0.0477 0.396875,-0.0801 0,-0.12775 0.535781,-0.52492 1.190625,-0.88264 1.304083,-0.71239 1.459479,-1.19843 0.7922,-2.47788 -0.217384,-0.41682 -0.395325,-0.91284 -0.395325,-1.10226 0,-0.34435 1.874638,-1.97611 2.270146,-1.97611 0.1152,0 0.455088,-0.22777 0.755509,-0.50591 0.300421,-0.27815 1.637696,-0.80269 2.971395,-1.16582 z m 8.326619,5.61722 0.76016,1.62419 c 0.41801,0.89325 1.05491,1.9015 1.41542,2.24018 0.52195,0.49034 0.65526,0.87569 0.65526,1.89239 0,1.1841 -0.0476,1.27692 -0.65836,1.27692 -0.36224,0 -1.26371,-0.22966 -2.00298,-0.51056 -1.32796,-0.50458 -1.34925,-0.50458 -1.78128,0 -0.24052,0.2809 -0.64183,0.51056 -0.89194,0.51056 -0.25012,0 -0.52867,0.11907 -0.61857,0.26459 -0.22563,0.36513 -0.59513,0.33149 -0.7276,-0.0661 -0.0765,-0.22979 -0.85511,-0.33998 -2.55127,-0.36018 -1.435806,-0.0171 -2.565594,-0.15335 -2.74298,-0.33073 -0.192494,-0.19249 -0.201744,-0.30128 -0.02584,-0.30128 0.296497,0 0.888318,-1.71144 0.888318,-2.56832 0,-0.28718 0.625079,-1.18653 1.389062,-1.99884 l 1.38906,-1.47691 2.75177,-0.0977 z m 3.22771,5.16145 1.63091,1.9575 c 1.47347,1.76823 1.80309,2.01816 3.41271,2.5864 0.97992,0.34595 2.11013,0.93561 2.51148,1.31052 0.40135,0.37492 1.20475,0.82389 1.78542,0.99787 1.01014,0.30264 1.63804,1.02458 1.17305,1.34876 -0.12106,0.0844 -0.54585,0.71653 -0.94361,1.40508 -0.39776,0.68854 -0.93343,1.36459 -1.19062,1.50223 -0.25719,0.13765 -2.0692,0.62261 -4.02663,1.07746 -3.81555,0.88663 -4.20436,1.025 -4.52479,1.61023 h -5.1e-4 c -0.11419,0.20856 -0.90314,1.71373 -1.75339,3.3445 l -1.54564,2.96468 0.0935,-1.77405 c 0.21952,-4.16713 -0.22066,-5.66526 -1.76424,-6.00429 -0.90494,-0.19876 -1.20776,-1.02414 -0.59893,-1.63297 0.23618,-0.23618 0.45563,-0.60925 0.48783,-0.82889 0.0322,-0.21964 0.16829,-0.47081 0.30231,-0.55811 0.31963,-0.20823 0.35408,-1.85148 0.0506,-2.41846 -0.1307,-0.24423 -0.16692,-0.87941 -0.0806,-1.41128 0.12361,-0.7617 0.3037,-1.00324 0.84905,-1.13843 0.3808,-0.0944 1.43007,-0.50167 2.33164,-0.90485 l 1.63917,-0.73278 0.0806,-1.3503 z" /><path
         id="path1"
         style="fill:none;fill-opacity:1;stroke:#ffffff;stroke-opacity:1"
         d="m 67.584506,105.56644 c -0.297639,0 -0.595119,0.14018 -0.827339,0.42116 -0.33238,0.40213 -0.312881,0.40808 0.232027,0.0687 0.510511,-0.31792 0.680114,-0.31792 1.190625,0 0.544908,0.3394 0.564408,0.33345 0.232027,-0.0687 -0.23222,-0.28098 -0.5297,-0.42116 -0.82734,-0.42116 z m -7.408333,0.0103 c -0.311712,0 -0.623425,0.0151 -0.859896,0.0444 -0.472943,0.0587 -0.08599,0.10645 0.859896,0.10645 0.945886,0 1.332839,-0.0478 0.859896,-0.10645 -0.236472,-0.0293 -0.548184,-0.0444 -0.859896,-0.0444 z m -2.667538,0.004 c -0.09192,-0.004 -0.19699,0.013 -0.292488,0.0512 -0.211067,0.0844 -0.148545,0.1475 0.15968,0.1602 0.278916,0.0115 0.435186,-0.0511 0.347266,-0.13901 -0.04396,-0.0439 -0.122542,-0.0686 -0.214458,-0.0724 z m 7.694621,0 c -0.167845,0 -0.33569,0.0163 -0.463021,0.0496 -0.254662,0.0665 -0.0463,0.12092 0.463021,0.12092 0.509321,0 0.717683,-0.0544 0.463021,-0.12092 -0.12733,-0.0333 -0.295176,-0.0496 -0.463021,-0.0496 z m -1.852083,0.002 c -0.119889,0 -0.239779,0.0186 -0.330729,0.0553 -0.181901,0.0733 -0.03307,0.13332 0.330729,0.13332 0.363799,0 0.51263,-0.0599 0.330729,-0.13332 -0.09095,-0.0367 -0.21084,-0.0553 -0.330729,-0.0553 z m -7.14375,5.2e-4 c -0.11989,0 -0.239778,0.0186 -0.330729,0.0553 -0.181901,0.0734 -0.03307,0.13333 0.330729,0.13333 0.363799,0 0.51263,-0.0599 0.330729,-0.13333 -0.09095,-0.0367 -0.21084,-0.0553 -0.330729,-0.0553 z m -2.198316,5.2e-4 -0.844392,0.0351 0.926041,0.19482 c 0.509323,0.1072 0.962721,0.21076 1.007691,0.22996 0.04497,0.0192 0.0083,-0.0844 -0.08165,-0.22996 -0.08994,-0.14556 -0.543336,-0.24906 -1.007691,-0.22996 z m 7.468278,1.05626 c -0.09192,-0.004 -0.19699,0.013 -0.292488,0.0512 -0.211066,0.0845 -0.148545,0.1475 0.15968,0.1602 0.278915,0.0115 0.435186,-0.0511 0.347266,-0.13901 -0.04396,-0.0439 -0.122542,-0.0686 -0.214458,-0.0724 z m 6.651791,0.67541 c -0.09308,-0.0184 -0.240431,-0.0126 -0.42013,0.0217 -0.359398,0.0687 -0.653706,0.17054 -0.653706,0.22634 0,0.20472 1.031365,0.0947 1.166853,-0.12454 0.03847,-0.0622 6.4e-5,-0.10511 -0.09302,-0.12351 z m -13.321668,0.0238 c -0.141037,-0.0187 -0.353506,-0.0157 -0.603064,0.0134 -0.499115,0.0583 -0.907438,0.15249 -0.907438,0.20929 0,0.19912 1.557649,0.10123 1.685685,-0.10594 0.03557,-0.0576 -0.03415,-0.0981 -0.175183,-0.11679 z m 52.145652,0.0816 c -0.18822,-0.0407 -0.43381,0.0463 -0.66404,0.27647 -0.16237,0.16238 -0.57345,0.43334 -0.91312,0.60203 -0.33967,0.16869 -0.65665,0.5789 -0.70435,0.91158 -0.0477,0.33267 -0.25602,0.6699 -0.46302,0.7493 -0.20699,0.0794 -0.37621,0.37257 -0.37621,0.65164 0,0.29779 -0.27327,0.61154 -0.66146,0.75913 -0.37201,0.14144 -0.66145,0.46279 -0.66145,0.73432 0,0.26554 -0.13626,0.61891 -0.30283,0.78548 -0.22741,0.22742 -0.12945,0.34643 0.39274,0.47749 0.6494,0.16299 0.66941,0.21147 0.30283,0.73484 -0.2159,0.30824 -0.39274,0.77229 -0.39274,1.03095 0,0.53968 -0.21577,0.57621 -1.1958,0.2036 -0.82807,-0.31483 -1.340113,-0.10623 -0.93586,0.38086 0.15135,0.18234 0.21263,0.39354 0.13643,0.46974 -0.0762,0.0762 0.21469,0.28467 0.64647,0.46353 0.48218,0.19972 0.89248,0.63338 1.0635,1.12397 0.26356,0.75605 0.24719,0.78833 -0.31316,0.60513 -0.32561,-0.10644 -0.9235,-0.18378 -1.3286,-0.17208 -0.4051,0.0117 -1.059943,-0.10589 -1.455206,-0.26149 -1.379852,-0.54322 -2.10526,-0.6969 -2.407605,-0.51004 -0.244128,0.15088 -1.602676,4.42579 -1.615406,5.08341 -0.0018,0.0934 0.297035,0.24534 0.664043,0.33744 0.569078,0.14283 0.626126,0.24414 0.387573,0.68988 -0.15385,0.28747 -0.202107,0.52297 -0.107487,0.52297 0.09462,0 -0.02026,0.29347 -0.255282,0.65216 -0.235017,0.35868 -0.427364,0.87966 -0.427364,1.15807 0,0.27841 -0.26517,0.68252 -0.589111,0.89761 -0.504314,0.33486 -0.546936,0.48322 -0.29714,1.03147 0.253307,0.55594 0.182895,0.76602 -0.535367,1.59628 -0.454977,0.52592 -1.30359,1.17504 -1.885673,1.44229 -0.582083,0.26724 -1.35599,0.81655 -1.719792,1.22111 -1.498596,1.66648 -3.855142,3.90726 -4.10931,3.90726 -0.06822,0 -0.124023,-0.23813 -0.124023,-0.52917 0,-0.29398 -0.176388,-0.52916 -0.396875,-0.52916 -0.218281,0 -0.396875,0.17859 -0.396875,0.39687 0,0.21828 -0.211856,0.39688 -0.470773,0.39688 -0.258917,0 -0.64587,0.25456 -0.859896,0.56585 -0.214026,0.31128 -0.665705,0.90441 -1.003556,1.31775 -0.337851,0.41334 -0.547571,0.85938 -0.466121,0.99116 0.275574,0.44589 -0.447673,2.01334 -1.542542,3.34294 -1.876931,2.27933 -1.838114,2.21176 -1.500167,2.61897 0.405695,0.48883 0.187212,1.58551 -0.486275,2.44171 -0.672701,0.8552 -0.508711,1.15703 0.628386,1.15703 0.54003,0 0.940815,0.15392 1.034045,0.39688 0.08376,0.21829 0.34302,0.39687 0.575675,0.39687 0.277928,0 0.376568,0.15881 0.287838,0.46302 -0.07428,0.25466 -0.214005,1.02283 -0.310575,1.70739 -0.170087,1.20566 -0.152348,1.25064 0.579809,1.43299 0.415705,0.10353 0.875089,0.33857 1.02061,0.52245 0.145521,0.18388 0.56224,0.37291 0.926042,0.41961 0.470606,0.0605 0.648413,0.23393 0.615983,0.601 -0.02507,0.28375 0.229426,0.75956 0.565857,1.05782 0.396777,0.35176 0.707444,1.05388 0.884183,1.99781 0.367368,1.96205 2.220625,7.18243 2.850472,8.02948 0.279074,0.37532 1.915412,1.68414 3.635954,2.90835 l 3.127975,2.2257 3.222025,0.1695 c 1.771951,0.0933 4.191431,0.2404 5.376931,0.3266 l 2.15543,0.15658 0.71313,1.67741 c 0.70685,1.66316 0.72423,1.67949 2.07791,1.96268 0.75069,0.15704 2.37635,0.5096 3.61322,0.78341 h 5.1e-4 c 1.23669,0.27376 2.44231,0.50883 2.67891,0.52193 0.27239,0.0151 0.778,-0.63147 1.37821,-1.76216 0.60685,-1.14317 1.2756,-1.99458 1.85777,-2.36575 0.8936,-0.5697 0.95487,-0.57332 3.49849,-0.1912 1.42391,0.2139 2.71569,0.49388 2.87114,0.62218 0.4395,0.36271 1.639,-0.75886 2.24586,-2.10013 0.69973,-1.54661 0.7183,-3.96995 0.0419,-5.45962 l -0.49661,-1.09399 0.63045,-0.33744 0.63045,-0.33745 -0.52503,-0.84853 c -0.66191,-1.071 -0.65959,-1.09199 0.13694,-1.29191 0.86354,-0.21673 0.83819,-0.38849 -0.262,-1.7725 -0.78322,-0.98528 -0.92404,-1.36825 -0.92604,-2.52233 -0.003,-1.40912 0.21508,-1.68206 1.34204,-1.68206 0.27914,0 0.50746,-0.11769 0.50746,-0.26149 0,-0.14384 0.2679,-0.23313 0.59532,-0.19843 0.43493,0.046 0.59531,-0.0756 0.59531,-0.45166 0,-0.40079 -0.35177,-0.6182 -1.59009,-0.98288 l -1.59008,-0.46819 0.0935,-1.17461 c 0.0798,-1.00318 0.0127,-1.19962 -0.46043,-1.34978 -0.30457,-0.0967 -0.55397,-0.26561 -0.55397,-0.37569 0,-1.03046 0.92337,-6.0237 1.32033,-7.14065 l 0.50539,-1.42317 -2.10323,-2.12648 c -1.55853,-1.57537 -2.10374,-2.30687 -2.10374,-2.82361 0,-0.59107 -0.29254,-0.86016 -1.91823,-1.7663 -1.05502,-0.58806 -2.84335,-1.47501 -3.97392,-1.97093 l -2.05517,-0.90176 0.14831,-1.19062 c 0.1742,-1.39844 0.65601,-3.18082 0.97617,-3.6096 0.13748,-0.18413 -0.13123,-1.06295 -0.68782,-2.24896 -1.57365,-3.35309 -1.75044,-3.89449 -1.49293,-4.57181 0.22259,-0.58545 0.11713,-0.67382 -1.72961,-1.44901 -1.48105,-0.62169 -2.2617,-0.80096 -3.16105,-0.72606 -1.07611,0.0896 -1.2695,0.0133 -1.95543,-0.76791 -0.91694,-1.04481 -0.91829,-1.9972 -0.004,-3.46852 0.34771,-0.55964 0.68308,-1.13452 0.74518,-1.27744 0.0621,-0.14292 0.26982,-0.41657 0.46147,-0.60823 0.35523,-0.35523 0.34297,-0.40616 -0.5209,-2.13011 -0.24291,-0.48473 -0.44183,-1.10981 -0.44183,-1.38906 0,-0.27999 -0.13062,-0.44817 -0.31885,-0.48886 z m -50.21657,0.0103 c -0.215801,0 -0.431602,0.0155 -0.595313,0.047 -0.327422,0.0631 -0.05953,0.11473 0.595313,0.11473 0.654843,0 0.922734,-0.0516 0.595312,-0.11473 -0.163711,-0.0315 -0.379512,-0.047 -0.595312,-0.047 z m 4.211629,0.002 c -0.09192,-0.004 -0.196991,0.013 -0.292489,0.0512 -0.211067,0.0845 -0.148544,0.14698 0.15968,0.15968 0.278916,0.0115 0.435186,-0.0511 0.347266,-0.13901 -0.04396,-0.0439 -0.122542,-0.068 -0.214457,-0.0718 z m -1.565796,0.002 c -0.11989,0 -0.239779,0.0186 -0.330729,0.0553 -0.181901,0.0733 -0.03307,0.13333 0.330729,0.13333 0.3638,0 0.51263,-0.0599 0.330729,-0.13333 -0.09095,-0.0367 -0.21084,-0.0553 -0.330729,-0.0553 z m 3.96875,0 c -0.119889,0 -0.239779,0.0186 -0.330729,0.0553 -0.181901,0.0733 -0.03307,0.13333 0.330729,0.13333 0.363799,0 0.51263,-0.0599 0.330729,-0.13333 -0.09095,-0.0367 -0.21084,-0.0553 -0.330729,-0.0553 z m 1.852083,0 c -0.119889,0 -0.239778,0.0186 -0.330729,0.0553 -0.181901,0.0733 -0.03307,0.13333 0.330729,0.13333 0.3638,0 0.51263,-0.0599 0.330729,-0.13333 -0.09095,-0.0367 -0.210839,-0.0553 -0.330729,-0.0553 z m 5.291667,0 c -0.119889,0 -0.239779,0.0186 -0.330729,0.0553 -0.181901,0.0733 -0.03307,0.13333 0.330729,0.13333 0.363799,0 0.51263,-0.0599 0.330729,-0.13333 -0.09095,-0.0367 -0.21084,-0.0553 -0.330729,-0.0553 z m 36.438607,0.29507 c 0.0698,0.0237 0.0739,0.12563 0.0739,0.29042 0,0.21862 0.19894,0.79374 0.44184,1.27847 0.85775,1.71172 0.86715,1.75437 0.47232,2.08205 -0.21176,0.17575 -0.38499,0.43098 -0.38499,0.56741 0,0.13643 -0.42437,0.80427 -0.9431,1.48363 -0.51872,0.67936 -0.81665,1.277 -0.66197,1.3286 0.15602,0.052 0.21111,0.37384 0.12351,0.72295 -0.12454,0.49623 0.0526,0.82183 0.83819,1.54151 0.82687,0.75751 1.15682,0.89532 1.94407,0.81132 0.59946,-0.0639 1.65504,0.16418 2.86907,0.6196 1.80136,0.67574 1.91146,0.7628 1.77457,1.40405 -0.1332,0.624 0.82016,3.15228 2.10891,5.59242 0.33303,0.63053 0.3305,0.82101 -0.0222,1.52807 -0.36166,0.72495 -1.04497,4.47582 -0.8387,4.60437 0.046,0.0287 1.09574,0.50899 2.33267,1.06764 3.88531,1.75478 5.58892,2.83594 5.50302,3.49177 -0.0784,0.59827 2.06888,3.11312 3.61735,4.23644 0.58778,0.42638 0.71388,0.65576 0.5085,0.92604 -0.45117,0.59372 -0.87857,2.31986 -1.29605,5.23431 -0.49775,3.47484 -0.50295,3.36901 0.17002,3.545 0.49863,0.1304 0.54942,0.28807 0.4315,1.33428 l -0.13333,1.18598 1.68465,0.45579 c 1.02888,0.2785 1.68517,0.59764 1.68517,0.81907 0,0.25473 -0.19688,0.31297 -0.66146,0.19637 -0.40756,-0.10229 -0.66145,-0.0536 -0.66145,0.12712 0,0.1613 -0.28292,0.29352 -0.62891,0.29352 -0.91648,0 -1.3142,0.64909 -1.2609,2.05724 0.0345,0.91199 0.24185,1.48479 0.78651,2.17041 1.19094,1.49917 1.19956,1.5524 0.29921,1.91978 l -0.82837,0.33797 0.55139,0.70176 c 0.68435,0.87002 0.68961,1.1185 0.0326,1.57768 -0.51429,0.35941 -0.51416,0.37378 -0.009,1.42162 0.68618,1.42277 0.68474,3.86278 -0.003,5.37848 -0.53285,1.17419 -1.61126,2.28258 -1.84899,1.90015 -0.19142,-0.30791 -5.88627,-1.11405 -6.06733,-0.85887 -0.0833,0.11742 -0.49001,0.45368 -0.90382,0.74776 -0.41381,0.29409 -1.12818,1.24169 -1.5875,2.10582 v 5.1e-4 c -0.45932,0.86414 -1.01367,1.58961 -1.23196,1.61231 -0.21828,0.0227 -1.93523,-0.2886 -3.81527,-0.69195 -3.72198,-0.79852 -3.801,-0.84911 -4.54391,-2.91507 l -0.45424,-1.264 -2.27376,-0.1571 c -1.25068,-0.0863 -3.72384,-0.23436 -5.495791,-0.32866 l -3.222025,-0.17105 -3.102137,-2.21485 c -1.70633,-1.21814 -3.286254,-2.47704 -3.510897,-2.79776 -0.562223,-0.80269 -2.403919,-6.10964 -2.736783,-7.88634 -0.155672,-0.83091 -0.529712,-1.73898 -0.871782,-2.11667 -0.329493,-0.36381 -0.540012,-0.82395 -0.467672,-1.02268 0.160388,-0.4406 -0.386115,-0.82027 -1.189591,-0.82527 -0.338635,-0.002 -0.595312,-0.16768 -0.595312,-0.38344 0,-0.2171 -0.311151,-0.41512 -0.727605,-0.46302 -0.801114,-0.0922 -0.866592,-0.41533 -0.51263,-2.53111 0.146152,-0.87363 0.106279,-1.12448 -0.179317,-1.12448 -0.202183,0 -0.510298,-0.17225 -0.684713,-0.38241 -0.174415,-0.21015 -0.732355,-0.41852 -1.239717,-0.46302 l -0.922425,-0.0806 0.803052,-1.05834 c 0.934695,-1.23196 0.963684,-1.38471 0.384989,-2.02416 -0.403153,-0.44548 -0.387899,-0.53699 0.227894,-1.34359 0.363483,-0.47611 1.005047,-1.23399 1.425236,-1.68413 0.756556,-0.81049 1.425236,-2.25921 1.425236,-3.08767 0,-0.23608 0.2375,-0.59572 0.527616,-0.79892 0.290114,-0.20321 0.447479,-0.44913 0.349849,-0.54673 -0.192975,-0.19297 0.524904,-0.9009 1.451075,-1.43092 0.48941,-0.28012 0.581876,-0.27009 0.581876,0.0656 0,0.81678 0.832387,0.34368 2.903182,-1.65106 2.763142,-2.66166 2.849538,-2.7343 3.869015,-3.25406 0.476199,-0.24278 1.280353,-0.88083 1.786971,-1.418 0.865979,-0.9182 0.899176,-1.01857 0.556555,-1.67897 -0.337549,-0.65062 -0.316561,-0.73404 0.288871,-1.1312 0.359515,-0.23584 0.577705,-0.50489 0.484725,-0.59789 -0.153276,-0.15327 0.328746,-1.45894 0.971517,-2.63189 0.355166,-0.64811 0.341723,-0.66939 -0.542086,-0.86351 -0.436563,-0.0959 -0.79375,-0.20344 -0.79375,-0.23874 0,-0.0353 0.172902,-0.59121 0.383956,-1.23559 0.211054,-0.64439 0.51292,-1.67752 0.671277,-2.29598 0.307605,-1.20136 0.806753,-1.42101 1.899626,-0.83613 0.296352,0.15861 1.283444,0.39362 2.193145,0.52245 0.9097,0.12883 1.84872,0.309 2.08721,0.4005 0.39905,0.15313 0.40079,0.0852 0.0217,-0.85318 -0.22657,-0.56085 -0.64232,-1.21722 -0.92398,-1.45883 -0.73824,-0.63325 -0.6307,-0.94161 0.28164,-0.8077 0.75454,0.11073 0.95038,-0.0908 0.8139,-0.83664 -0.0233,-0.12735 0.17129,-0.46899 0.43202,-0.75913 0.45738,-0.50894 0.45445,-0.5409 -0.0832,-0.9002 -0.7009,-0.4684 -0.56675,-1.68104 0.18603,-1.68104 0.30331,0 0.55641,-0.25055 0.65681,-0.6506 0.0898,-0.35783 0.32982,-0.7893 0.53382,-0.9586 0.204,-0.16931 0.37167,-0.50162 0.37259,-0.73846 9.2e-4,-0.23684 0.38787,-0.66592 0.85989,-0.95343 0.76606,-0.46659 1.06498,-0.64412 1.18133,-0.60461 z m 44.46653,0.003 c -0.0337,-0.0271 -0.0829,0.008 -0.14521,0.10491 -0.10691,0.16698 -0.61101,0.48456 -1.12034,0.7059 l -0.92605,0.40255 0.79375,0.0527 c 0.43656,0.0291 0.94258,0.0339 1.12448,0.0103 0.1819,-0.0236 0.33073,0.15543 0.33073,0.39791 0,0.31575 0.0939,0.36657 0.33073,0.17932 0.1819,-0.1438 0.50933,-0.33412 0.72761,-0.42272 0.27639,-0.1122 0.23621,-0.15084 -0.1323,-0.12764 -0.29104,0.0183 -0.82682,-0.0965 -1.19062,-0.25476 -0.4754,-0.20691 -0.53122,-0.29228 -0.19844,-0.30438 0.25985,-0.009 0.46089,-0.22022 0.45889,-0.48007 -0.001,-0.1485 -0.0195,-0.23699 -0.0532,-0.26407 z m 0.85111,0.76171 c -0.61022,0.0251 -0.59997,0.0431 0.13229,0.22945 1.14365,0.29101 1.37636,0.29101 0.92605,0 -0.21828,-0.14102 -0.69454,-0.24445 -1.05834,-0.22945 z m 2.11667,0.22945 c -0.14553,0 -0.26458,0.11906 -0.26458,0.26458 0,0.14552 0.11905,0.26458 0.26458,0.26458 0.14552,0 0.26458,-0.11906 0.26458,-0.26458 0,-0.14552 -0.11906,-0.26458 -0.26458,-0.26458 z m -91.28125,0.29765 c -0.167845,0 -0.33569,0.0169 -0.463021,0.0501 -0.254661,0.0666 -0.0463,0.12092 0.463021,0.12092 0.509321,0 0.717681,-0.0543 0.46302,-0.12092 -0.127331,-0.0333 -0.295175,-0.0501 -0.46302,-0.0501 z m 3.682462,0 c -0.09192,-0.004 -0.196991,0.013 -0.292489,0.0512 -0.211067,0.0844 -0.148543,0.14698 0.159681,0.15968 0.278916,0.0115 0.435185,-0.0511 0.347265,-0.13901 -0.04396,-0.0439 -0.122542,-0.068 -0.214457,-0.0718 z m 3.439583,0 c -0.09192,-0.004 -0.19699,0.013 -0.292488,0.0512 -0.211067,0.0844 -0.148544,0.14698 0.15968,0.15968 0.278916,0.0115 0.435186,-0.0511 0.347266,-0.13901 -0.04396,-0.0439 -0.122542,-0.068 -0.214458,-0.0718 z m -9.238712,0.002 c -0.119889,0 -0.239779,0.0181 -0.330729,0.0548 -0.181901,0.0733 -0.03307,0.13384 0.330729,0.13384 0.363799,0 0.512631,-0.0604 0.330729,-0.13384 -0.09095,-0.0367 -0.21084,-0.0548 -0.330729,-0.0548 z m 4.233333,0 c -0.119889,0 -0.239778,0.0181 -0.330729,0.0548 -0.181901,0.0733 -0.03307,0.13384 0.330729,0.13384 0.3638,0 0.51263,-0.0604 0.330729,-0.13384 -0.09095,-0.0367 -0.210839,-0.0548 -0.330729,-0.0548 z m 3.175,0.786 c -0.08756,0 -0.175291,0.043 -0.260966,0.12867 -0.17135,0.1714 -0.08173,0.26097 0.260966,0.26097 0.342704,0 0.432315,-0.0896 0.260966,-0.26097 -0.08567,-0.0857 -0.173401,-0.12867 -0.260966,-0.12867 z m -1.439705,0.11059 c -0.07193,-0.0189 -0.170946,-0.01 -0.280086,0.032 -0.218282,0.0838 -0.396875,0.19911 -0.396875,0.25631 0,0.0572 0.178593,0.10387 0.396875,0.10387 0.218281,0 0.396875,-0.11536 0.396875,-0.25632 0,-0.0705 -0.04486,-0.11706 -0.116789,-0.1359 z m -3.357418,0.15968 c -0.191823,-9.3e-4 -0.39303,0.0143 -0.557589,0.046 v -5.2e-4 c -0.329119,0.0633 -0.122162,0.11741 0.459921,0.12041 0.582087,0.003 0.851378,-0.049 0.598413,-0.11524 -0.126483,-0.0329 -0.308922,-0.0497 -0.500745,-0.0506 z m 1.865002,5.1e-4 c -0.09192,-0.004 -0.19699,0.013 -0.292488,0.0512 -0.211067,0.0845 -0.148544,0.1475 0.15968,0.1602 0.278916,0.0115 0.435186,-0.0511 0.347266,-0.13901 -0.04396,-0.0439 -0.122542,-0.0686 -0.214458,-0.0724 z m 4.7625,0 c -0.09192,-0.004 -0.19699,0.013 -0.292488,0.0512 -0.211067,0.0845 -0.148544,0.1475 0.15968,0.1602 0.278916,0.0115 0.435186,-0.0511 0.347266,-0.13901 -0.04396,-0.0439 -0.122542,-0.0686 -0.214458,-0.0724 z m 2.38125,0 c -0.09192,-0.004 -0.19699,0.013 -0.292488,0.0512 -0.211067,0.0845 -0.148544,0.1475 0.15968,0.1602 0.188025,0.008 0.312599,-0.02 0.351916,-0.0646 -0.05058,-0.0396 -0.09919,-0.0802 -0.145727,-0.12195 -0.02755,-0.006 -0.04192,-0.0235 -0.07338,-0.0248 z m -11.619962,0.002 c -0.119889,0 -0.239779,0.0186 -0.330729,0.0553 -0.181901,0.0734 -0.03307,0.13333 0.330729,0.13333 0.363799,0 0.512631,-0.0599 0.330729,-0.13333 -0.09095,-0.0367 -0.21084,-0.0553 -0.330729,-0.0553 z m 90.635297,1.81798 c -0.0642,0 -0.19019,0.11906 -0.28009,0.26458 -0.0899,0.14552 -0.0373,0.26458 0.11679,0.26458 0.15411,0 0.28009,-0.11906 0.28009,-0.26458 0,-0.14552 -0.0526,-0.26458 -0.11679,-0.26458 z m -5.65495,65.0875 c -0.0316,1e-4 -0.0435,0.0627 -0.045,0.1881 -0.006,0.44827 -5.33024,0.44513 -5.61516,-0.003 -0.13701,-0.21554 -0.20256,-0.16803 -0.20568,0.14573 -0.003,0.42649 0.45023,0.4625 5.8167,0.4625 5.3688,0 5.8207,-0.036 5.8167,-0.46302 -0.003,-0.31272 -0.0694,-0.36028 -0.20515,-0.14676 -0.27944,0.43957 -5.12111,0.44326 -5.40019,0.004 -0.0795,-0.12512 -0.13064,-0.18769 -0.16226,-0.18758 z" /></g><path
       style="opacity:1;fill:#ab0058;fill-opacity:1;stroke:#780040;stroke-width:1;stroke-dasharray:none;stroke-opacity:1"
       d="m 87.780293,128.6269 c 0,0 -0.505012,-16.49405 18.493487,-16.61658 15.95773,-0.10292 15.65262,16.69908 15.65262,16.69908 v 0 0 l -4.90803,-1.49149 c 0,0 0.33284,-10.66678 -11.3869,-10.55521 -12.711405,0.12101 -12.284024,10.34151 -12.284024,10.34151 z"
       id="path18"
       sodipodi:nodetypes="csccccscc" /></g></svg>
