<?xml version="1.0" encoding="UTF-8" standalone="no"?>
<!-- Created with Inkscape (http://www.inkscape.org/) -->

<svg
   width="51.834717mm"
   height="66.529526mm"
   viewBox="0 0 51.834717 66.529526"
   version="1.1"
   id="svg1"
   xml:space="preserve"
   inkscape:export-batch-path="C:\Users\danie\OneDrive\Documentos\Pagina  web\Imagenes"
   inkscape:export-batch-name="Estudiantes_oscuro"
   xmlns:inkscape="http://www.inkscape.org/namespaces/inkscape"
   xmlns:sodipodi="http://sodipodi.sourceforge.net/DTD/sodipodi-0.dtd"
   xmlns="http://www.w3.org/2000/svg"
   xmlns:svg="http://www.w3.org/2000/svg"><sodipodi:namedview
     id="namedview1"
     pagecolor="#ffffff"
     bordercolor="#000000"
     borderopacity="0.25"
     inkscape:showpageshadow="2"
     inkscape:pageopacity="0.0"
     inkscape:pagecheckerboard="0"
     inkscape:deskcolor="#d1d1d1"
     inkscape:document-units="mm" /><defs
     id="defs1" /><g
     inkscape:label="Capa 1"
     inkscape:groupmode="layer"
     id="layer1"
     transform="translate(-73.585668,-108.46956)"><circle
       style="opacity:1;fill:#cccccc;stroke:none;stroke-width:0.344954"
       id="path1"
       cx="98.13913"
       cy="132.74608"
       r="24.276522" /><g
       id="g1"
       transform="translate(55.19955,49.631084)"
       style="stroke:#00796b;stroke-opacity:1"><path
         style="fill:#d0d0d0;fill-opacity:1;stroke:#00796b;stroke-opacity:1"
         d="m 32.109716,86.625438 c 0.02496,-0.01007 0.06581,-0.01007 0.09078,0 0.02496,0.01007 0.0045,0.01831 -0.04539,0.01831 -0.04993,0 -0.07035,-0.0082 -0.04539,-0.01831 z m 1.289034,-8.606643 c 0.03495,-0.0091 0.09214,-0.0091 0.127088,0 0.03495,0.0091 0.0064,0.01661 -0.06354,0.01661 -0.0699,0 -0.09849,-0.0075 -0.06354,-0.01661 z"
         id="path9" /><path
         style="fill:#b9b9b9;fill-opacity:1;stroke:#00796b;stroke-opacity:1"
         d="m 32.273115,86.624456 c 0.03495,-0.0091 0.09214,-0.0091 0.127088,0 0.03495,0.0091 0.0064,0.01661 -0.06354,0.01661 -0.0699,0 -0.09849,-0.0075 -0.06354,-0.01661 z m -0.01816,-3.375923 c 0.02496,-0.01007 0.06581,-0.01007 0.09078,0 0.02496,0.01007 0.0045,0.01832 -0.04539,0.01832 -0.04993,0 -0.07035,-0.0082 -0.04539,-0.01832 z"
         id="path8" /><path
         style="fill:#a3a3a3;fill-opacity:1;stroke:#00796b;stroke-opacity:1"
         d="m 33.380594,87.496897 c 0.02496,-0.01007 0.06581,-0.01007 0.09078,0 0.02496,0.01007 0.0045,0.01832 -0.04539,0.01832 -0.04993,0 -0.07035,-0.0082 -0.04539,-0.01832 z m -1.270878,-4.248364 c 0.02496,-0.01007 0.06581,-0.01007 0.09078,0 0.02496,0.01007 0.0045,0.01832 -0.04539,0.01832 -0.04993,0 -0.07035,-0.0082 -0.04539,-0.01832 z"
         id="path7" /><path
         style="fill:#8c8c8c;fill-opacity:1;stroke:#00796b;stroke-opacity:1"
         d="m 31.510588,87.495915 c 0.03495,-0.0091 0.09214,-0.0091 0.127088,0 0.03495,0.0091 0.0064,0.01661 -0.06354,0.01661 -0.0699,0 -0.09849,-0.0075 -0.06354,-0.01661 z m 2.034096,-1.33e-4 c 0.03533,-0.0092 0.08435,-0.0086 0.108932,0.0013 0.02458,0.0099 -0.0043,0.01748 -0.06423,0.01674 -0.05991,-7.4e-4 -0.08003,-0.0089 -0.0447,-0.01808 z m -1.597675,-4.248364 c 0.03533,-0.0092 0.08435,-0.0086 0.108932,0.0013 0.02458,0.0099 -0.0043,0.01748 -0.06423,0.01674 -0.05991,-7.4e-4 -0.08003,-0.0089 -0.0447,-0.01808 z"
         id="path6" /><path
         style="fill:#767676;fill-opacity:1;stroke:#00796b;stroke-opacity:1"
         d="m 33.725547,87.495915 c 0.03495,-0.0091 0.09214,-0.0091 0.127088,0 0.03495,0.0091 0.0064,0.01661 -0.06354,0.01661 -0.0699,0 -0.09849,-0.0075 -0.06354,-0.01661 z m -1.960092,-4.248497 c 0.03533,-0.0092 0.08435,-0.0086 0.108932,0.0013 0.02458,0.0099 -0.0043,0.01748 -0.06424,0.01674 -0.05991,-7.4e-4 -0.08003,-0.0089 -0.0447,-0.01808 z M 51.976172,71.262783 c -0.04517,-0.05759 -0.04388,-0.05888 0.01371,-0.01371 0.06048,0.04744 0.07972,0.07725 0.04984,0.07725 -0.0075,0 -0.03614,-0.0286 -0.06354,-0.06354 z m -17.12499,-0.362911 c 0.174746,-0.0067 0.460693,-0.0067 0.635439,0 0.174746,0.0067 0.03177,0.0121 -0.31772,0.0121 -0.349491,0 -0.492465,-0.0054 -0.317719,-0.0121 z m 5.482931,-1.95e-4 c 1.992102,-0.0052 5.251904,-0.0052 7.244005,0 1.992102,0.0052 0.362201,0.0094 -3.622002,0.0094 -3.984203,0 -5.614104,-0.0042 -3.622003,-0.0094 z"
         id="path5" /><path
         style="fill:#606060;fill-opacity:1;stroke:#00796b;stroke-opacity:1"
         d="m 33.296913,92.931255 c 0,-0.629085 0.0049,-0.886438 0.01099,-0.571895 0.006,0.314542 0.006,0.829247 0,1.14379 -0.006,0.314542 -0.01099,0.05719 -0.01099,-0.571895 z m 5.63e-4,-3.721858 c 7e-6,-0.918663 0.0047,-1.289274 0.01047,-0.82358 0.0058,0.465693 0.0057,1.217327 -1.3e-5,1.670297 -0.0058,0.452969 -0.01046,0.07195 -0.01046,-0.846717 z m 0.63005,-1.713256 c 0.02621,-0.01049 0.05753,-0.0092 0.06959,0.0029 0.01207,0.01207 -0.0094,0.02065 -0.04766,0.01907 -0.0423,-0.0017 -0.05091,-0.01035 -0.02194,-0.02194 z m -0.630079,-2.535108 c 8e-6,-0.898692 0.0047,-1.261138 0.0105,-0.805436 0.0058,0.455703 0.0058,1.190997 -1.4e-5,1.633986 -0.0058,0.44299 -0.01049,0.07014 -0.01048,-0.82855 z m -1.750548,-1.713482 c 0.03495,-0.0091 0.09214,-0.0091 0.127088,0 0.03495,0.0091 0.0064,0.01661 -0.06354,0.01661 -0.0699,0 -0.09849,-0.0075 -0.06354,-0.01661 z m 1.750604,-2.607503 c -7e-6,-0.938634 0.0047,-1.327831 0.01043,-0.864882 0.0057,0.462949 0.0057,1.230923 1.4e-5,1.706608 -0.0057,0.475685 -0.01044,0.09691 -0.01044,-0.841726 z M 32.32985,78.019021 c 0.02621,-0.01049 0.05753,-0.0092 0.0696,0.0029 0.01207,0.01206 -0.0094,0.02065 -0.04766,0.01907 -0.0423,-0.0017 -0.0509,-0.01035 -0.02194,-0.02194 z m 0.967553,-1.609182 c 0,-0.868736 0.0047,-1.224128 0.01053,-0.78976 0.0058,0.434368 0.0058,1.145152 0,1.57952 -0.0058,0.434368 -0.01053,0.07898 -0.01053,-0.78976 z m -9.61e-4,-3.413215 c 0,-0.489288 0.0051,-0.689452 0.01142,-0.444808 0.0063,0.244644 0.0063,0.644971 0,0.889615 -0.0063,0.244644 -0.01142,0.04448 -0.01142,-0.444807 z"
         id="path4" /><path
         style="fill:#494949;fill-opacity:1;stroke:#00796b;stroke-opacity:1"
         d="m 34.070923,87.495264 c 0.04517,-0.0087 0.110527,-0.0084 0.145243,7.33e-4 0.03472,0.0091 -0.0022,0.01619 -0.08212,0.01579 -0.07988,-4.03e-4 -0.108288,-0.0078 -0.06312,-0.01652 z m 6.089767,-8.906777 c 0,-1.427922 0.0045,-2.012072 0.01001,-1.298111 0.0055,0.713961 0.0055,1.882261 0,2.596223 -0.0055,0.713961 -0.01001,0.129811 -0.01001,-1.298112 z m -7.978352,-0.56871 c 0.02496,-0.01007 0.06581,-0.01007 0.09078,0 0.02496,0.01007 0.0045,0.01832 -0.04539,0.01832 -0.04993,0 -0.07035,-0.0082 -0.04539,-0.01832 z M 32.111986,73.9159 c 0.02621,-0.01049 0.05753,-0.0092 0.06959,0.0029 0.01207,0.01207 -0.0094,0.02065 -0.04766,0.01907 -0.0423,-0.0017 -0.0509,-0.01035 -0.02194,-0.02194 z m 0.16182,-3.58e-4 c 0.03533,-0.0092 0.08435,-0.0086 0.108932,0.0013 0.02458,0.0099 -0.0043,0.01748 -0.06424,0.01674 -0.05991,-7.4e-4 -0.08003,-0.0089 -0.0447,-0.01808 z m 1.197565,-0.0013 c 0.07489,-0.0078 0.19744,-0.0078 0.272331,0 0.07489,0.0078 0.01362,0.01424 -0.136165,0.01424 -0.149782,0 -0.211057,-0.0064 -0.136166,-0.01424 z"
         id="path3" /><path
         style="fill:#333333;fill-opacity:1;stroke:#00796b;stroke-opacity:1"
         d="m 34.170354,96.176164 c -0.750847,-0.159475 -1.370367,-0.736096 -1.641826,-1.528141 -0.04978,-0.145254 -0.06179,-0.394148 -0.07359,-1.526137 l -0.01411,-1.352577 h -0.536909 c -0.498761,0 -0.545638,-0.0059 -0.65976,-0.08279 -0.210802,-0.142059 -0.270104,-0.358313 -0.157808,-0.575469 0.0912,-0.176368 0.234868,-0.213201 0.83157,-0.213201 h 0.527673 v -1.706608 -1.706608 h -0.546465 c -0.606566,0 -0.717833,-0.0296 -0.814575,-0.216676 -0.122176,-0.236262 -0.01494,-0.513257 0.224439,-0.579731 0.07593,-0.02108 0.362727,-0.03843 0.637328,-0.03854 l 0.499273,-2.02e-4 V 84.942878 83.23627 h -0.56561 -0.565611 l -0.103469,-0.103469 c -0.195822,-0.195822 -0.17528,-0.472234 0.04734,-0.637015 0.08568,-0.06342 0.177132,-0.07913 0.580973,-0.09979 0.263609,-0.01349 0.507883,-0.02602 0.542832,-0.02786 0.05959,-0.0031 0.06354,-0.111617 0.06354,-1.742369 v -1.739038 l -0.55374,-0.01437 c -0.434916,-0.01129 -0.57893,-0.02784 -0.671135,-0.07712 -0.296185,-0.158307 -0.296694,-0.584853 -8.81e-4,-0.737824 0.09929,-0.05134 0.198518,-0.05726 0.671135,-0.04001 l 0.554621,0.02024 V 76.406743 74.77584 h -0.509517 c -0.537044,0 -0.683012,-0.03131 -0.809827,-0.173724 -0.09687,-0.108784 -0.117621,-0.334237 -0.04389,-0.476821 0.102188,-0.19761 0.246476,-0.233399 0.84342,-0.209204 l 0.515046,0.02088 0.01204,-1.096539 c 0.01141,-1.039611 0.01642,-1.108793 0.09652,-1.33256 0.240689,-0.672429 0.793163,-1.179106 1.512042,-1.386702 l 0.290486,-0.08389 h 8.551194 8.551195 l 0.26607,0.08716 c 0.654728,0.214474 1.172201,0.722527 1.416226,1.390444 l 0.09693,0.265316 0.0095,11.24897 c 0.01053,12.502571 0.03097,11.463958 -0.236298,12.005415 -0.183621,0.37199 -0.552264,0.742955 -0.917659,0.923439 -0.573149,0.283103 0.323601,0.257176 -9.167788,0.265057 -7.399331,0.0061 -8.529556,8.3e-5 -8.750904,-0.04693 z M 35.822496,83.12361 V 70.883141 l -0.735294,0.01535 c -0.663585,0.01386 -0.756541,0.02365 -0.953159,0.100405 -0.298469,0.11652 -0.62736,0.444862 -0.746245,0.745002 -0.0832,0.210061 -0.08634,0.252983 -0.0876,1.198257 l -0.0013,0.980391 h 0.562817 c 0.485725,0 0.576244,0.0091 0.660838,0.06652 0.193275,0.131159 0.221828,0.47751 0.05248,0.636603 -0.128573,0.120787 -0.287692,0.150183 -0.812935,0.150183 H 33.28074 v 1.633986 1.633986 l 0.553739,1.36e-4 c 0.489381,1.2e-4 0.567561,0.0086 0.672655,0.07264 0.270133,0.1647 0.246643,0.566468 -0.0411,0.703012 -0.09803,0.04652 -0.239784,0.05936 -0.655194,0.05936 h -0.5301 v 1.763601 1.763602 l 0.553739,-0.01144 c 0.624923,-0.01292 0.694449,0.0084 0.808166,0.248067 0.08021,0.16904 0.04753,0.333635 -0.09298,0.468255 -0.0947,0.09072 -0.148885,0.108913 -0.389889,0.130865 -0.153949,0.01402 -0.414711,0.02666 -0.579471,0.02808 l -0.299564,0.0026 v 1.685193 1.685194 l 0.553739,0.01392 c 0.353338,0.0089 0.587706,0.03089 0.647594,0.06082 0.243427,0.121651 0.281586,0.479092 0.07121,0.667075 l -0.111747,0.09986 h -0.5804 -0.5804 v 1.706608 1.706608 h 0.509517 c 0.709751,0 0.870293,0.08038 0.870293,0.435729 0,0.355351 -0.160542,0.43573 -0.870293,0.43573 H 33.28074 v 1.118966 c 0,0.65493 0.01648,1.208316 0.03974,1.334422 0.05396,0.292521 0.189041,0.555139 0.390926,0.760001 0.32796,0.332796 0.486434,0.375878 1.39395,0.378951 l 0.717139,0.0024 z M 51.55403,95.26166 c 0.275488,-0.111247 0.577571,-0.390513 0.706573,-0.653204 l 0.101464,-0.206614 0.0093,-11.219051 c 0.0083,-10.062842 0.0035,-11.236552 -0.04709,-11.388865 C 52.202975,71.42872 51.927913,71.14075 51.54507,70.97815 51.386264,70.9107 51.175236,70.90848 44.037811,70.89916 l -7.34386,-0.0096 v 12.237608 12.237607 l 7.325705,-0.0094 7.325704,-0.0094 z M 39.934171,82.075087 c -0.190625,-0.04521 -0.396237,-0.203865 -0.505821,-0.390291 l -0.101862,-0.173289 -0.0099,-2.902764 -0.0099,-2.902764 0.09201,-0.188061 c 0.09836,-0.201037 0.281229,-0.355204 0.493579,-0.416105 0.183726,-0.05269 9.175092,-0.04783 9.385196,0.0051 0.09479,0.02387 0.228288,0.09976 0.324564,0.184501 0.286567,0.252247 0.276779,0.1276 0.264978,3.374293 l -0.01034,2.845828 -0.09999,0.170104 c -0.055,0.09356 -0.150134,0.205806 -0.211416,0.249443 -0.259568,0.184828 -0.118894,0.179849 -4.968504,0.175864 -2.488201,-0.002 -4.577342,-0.01637 -4.642535,-0.03183 z m 9.069146,-3.4866 v -2.650688 h -4.429918 -4.429918 v 2.650688 2.650689 h 4.429918 4.429918 z"
         id="path2" /></g><text
       xml:space="preserve"
       style="font-style:normal;font-variant:normal;font-weight:normal;font-stretch:normal;font-size:11.5388px;font-family:sans-serif;-inkscape-font-specification:sans-serif;text-align:start;writing-mode:lr-tb;direction:ltr;text-anchor:start;opacity:1;fill:#000000;fill-opacity:1;stroke:#000000;stroke-width:0.754;stroke-dasharray:none;stroke-opacity:1"
       x="93.824692"
       y="135.84753"
       id="text9"
       transform="scale(0.77895185,1.2837764)"><tspan
         sodipodi:role="line"
         id="tspan9"
         style="font-style:normal;font-variant:normal;font-weight:normal;font-stretch:normal;font-family:sans-serif;-inkscape-font-specification:sans-serif;fill:#000000;fill-opacity:1;stroke:#000000;stroke-width:0.754;stroke-dasharray:none;stroke-opacity:1"
         x="93.824692"
         y="135.84753">Estudiantes</tspan></text></g></svg>
