<?xml version="1.0" encoding="UTF-8" standalone="no"?>
<!-- Created with Inkscape (http://www.inkscape.org/) -->

<svg
   width="102.47014mm"
   height="116.16932mm"
   viewBox="0 0 102.47014 116.16932"
   version="1.1"
   id="svg1"
   xml:space="preserve"
   inkscape:version="1.4 (86a8ad7, 2024-10-11)"
   sodipodi:docname="Mapa_cdmx.svg"
   xmlns:inkscape="http://www.inkscape.org/namespaces/inkscape"
   xmlns:sodipodi="http://sodipodi.sourceforge.net/DTD/sodipodi-0.dtd"
   xmlns="http://www.w3.org/2000/svg"
   xmlns:svg="http://www.w3.org/2000/svg"><sodipodi:namedview
     id="namedview1"
     pagecolor="#ffffff"
     bordercolor="#000000"
     borderopacity="0.25"
     inkscape:showpageshadow="2"
     inkscape:pageopacity="0.0"
     inkscape:pagecheckerboard="0"
     inkscape:deskcolor="#d1d1d1"
     inkscape:document-units="mm"
     inkscape:zoom="1.0244809"
     inkscape:cx="432.90216"
     inkscape:cy="581.26998"
     inkscape:window-width="1366"
     inkscape:window-height="697"
     inkscape:window-x="-8"
     inkscape:window-y="-8"
     inkscape:window-maximized="1"
     inkscape:current-layer="layer1"><inkscape:page
       x="0"
       y="0"
       width="102.47014"
       height="116.16932"
       id="page2"
       margin="0"
       bleed="0" /></sodipodi:namedview><defs
     id="defs1" /><g
     inkscape:label="Capa 1"
     inkscape:groupmode="layer"
     id="layer1"
     transform="translate(-53.502897,-111.50986)"><circle
       style="opacity:1;fill:#7d00ba;fill-opacity:1;stroke:#5b0088;stroke-width:1;stroke-dasharray:none;stroke-opacity:1"
       id="path9"
       cx="104.73797"
       cy="176.44411"
       r="50.735073"
       inkscape:export-filename="..\Documentos\Pagina  web\Imagenes\Para_investigadores1,0.svg"
       inkscape:export-xdpi="96"
       inkscape:export-ydpi="96" /><path
       style="opacity:1;fill:#7d00ba;fill-opacity:1;stroke:#5b0088;stroke-width:1;stroke-dasharray:none;stroke-opacity:1"
       d="m 87.780293,128.6269 c 0,0 -0.505012,-16.49405 18.493487,-16.61658 15.95773,-0.10292 15.65262,16.69908 15.65262,16.69908 v 0 0 l -4.90803,-1.49149 c 0,0 0.33284,-10.66678 -11.3869,-10.55521 -12.711405,0.12101 -12.284024,10.34151 -12.284024,10.34151 z"
       id="path18"
       sodipodi:nodetypes="csccccscc" /><g
       id="g51"
       transform="matrix(1.6169438,0,0,1.6169438,1.9865086,70.643689)"
       style="fill:#ffffff;fill-opacity:1"><path
         style="fill:#ffffff;fill-opacity:1"
         d="m 49.575319,73.987734 c 0.002,-0.04967 0.01215,-0.05978 0.02576,-0.02576 0.01232,0.03078 0.0108,0.06756 -0.0034,0.08173 -0.01417,0.01417 -0.02425,-0.01102 -0.0224,-0.05597 z m 21.479392,-0.55858 c 0.03078,-0.01232 0.06756,-0.0108 0.08173,0.0034 0.01417,0.01417 -0.01102,0.02425 -0.05597,0.0224 -0.04967,-0.002 -0.05978,-0.01215 -0.02576,-0.02576 z m 0.596965,-0.04264 c 0.03078,-0.01232 0.06756,-0.0108 0.08173,0.0034 0.01417,0.01417 -0.01102,0.02425 -0.05597,0.0224 -0.04967,-0.002 -0.05978,-0.01215 -0.02576,-0.02576 z m 4.207671,-9.415717 c 10e-7,-4.854608 0.005,-6.834256 0.01106,-4.399217 0.0061,2.435038 0.0061,6.40699 -10e-7,8.826559 -0.0061,2.41957 -0.01106,0.427266 -0.01106,-4.427342 z m -22.116632,8.307067 c 0.03078,-0.01232 0.06756,-0.0108 0.08173,0.0034 0.01417,0.01417 -0.01102,0.02425 -0.05597,0.0224 -0.04967,-0.002 -0.05978,-0.01215 -0.02576,-0.02576 z m -4.16245,-0.120113 c 8.69e-4,-0.07036 0.01043,-0.09398 0.02124,-0.05249 0.01081,0.04149 0.0101,0.09905 -0.0016,0.127921 -0.01168,0.02887 -0.02053,-0.0051 -0.01966,-0.07543 z m 4.500908,0.07836 c 0.02931,-0.01183 0.07729,-0.01183 0.106601,0 0.02932,0.01183 0.0053,0.02151 -0.0533,0.02151 -0.05863,0 -0.08261,-0.0097 -0.0533,-0.02151 z m -4.505854,-0.977363 c 0.002,-0.04967 0.01215,-0.05978 0.02576,-0.02576 0.01232,0.03078 0.0108,0.06756 -0.0034,0.08173 -0.01417,0.01417 -0.02425,-0.01102 -0.0224,-0.05597 z m 0.0034,-0.188328 c 0,-0.05863 0.0097,-0.08262 0.02151,-0.0533 0.01183,0.02932 0.01183,0.07729 0,0.106601 -0.01183,0.02932 -0.02151,0.0053 -0.02151,-0.0533 z m 0,-0.426404 c 0,-0.05863 0.0097,-0.08262 0.02151,-0.0533 0.01183,0.02931 0.01183,0.07729 0,0.1066 -0.01183,0.02932 -0.02151,0.0053 -0.02151,-0.0533 z m 13.051117,-0.08528 c 0,-0.08208 0.0088,-0.115662 0.0195,-0.07462 0.01072,0.04104 0.01072,0.1082 0,0.149241 -0.01073,0.04104 -0.0195,0.0075 -0.0195,-0.07462 z m 2.299421,-0.298482 c 0,-0.05863 0.0097,-0.08262 0.02151,-0.0533 0.01183,0.02931 0.01183,0.07729 0,0.106601 -0.01183,0.02931 -0.02151,0.0053 -0.02151,-0.0533 z M 49.575319,69.510493 c 0.002,-0.04967 0.01215,-0.05978 0.02576,-0.02576 0.01232,0.03078 0.0108,0.06756 -0.0034,0.08173 -0.01417,0.01417 -0.02425,-0.01102 -0.0224,-0.05597 z m 0,-0.810167 c 0.002,-0.04967 0.01215,-0.05978 0.02576,-0.02576 0.01232,0.03078 0.0108,0.06756 -0.0034,0.08173 -0.01417,0.01417 -0.02425,-0.01102 -0.0224,-0.05597 z m 0.0034,-0.572092 c 0,-0.05863 0.0097,-0.08262 0.02151,-0.0533 0.01183,0.02931 0.01183,0.07729 0,0.106601 -0.01183,0.02931 -0.02151,0.0053 -0.02151,-0.0533 z m 0.0073,-0.447724 c 1.89e-4,-0.164165 0.0079,-0.226099 0.01713,-0.13763 0.0092,0.08847 0.0091,0.222786 -3.44e-4,0.298483 -0.0094,0.0757 -0.01697,0.0033 -0.01678,-0.160853 z m 3.44e-4,-0.618285 c 0,-0.175892 0.0075,-0.247848 0.01673,-0.159902 0.0092,0.08795 0.0092,0.231857 0,0.319803 -0.0092,0.08795 -0.01673,0.01599 -0.01673,-0.159901 z m -0.01097,-0.408637 c 0.002,-0.04967 0.01215,-0.05978 0.02576,-0.02576 0.01232,0.03078 0.0108,0.06756 -0.0034,0.08173 -0.01417,0.01417 -0.02425,-0.01102 -0.0224,-0.05597 z m 0.0049,-0.209649 c 8.69e-4,-0.07036 0.01043,-0.09398 0.02124,-0.05249 0.01081,0.04149 0.0101,0.09905 -0.0016,0.127921 -0.01168,0.02887 -0.02053,-0.0051 -0.01966,-0.07543 z m -0.0016,-0.277162 c 0,-0.05863 0.0097,-0.08262 0.02151,-0.0533 0.01183,0.02931 0.01183,0.07729 0,0.106601 -0.01183,0.02931 -0.02151,0.0053 -0.02151,-0.0533 z m 13.307727,-0.07457 c 0.486634,-0.0068 1.282943,-0.0068 1.769576,0 0.486634,0.0068 0.08848,0.01244 -0.884788,0.01244 -0.973267,0 -1.371421,-0.0056 -0.884788,-0.01244 z M 49.585165,65.804333 c 2.39e-4,-0.140713 0.0082,-0.193137 0.01769,-0.116497 0.0095,0.07664 0.0093,0.191769 -4.35e-4,0.255842 -0.0097,0.06407 -0.01749,0.0014 -0.01725,-0.139345 z m -0.0065,-0.405083 c 0,-0.05863 0.0097,-0.08262 0.02151,-0.0533 0.01183,0.02932 0.01183,0.07729 0,0.106601 -0.01183,0.02931 -0.02151,0.0053 -0.02151,-0.0533 z m 0.006,-0.639606 c 0,-0.128987 0.008,-0.181755 0.01776,-0.117261 0.0098,0.06449 0.0098,0.170028 0,0.234522 -0.0098,0.06449 -0.01776,0.01173 -0.01776,-0.117261 z m -0.0029,-0.639606 c 0,-0.08208 0.0088,-0.115662 0.0195,-0.07462 0.01073,0.04104 0.01073,0.108199 0,0.149241 -0.01073,0.04104 -0.0195,0.0075 -0.0195,-0.07462 z m -0.0032,-1.066009 c 0,-0.05863 0.0097,-0.08262 0.02151,-0.0533 0.01183,0.02931 0.01183,0.07729 0,0.106601 -0.01183,0.02931 -0.02151,0.0053 -0.02151,-0.0533 z m -0.0034,-0.323357 c 0.002,-0.04967 0.01215,-0.05978 0.02576,-0.02576 0.01232,0.03078 0.0108,0.06756 -0.0034,0.08173 -0.01417,0.01417 -0.02425,-0.01102 -0.0224,-0.05597 z m 0.01221,-0.508131 c 1.11e-4,-0.234522 0.0073,-0.325023 0.01591,-0.201112 0.0086,0.12391 0.0085,0.315792 -2.02e-4,0.426403 -0.0088,0.110612 -0.01582,0.0092 -0.01571,-0.225291 z m -0.01221,-0.72844 c 0.002,-0.04967 0.01215,-0.05978 0.02576,-0.02576 0.01232,0.03078 0.0108,0.06756 -0.0034,0.08173 -0.01417,0.01417 -0.02425,-0.01102 -0.0224,-0.05597 z m 0.0034,-0.44417 c 0,-0.05863 0.0097,-0.08262 0.02151,-0.0533 0.01183,0.02931 0.01183,0.07729 0,0.106601 -0.01183,0.02931 -0.02151,0.0053 -0.02151,-0.0533 z m -0.0034,-0.195436 c 0.002,-0.04967 0.01215,-0.05978 0.02576,-0.02576 0.01232,0.03078 0.0108,0.06756 -0.0034,0.08173 -0.01417,0.01417 -0.02425,-0.01102 -0.0224,-0.05597 z m 0.0074,-1.659421 c 4.74e-4,-0.09381 0.0092,-0.127165 0.01941,-0.07412 0.0102,0.05304 0.0098,0.129794 -8.6e-4,0.170562 -0.01067,0.04077 -0.01902,-0.0026 -0.01855,-0.09644 z m 8.61e-4,-0.618286 c 0,-0.105535 0.0083,-0.148708 0.01848,-0.09594 0.01016,0.05277 0.01016,0.139115 0,0.191882 -0.01016,0.05277 -0.01848,0.0096 -0.01848,-0.09594 z m 0.0012,-0.639606 c 0,-0.128987 0.008,-0.181754 0.01776,-0.117261 0.0098,0.06449 0.0098,0.170029 0,0.234523 -0.0098,0.06449 -0.01776,0.01173 -0.01776,-0.117262 z m 10.224281,-0.06751 c 0.002,-0.04967 0.01215,-0.05978 0.02576,-0.02576 0.01232,0.03078 0.0108,0.06756 -0.0034,0.08173 -0.01417,0.01417 -0.02425,-0.01102 -0.0224,-0.05597 z M 49.583566,57.340217 c 0,-0.105535 0.0083,-0.148708 0.01848,-0.09594 0.01016,0.05277 0.01016,0.139114 0,0.191882 -0.01016,0.05277 -0.01848,0.0096 -0.01848,-0.09594 z m 13.398787,-1.10865 c 0.04245,-0.0469 0.08677,-0.08528 0.0985,-0.08528 0.01173,0 -0.01341,0.03838 -0.05586,0.08528 -0.04245,0.04691 -0.08677,0.08528 -0.0985,0.08528 -0.01173,0 0.01341,-0.03838 0.05586,-0.08528 z m 11.227746,-1.39362 c 0.03078,-0.01232 0.06756,-0.0108 0.08173,0.0034 0.01417,0.01417 -0.01102,0.02425 -0.05597,0.0224 -0.04967,-0.002 -0.05978,-0.01215 -0.02576,-0.02576 z"
         id="path58" /><path
         style="fill:#ffffff;fill-opacity:1"
         d="m 64.584734,74.286216 c 0.002,-0.04967 0.01215,-0.05978 0.02576,-0.02576 0.01232,0.03078 0.0108,0.06756 -0.0034,0.08173 -0.01417,0.01417 -0.02425,-0.01102 -0.0224,-0.05597 z m 12.380683,-1.595461 c 0,-0.551127 0.0061,-0.776588 0.0135,-0.501024 0.0074,0.275563 0.0074,0.726485 0,1.002049 -0.0074,0.275563 -0.0135,0.0501 -0.0135,-0.501025 z m -4.398826,0.695338 c 0.04149,-0.01081 0.09905,-0.0101 0.127921,0.0016 0.02887,0.01168 -0.0051,0.02052 -0.07543,0.01966 -0.07036,-8.69e-4 -0.09398,-0.01042 -0.05249,-0.02124 z m 0.364297,-1.19351 c 0.03078,-0.01232 0.06756,-0.0108 0.08173,0.0034 0.01417,0.01417 -0.01102,0.02425 -0.05597,0.0224 -0.04967,-0.002 -0.05978,-0.01215 -0.02576,-0.02576 z m 4.03109,-1.164803 c 0,-0.199343 0.0073,-0.280893 0.01632,-0.181221 0.009,0.09967 0.009,0.262771 0,0.362443 -0.009,0.09967 -0.01632,0.01812 -0.01632,-0.181222 z m -0.0013,-0.895448 c 0,-0.152439 0.0077,-0.214801 0.0172,-0.138581 0.0095,0.07622 0.0095,0.200943 0,0.277163 -0.0095,0.07622 -0.0172,0.01386 -0.0172,-0.138582 z M 62.584002,70.004411 c 0,-0.05863 0.0097,-0.08262 0.02151,-0.0533 0.01183,0.02931 0.01183,0.07729 0,0.106601 -0.01183,0.02932 -0.02151,0.0053 -0.02151,-0.0533 z m 14.366443,-0.280716 c 0.002,-0.04967 0.01215,-0.05978 0.02576,-0.02576 0.01232,0.03078 0.0108,0.06756 -0.0034,0.08173 -0.01417,0.01417 -0.02425,-0.01102 -0.0224,-0.05597 z m 0,-0.170561 c 0.002,-0.04967 0.01215,-0.05978 0.02576,-0.02576 0.01232,0.03078 0.0108,0.06756 -0.0034,0.08173 -0.01417,0.01417 -0.02425,-0.01102 -0.0224,-0.05597 z m 0.01177,-0.593412 c -1.3e-4,-0.21107 0.0071,-0.302793 0.01602,-0.203829 0.0089,0.09896 0.009,0.271658 2.36e-4,0.383764 -0.0088,0.112105 -0.01613,0.03114 -0.01626,-0.179935 z m -0.01177,-5.973207 c 0.002,-0.04967 0.01215,-0.05978 0.02576,-0.02576 0.01232,0.03078 0.0108,0.06756 -0.0034,0.08173 -0.01417,0.01417 -0.02425,-0.01102 -0.0224,-0.05597 z m 0.0049,-1.744703 c 8.69e-4,-0.07036 0.01042,-0.09398 0.02124,-0.05249 0.01081,0.04149 0.0101,0.09905 -0.0016,0.127921 -0.01168,0.02887 -0.02053,-0.0051 -0.01966,-0.07543 z m 0.0024,-0.810167 c 4.73e-4,-0.09381 0.0092,-0.127164 0.01941,-0.07412 0.0102,0.05304 0.0098,0.129794 -8.61e-4,0.170562 -0.01067,0.04077 -0.01902,-0.0026 -0.01854,-0.09644 z m -0.0074,-2.391415 c 0.002,-0.04967 0.01215,-0.05978 0.02576,-0.02576 0.01232,0.03078 0.0108,0.06756 -0.0034,0.08173 -0.01417,0.01417 -0.02425,-0.01102 -0.0224,-0.05597 z m 0,-0.810167 c 0.002,-0.04967 0.01215,-0.05978 0.02576,-0.02576 0.01232,0.03078 0.0108,0.06756 -0.0034,0.08173 -0.01417,0.01417 -0.02425,-0.01102 -0.0224,-0.05597 z m 0.307334,-0.134605 c 0.135706,-0.0085 0.346776,-0.0084 0.469044,1.75e-4 0.122268,0.0086 0.01123,0.01553 -0.246739,0.01543 -0.257975,-9.6e-5 -0.358012,-0.0071 -0.222305,-0.01561 z M 53.271006,54.838835 c 0.02931,-0.01183 0.07729,-0.01183 0.106601,0 0.02932,0.01183 0.0053,0.02151 -0.0533,0.02151 -0.05863,0 -0.08262,-0.0097 -0.0533,-0.02151 z m 18.804906,-0.0872 c 0.05304,-0.0102 0.129794,-0.0098 0.170562,8.61e-4 0.04077,0.01067 -0.0026,0.01902 -0.09644,0.01854 -0.09381,-4.73e-4 -0.127165,-0.0092 -0.07412,-0.0194 z m 2.219468,-1.022339 c 0.03078,-0.01232 0.06756,-0.0108 0.08173,0.0034 0.01417,0.01417 -0.01102,0.02425 -0.05597,0.02239 -0.04967,-0.002 -0.05978,-0.01215 -0.02576,-0.02576 z m -0.383763,-0.04264 c 0.03078,-0.01232 0.06756,-0.0108 0.08173,0.0034 0.01417,0.01417 -0.01102,0.02425 -0.05597,0.0224 -0.04967,-0.002 -0.05978,-0.01215 -0.02576,-0.02576 z m -18.44382,-0.04306 c 0.04149,-0.01081 0.09905,-0.0101 0.127921,0.0016 0.02887,0.01168 -0.0051,0.02052 -0.07543,0.01966 -0.07036,-8.69e-4 -0.09398,-0.01042 -0.05249,-0.02124 z m 16.565475,-6.09e-4 c 0.05304,-0.0102 0.129793,-0.0098 0.170561,8.61e-4 0.04077,0.01067 -0.0026,0.01902 -0.09644,0.01854 -0.09381,-4.73e-4 -0.127164,-0.0092 -0.07412,-0.0194 z"
         id="path57" /><path
         style="fill:#ffffff;fill-opacity:1"
         d="m 65.007771,74.550833 c 0,-0.0089 0.03358,-0.04243 0.07462,-0.07462 0.06763,-0.05304 0.06914,-0.05153 0.0161,0.0161 -0.0557,0.07103 -0.09072,0.09362 -0.09072,0.05852 z m -2.082646,-0.495585 c 0,-0.05863 0.0097,-0.08262 0.02151,-0.0533 0.01183,0.02932 0.01183,0.07729 0,0.106601 -0.01183,0.02931 -0.02151,0.0053 -0.02151,-0.0533 z m -0.04264,-0.469044 c 0,-0.05863 0.0097,-0.08262 0.02151,-0.0533 0.01183,0.02931 0.01183,0.07729 0,0.106601 -0.01183,0.02931 -0.02151,0.0053 -0.02151,-0.0533 z m -6.453426,-0.15705 c 0.03078,-0.01232 0.06756,-0.0108 0.08173,0.0034 0.01417,0.01417 -0.01102,0.02425 -0.05597,0.0224 -0.04967,-0.002 -0.05978,-0.01215 -0.02576,-0.02576 z m -0.59963,-0.04175 c 0.02932,-0.01183 0.07729,-0.01183 0.106601,0 0.02931,0.01183 0.0053,0.02151 -0.0533,0.02151 -0.05863,0 -0.08262,-0.0097 -0.0533,-0.02151 z m -1.236572,-1.193931 c 0.02932,-0.01183 0.07729,-0.01183 0.106601,0 0.02932,0.01183 0.0053,0.02151 -0.0533,0.02151 -0.05863,0 -0.08262,-0.0097 -0.0533,-0.02151 z m 16.54447,0 c 0.02931,-0.01183 0.07729,-0.01183 0.106601,0 0.02931,0.01183 0.0053,0.02151 -0.0533,0.02151 -0.05863,0 -0.08262,-0.0097 -0.0533,-0.02151 z m 5.821366,-0.654006 c 0,-0.105535 0.0083,-0.148708 0.01848,-0.09594 0.01016,0.05277 0.01016,0.139114 0,0.191882 -0.01016,0.05277 -0.01848,0.0096 -0.01848,-0.09594 z m -8.61e-4,-1.002049 c 4.73e-4,-0.09381 0.0092,-0.127164 0.01941,-0.07412 0.0102,0.05304 0.0098,0.129793 -8.61e-4,0.170561 -0.01067,0.04077 -0.01902,-0.0026 -0.01854,-0.09644 z M 64.968497,69.723695 c 0.002,-0.04967 0.01215,-0.05978 0.02576,-0.02576 0.01232,0.03078 0.0108,0.06756 -0.0034,0.08173 -0.01417,0.01417 -0.02425,-0.01102 -0.0224,-0.05597 z m 11.996119,-7.522474 c 0,-0.410414 0.0064,-0.57831 0.01421,-0.373103 0.0078,0.205206 0.0078,0.540999 0,0.746206 -0.0078,0.205207 -0.01421,0.03731 -0.01421,-0.373103 z m -0.0043,-1.300532 c 2.39e-4,-0.140713 0.0082,-0.193137 0.01769,-0.116497 0.0095,0.07664 0.0093,0.191769 -4.35e-4,0.255842 -0.0097,0.06407 -0.01749,0.0014 -0.01726,-0.139345 z m -0.0098,-0.81372 c 0.002,-0.04967 0.01215,-0.05978 0.02576,-0.02576 0.01232,0.03078 0.0108,0.06756 -0.0034,0.08173 -0.01417,0.01417 -0.02425,-0.01101 -0.0224,-0.05596 z m 0.0034,-0.188329 c 0,-0.05863 0.0097,-0.08262 0.02151,-0.0533 0.01183,0.02931 0.01183,0.07728 0,0.106601 -0.01183,0.02932 -0.02151,0.0053 -0.02151,-0.0533 z m 0.0049,-0.298483 c 0,-0.105534 0.0083,-0.148708 0.01848,-0.09594 0.01016,0.05277 0.01016,0.139114 0,0.191881 -0.01016,0.05277 -0.01848,0.0096 -0.01848,-0.09594 z m 5.82e-4,-0.703566 c 3.2e-4,-0.117261 0.0086,-0.16017 0.0184,-0.09535 0.0098,0.06482 0.0095,0.160756 -5.82e-4,0.213201 -0.01012,0.05244 -0.01814,-5.86e-4 -0.01782,-0.117847 z m 0.0018,-0.511684 c 1.89e-4,-0.164166 0.0079,-0.2261 0.01713,-0.137631 0.0092,0.08847 0.0091,0.222786 -3.44e-4,0.298483 -0.0094,0.0757 -0.01697,0.0033 -0.01678,-0.160852 z m -0.0041,-0.660926 c 0,-0.08208 0.0088,-0.115662 0.0195,-0.07462 0.01072,0.04104 0.01072,0.1082 0,0.149241 -0.01073,0.04104 -0.0195,0.0075 -0.0195,-0.07462 z m -0.0016,-0.319803 c 8.69e-4,-0.07036 0.01042,-0.09398 0.02124,-0.05249 0.01081,0.04149 0.0101,0.09905 -0.0016,0.127921 -0.01168,0.02887 -0.02053,-0.0051 -0.01966,-0.07543 z M 63.564731,57.297577 c 0,-0.05863 0.0097,-0.08262 0.02151,-0.0533 0.01183,0.02932 0.01183,0.07729 0,0.106601 -0.01183,0.02932 -0.02151,0.0053 -0.02151,-0.0533 z m 13.390661,-2.579744 c 8.69e-4,-0.07036 0.01042,-0.09398 0.02124,-0.05249 0.01081,0.04149 0.0101,0.09905 -0.0016,0.127921 -0.01168,0.02887 -0.02053,-0.0051 -0.01966,-0.07543 z m -3.5981,0.03483 c 0.03078,-0.01232 0.06756,-0.0108 0.08173,0.0034 0.01417,0.01417 -0.01102,0.02425 -0.05597,0.0224 -0.04967,-0.002 -0.05978,-0.01215 -0.02576,-0.02576 z m -18.593873,-0.04175 c 0.02932,-0.01183 0.07729,-0.01183 0.106601,0 0.02932,0.01183 0.0053,0.02151 -0.0533,0.02151 -0.05863,0 -0.08261,-0.0097 -0.0533,-0.02151 z m -0.574834,-1.067319 c 0.04149,-0.01081 0.09905,-0.0101 0.127921,0.0016 0.02887,0.01168 -0.0051,0.02052 -0.07543,0.01966 -0.07036,-8.69e-4 -0.09398,-0.01042 -0.05249,-0.02124 z m 1.086519,0.0013 c 0.02932,-0.01183 0.07729,-0.01183 0.106601,0 0.02932,0.01183 0.0053,0.02151 -0.0533,0.02151 -0.05863,0 -0.08262,-0.0097 -0.0533,-0.02151 z m 17.887641,-0.0023 c 0.06449,-0.0098 0.170028,-0.0098 0.234522,0 0.06449,0.0098 0.01173,0.01776 -0.117261,0.01776 -0.128987,0 -0.181755,-0.008 -0.117261,-0.01776 z"
         id="path56" /><path
         style="fill:#ffffff;fill-opacity:1"
         d="m 62.995678,77.479991 c 0.03078,-0.01232 0.06756,-0.0108 0.08173,0.0034 0.01417,0.01417 -0.01102,0.02425 -0.05597,0.0224 -0.04967,-0.002 -0.05978,-0.01215 -0.02576,-0.02576 z m -0.155834,-4.533393 c 0,-0.05863 0.0097,-0.08262 0.02151,-0.0533 0.01183,0.02932 0.01183,0.07729 0,0.106601 -0.01183,0.02931 -0.02151,0.0053 -0.02151,-0.0533 z m -0.04106,-0.447724 c 8.69e-4,-0.07036 0.01043,-0.09398 0.02124,-0.05249 0.01081,0.04149 0.0101,0.09905 -0.0016,0.127921 -0.01168,0.02887 -0.02053,-0.0051 -0.01966,-0.07543 z m -0.38871,-4.523434 c 0.002,-0.04967 0.01215,-0.05978 0.02576,-0.02576 0.01232,0.03078 0.0108,0.06756 -0.0034,0.08173 -0.01417,0.01417 -0.02425,-0.01102 -0.0224,-0.05597 z M 73.485213,54.752666 c 0.03078,-0.01232 0.06756,-0.0108 0.08173,0.0034 0.01417,0.01417 -0.01102,0.02425 -0.05597,0.0224 -0.04967,-0.002 -0.05978,-0.01215 -0.02576,-0.02576 z m -7.913224,-0.610478 c 0,-0.08208 0.0088,-0.115662 0.0195,-0.07462 0.01073,0.04104 0.01073,0.1082 0,0.149241 -0.01072,0.04104 -0.0195,0.0075 -0.0195,-0.07462 z m -0.0032,-0.724886 c 0,-0.05863 0.0097,-0.08262 0.02151,-0.0533 0.01183,0.02932 0.01183,0.07729 0,0.106601 -0.01183,0.02932 -0.02151,0.0053 -0.02151,-0.0533 z m -2.642124,-1.940138 c 8.69e-4,-0.07036 0.01043,-0.09398 0.02124,-0.05249 0.01081,0.04149 0.0101,0.09905 -0.0016,0.127921 -0.01168,0.02887 -0.02053,-0.0051 -0.01966,-0.07543 z"
         id="path55" /><path
         style="fill:#ffffff;fill-opacity:1"
         d="m 48.441617,66.252057 c 0,-5.35883 0.005,-7.551079 0.01102,-4.871664 0.0061,2.679416 0.0061,7.063913 0,9.743328 -0.0061,2.679415 -0.01102,0.487167 -0.01102,-4.871664 z m 16.190704,7.526028 c 8.69e-4,-0.07036 0.01042,-0.09398 0.02124,-0.05249 0.01081,0.04149 0.0101,0.09905 -0.0016,0.127921 -0.01168,0.02887 -0.02053,-0.0051 -0.01966,-0.07543 z m 8.597049,-0.348931 c 0.03078,-0.01232 0.06756,-0.0108 0.08173,0.0034 0.01417,0.01417 -0.01102,0.02425 -0.05597,0.0224 -0.04967,-0.002 -0.05978,-0.01215 -0.02576,-0.02576 z m -8.555989,-0.141433 c 0,-0.05863 0.0097,-0.08262 0.02151,-0.0533 0.01183,0.02932 0.01183,0.07729 0,0.106601 -0.01183,0.02932 -0.02151,0.0053 -0.02151,-0.0533 z m 0.0458,-0.554325 c 0,-0.08208 0.0088,-0.115662 0.0195,-0.07462 0.01073,0.04104 0.01073,0.1082 0,0.149241 -0.01072,0.04104 -0.0195,0.0075 -0.0195,-0.07462 z M 51.682249,63.970797 c 1e-6,-4.854608 0.005,-6.834256 0.01106,-4.399217 0.0061,2.435038 0.0061,6.40699 -10e-7,8.826559 -0.0061,2.41957 -0.01106,0.427266 -0.01106,-4.427342 z m 13.076413,8.208274 c 0,-0.05863 0.0097,-0.08262 0.02151,-0.0533 0.01183,0.02932 0.01183,0.07729 0,0.106601 -0.01183,0.02932 -0.02151,0.0053 -0.02151,-0.0533 z m -2.002518,-0.234522 c 8.69e-4,-0.07036 0.01042,-0.09398 0.02124,-0.05249 0.01081,0.04149 0.0101,0.09905 -0.0016,0.127921 -0.01168,0.02887 -0.02052,-0.0051 -0.01966,-0.07543 z m 2.297634,-3.372144 c 0.002,-0.04967 0.01215,-0.05978 0.02576,-0.02576 0.01232,0.03078 0.0108,0.06756 -0.0034,0.08173 -0.01417,0.01417 -0.02425,-0.01102 -0.0224,-0.05597 z m 0.457683,-1.923072 c 0.03078,-0.01232 0.06756,-0.0108 0.08173,0.0034 0.01417,0.01417 -0.01102,0.02425 -0.05597,0.0224 -0.04967,-0.002 -0.05978,-0.01215 -0.02576,-0.02576 z M 61.89839,65.715499 c 0.002,-0.04967 0.01215,-0.05978 0.02576,-0.02576 0.01232,0.03078 0.0108,0.06756 -0.0034,0.08173 -0.01417,0.01417 -0.02425,-0.01102 -0.0224,-0.05597 z M 49.882382,57.09562 c 0.112105,-0.0088 0.284799,-0.0087 0.383763,2.37e-4 0.09896,0.0089 0.0072,0.01615 -0.203828,0.01602 -0.21107,-1.3e-4 -0.292041,-0.0074 -0.179935,-0.01626 z m -0.04393,-1.108597 c 0.111398,-0.0088 0.293685,-0.0088 0.405083,0 0.111398,0.0088 0.02025,0.01597 -0.202542,0.01597 -0.222796,0 -0.313939,-0.0072 -0.202541,-0.01597 z m 27.481727,-3.82e-4 c 0.193481,-0.0079 0.510086,-0.0079 0.703567,0 0.19348,0.0079 0.03518,0.01437 -0.351784,0.01437 -0.386961,0 -0.545263,-0.0065 -0.351783,-0.01437 z m 1.10865,0.0035 c 0.02932,-0.01183 0.07729,-0.01183 0.106601,0 0.02932,0.01183 0.0053,0.02151 -0.0533,0.02151 -0.05863,0 -0.08262,-0.0097 -0.0533,-0.02151 z"
         id="path54" /><path
         style="fill:#ffffff;fill-opacity:1"
         d="m 63.526018,77.522366 c 0.04104,-0.01073 0.1082,-0.01073 0.149241,0 0.04104,0.01072 0.0075,0.0195 -0.07462,0.0195 -0.08208,0 -0.115662,-0.0088 -0.07462,-0.0195 z m 10.087116,-4.050572 c 0.03078,-0.01232 0.06756,-0.0108 0.08173,0.0034 0.01417,0.01417 -0.01102,0.02425 -0.05597,0.0224 -0.04967,-0.002 -0.05978,-0.01215 -0.02576,-0.02576 z m -18.934996,-0.08439 c 0.02932,-0.01183 0.07729,-0.01183 0.106601,0 0.02931,0.01183 0.0053,0.02151 -0.0533,0.02151 -0.05863,0 -0.08262,-0.0097 -0.0533,-0.02151 z m 2.092044,-1.152179 c 0.03078,-0.01232 0.06756,-0.0108 0.08173,0.0034 0.01417,0.01417 -0.01102,0.02425 -0.05597,0.0224 -0.04967,-0.002 -0.05978,-0.01215 -0.02576,-0.02576 z m 8.03112,-0.567837 c 0,-0.05863 0.0097,-0.08262 0.02151,-0.0533 0.01183,0.02931 0.01183,0.07729 0,0.106601 -0.01183,0.02931 -0.02151,0.0053 -0.02151,-0.0533 z m -2.089379,-0.298482 c 0,-0.05863 0.0097,-0.08262 0.02151,-0.0533 0.01183,0.02932 0.01183,0.07729 0,0.106601 -0.01183,0.02932 -0.02151,0.0053 -0.02151,-0.0533 z m 0.177345,-4.722383 c 0.488204,-0.0068 1.274919,-0.0068 1.748255,2e-5 0.473337,0.0069 0.0739,0.01246 -0.887643,0.01245 -0.961541,-1.2e-5 -1.348816,-0.0056 -0.860612,-0.01247 z M 61.392133,60.42139 c 0.157277,-0.0082 0.425911,-0.0082 0.596966,-1.21e-4 0.171054,0.0081 0.04237,0.01481 -0.285957,0.01487 -0.328331,6.7e-5 -0.468285,-0.0066 -0.311009,-0.01475 z m 4.084593,-4.03e-4 c -5e-5,-0.01759 0.206223,-0.02694 0.458384,-0.02077 0.819271,0.02003 0.899048,0.03681 0.213292,0.04486 -0.369373,0.0043 -0.671627,-0.0065 -0.671676,-0.02409 z M 50.45674,57.098775 c 0.02931,-0.01183 0.07729,-0.01183 0.106601,0 0.02931,0.01183 0.0053,0.02151 -0.0533,0.02151 -0.05863,0 -0.08262,-0.0097 -0.0533,-0.02151 z m -1.343172,-1.109803 c 0.04104,-0.01072 0.1082,-0.01072 0.149241,0 0.04104,0.01073 0.0075,0.0195 -0.07462,0.0195 -0.08208,0 -0.115662,-0.0088 -0.07462,-0.0195 z m 0.405084,0.0012 c 0.02931,-0.01183 0.07728,-0.01183 0.106601,0 0.02931,0.01183 0.0053,0.02151 -0.0533,0.02151 -0.05863,0 -0.08262,-0.0097 -0.0533,-0.02151 z M 61.383339,54.5099 c 0,-0.0089 0.03358,-0.04243 0.07462,-0.07462 0.06763,-0.05304 0.06914,-0.05153 0.0161,0.0161 -0.0557,0.07103 -0.09072,0.09362 -0.09072,0.05852 z m -4.485236,-0.695276 c 0.03078,-0.01232 0.06756,-0.0108 0.08173,0.0034 0.01417,0.01417 -0.01102,0.02425 -0.05597,0.0224 -0.04967,-0.002 -0.05978,-0.01215 -0.02576,-0.02576 z m 14.36981,-0.08528 c 0.03078,-0.01232 0.06756,-0.0108 0.08173,0.0034 0.01417,0.01417 -0.01102,0.02425 -0.05597,0.02239 -0.04967,-0.002 -0.05978,-0.01215 -0.02576,-0.02576 z"
         id="path53" /><path
         style="fill:#ffffff;fill-opacity:1"
         d="m 79.100054,66.273378 c 10e-7,-5.370557 0.005,-7.561268 0.01102,-4.868248 0.0061,2.693021 0.0061,7.087112 -10e-7,9.764648 -0.0061,2.677536 -0.01102,0.474156 -0.01102,-4.8964 z m -28.49642,5.799092 c 8.69e-4,-0.07036 0.01043,-0.09398 0.02124,-0.05249 0.01081,0.04149 0.0101,0.09905 -0.0016,0.127921 -0.01168,0.02887 -0.02053,-0.0051 -0.01966,-0.07543 z m -0.0049,-0.984282 c 0.002,-0.04967 0.01215,-0.05978 0.02576,-0.02576 0.01232,0.03078 0.0108,0.06756 -0.0034,0.08173 -0.01417,0.01417 -0.02425,-0.01102 -0.02239,-0.05597 z m 14.245254,-0.01777 c 0,-0.05863 0.0097,-0.08262 0.02151,-0.0533 0.01183,0.02932 0.01183,0.07729 0,0.106601 -0.01183,0.02932 -0.02151,0.0053 -0.02151,-0.0533 z m 0.03928,-0.493918 c 0.002,-0.04967 0.01215,-0.05978 0.02576,-0.02576 0.01232,0.03078 0.0108,0.06756 -0.0034,0.08173 -0.01417,0.01417 -0.02425,-0.01102 -0.0224,-0.05597 z M 50.602054,69.535367 c 0,-0.05863 0.0097,-0.08262 0.02151,-0.0533 0.01183,0.02931 0.01183,0.07729 0,0.1066 -0.01183,0.02932 -0.02151,0.0053 -0.02151,-0.0533 z m 0.004,-0.959409 c 4.73e-4,-0.09381 0.0092,-0.127164 0.0194,-0.07412 0.0102,0.05304 0.0098,0.129793 -8.6e-4,0.170561 -0.01067,0.04077 -0.01902,-0.0026 -0.01854,-0.09644 z m 0.002,-0.405083 c 0,-0.128987 0.008,-0.181755 0.01776,-0.117261 0.0098,0.06449 0.0098,0.170028 0,0.234522 -0.0098,0.06449 -0.01776,0.01173 -0.01776,-0.117261 z m -0.0045,-0.575645 c 8.69e-4,-0.07036 0.01043,-0.09398 0.02124,-0.05249 0.01081,0.04149 0.0101,0.09905 -0.0016,0.127921 -0.01168,0.02887 -0.02053,-0.0051 -0.01966,-0.07543 z m 0,-0.298483 c 8.69e-4,-0.07036 0.01043,-0.09398 0.02124,-0.05249 0.01081,0.04149 0.0101,0.09905 -0.0016,0.127921 -0.01168,0.02887 -0.02053,-0.0051 -0.01966,-0.07543 z m -0.0049,-0.302036 c 0.002,-0.04967 0.01215,-0.05978 0.02576,-0.02576 0.01232,0.03078 0.0108,0.06756 -0.0034,0.08173 -0.01417,0.01417 -0.02425,-0.01102 -0.02239,-0.05597 z m 0.01221,-0.806614 c 1.11e-4,-0.234522 0.0073,-0.325023 0.01591,-0.201113 0.0086,0.123911 0.0085,0.315792 -2.02e-4,0.426404 -0.0088,0.110612 -0.01582,0.0092 -0.01571,-0.225291 z M 61.94103,65.928701 c 0.002,-0.04967 0.01215,-0.05978 0.02576,-0.02576 0.01232,0.03078 0.0108,0.06756 -0.0034,0.08173 -0.01417,0.01417 -0.02425,-0.01102 -0.0224,-0.05597 z M 50.606935,65.39925 c 0,-0.105535 0.0083,-0.148709 0.01848,-0.09594 0.01016,0.05277 0.01016,0.139114 0,0.191882 -0.01016,0.05277 -0.01848,0.0096 -0.01848,-0.09594 z m -0.0017,-0.511685 c 0,-0.08208 0.0088,-0.115662 0.0195,-0.07462 0.01073,0.04104 0.01073,0.1082 0,0.149242 -0.01073,0.04104 -0.0195,0.0075 -0.0195,-0.07462 z m -0.0016,-0.362443 c 8.69e-4,-0.07036 0.01043,-0.09398 0.02124,-0.05249 0.01081,0.04149 0.0101,0.09905 -0.0016,0.127921 -0.01168,0.02887 -0.02053,-0.0051 -0.01966,-0.07543 z m -0.0049,-0.302036 c 0.002,-0.04967 0.01215,-0.05978 0.02576,-0.02576 0.01232,0.03078 0.0108,0.06756 -0.0034,0.08173 -0.01417,0.01417 -0.02425,-0.01102 -0.02239,-0.05597 z m 0.0094,-0.955855 c 0,-0.128988 0.008,-0.181755 0.01776,-0.117262 0.0098,0.06449 0.0098,0.170029 0,0.234523 -0.0098,0.06449 -0.01776,0.01173 -0.01776,-0.117261 z m -0.002,-0.405084 c 4.73e-4,-0.09381 0.0092,-0.127165 0.0194,-0.07412 0.0102,0.05304 0.0098,0.129794 -8.6e-4,0.170562 -0.01067,0.04077 -0.01902,-0.0026 -0.01854,-0.09644 z m 0.0061,-0.810167 c 6.6e-5,-0.328331 0.0068,-0.457012 0.01487,-0.285958 0.0081,0.171055 0.0081,0.439689 -1.21e-4,0.596966 -0.0082,0.157276 -0.01482,0.01732 -0.01475,-0.311008 z m 16.293122,-1.769576 c 0.04245,-0.04691 0.08677,-0.08528 0.0985,-0.08528 0.01173,0 -0.01341,0.03838 -0.05586,0.08528 -0.04245,0.0469 -0.08677,0.08528 -0.0985,0.08528 -0.01173,0 0.01341,-0.03838 0.05586,-0.08528 z M 50.613761,59.088473 c 0,-0.574579 0.006,-0.809634 0.01341,-0.522345 0.0074,0.28729 0.0074,0.7574 0,1.04469 -0.0074,0.287289 -0.01341,0.05223 -0.01341,-0.522345 z m 11.241988,-0.493918 c 0.002,-0.04967 0.01215,-0.05978 0.02576,-0.02576 0.01232,0.03078 0.0108,0.06756 -0.0034,0.08173 -0.01417,0.01417 -0.02425,-0.01102 -0.0224,-0.05597 z M 50.598688,57.699107 c 0.002,-0.04967 0.01215,-0.05978 0.02576,-0.02576 0.01232,0.03078 0.0108,0.06756 -0.0034,0.08173 -0.01417,0.01417 -0.02425,-0.01102 -0.02239,-0.05597 z m 0.0034,-0.230969 c 0,-0.05863 0.0097,-0.08262 0.02151,-0.0533 0.01183,0.02931 0.01183,0.07728 0,0.106601 -0.01183,0.02931 -0.02151,0.0053 -0.02151,-0.0533 z m 14.016515,-6.214836 c -0.05304,-0.06763 -0.05153,-0.06914 0.0161,-0.0161 0.07103,0.0557 0.09362,0.09072 0.05852,0.09072 -0.0089,0 -0.04243,-0.03358 -0.07462,-0.07462 z"
         id="path52" /><path
         style="fill:#ffffff;fill-opacity:1"
         d="m 62.918392,77.466144 c -0.348264,-0.05654 -0.384158,-0.06451 -0.641901,-0.142446 -0.13025,-0.03938 -0.360124,-0.152892 -0.510832,-0.252237 -0.217124,-0.143126 -0.296323,-0.226514 -0.381468,-0.401644 L 61.276738,76.4488 55.015981,76.43529 48.755225,76.42178 48.609263,76.262505 48.463302,76.10323 v -9.858577 -9.858576 l 0.09594,-0.140553 c 0.05277,-0.0773 0.124723,-0.155179 0.159902,-0.173057 0.03518,-0.01788 0.472036,-0.04216 0.970795,-0.05397 l 0.906834,-0.02146 0.0099,-0.724887 c 0.01069,-0.779694 0.04961,-0.940411 0.254303,-1.049959 0.123626,-0.06616 1.287791,-0.308672 2.004087,-0.417475 1.645595,-0.24996 3.198157,-0.193406 4.787207,0.17438 0.659396,0.152617 1.881817,0.601469 2.231666,0.819428 0.04412,0.02749 0.02865,0.06575 -0.06843,0.16929 -0.09541,0.101748 -0.327872,0.455019 -0.460511,0.699832 -0.0035,0.0065 -0.100216,-0.02861 -0.214934,-0.07791 -1.03303,-0.44399 -2.502117,-0.788047 -3.555847,-0.832771 -0.293152,-0.01244 -0.570378,-0.03033 -0.616057,-0.03975 -0.117684,-0.02427 -1.147984,0.05429 -1.729164,0.131851 -0.45564,0.06081 -0.796872,0.119798 -1.353832,0.234045 l -0.223862,0.04592 v 8.844822 c 0,7.375559 0.0095,8.844822 0.05729,8.844822 0.03151,0 0.168957,-0.03842 0.305444,-0.08538 0.907341,-0.312171 1.921905,-0.493921 3.005861,-0.538474 0.5695,-0.02341 1.779891,0.03067 2.104718,0.09403 0.05019,0.0098 0.206391,0.03821 0.347104,0.06315 1.971826,0.3495 4.091429,1.299787 5.171258,2.318443 l 0.29891,0.281976 0.01891,-0.182083 c 0.01539,-0.14823 -0.201237,-3.132629 -0.285588,-3.934438 -0.01234,-0.117261 -0.05127,-0.568183 -0.08651,-1.002049 -0.06669,-0.8209 -0.133356,-1.567188 -0.174268,-1.950798 l -0.02388,-0.223862 h -0.190183 c -0.268833,0 -0.460272,-0.09096 -0.526151,-0.250009 -0.07654,-0.18478 -0.02359,-0.500222 0.105663,-0.629473 l 0.101247,-0.101247 1.888775,0.0014 c 1.417498,10e-4 1.905656,0.01432 1.956431,0.0533 0.117073,0.08989 0.176706,0.249187 0.176706,0.472044 0,0.187555 -0.01728,0.230879 -0.133513,0.334733 -0.111062,0.09923 -0.172004,0.119295 -0.362391,0.119295 -0.200667,0 -0.232311,0.01183 -0.25675,0.09594 -0.01533,0.05277 -0.07442,0.652398 -0.131301,1.332512 -0.05689,0.680114 -0.112998,1.30373 -0.124695,1.385812 -0.0117,0.08208 -0.03114,0.293153 -0.04322,0.469045 -0.01207,0.175891 -0.07975,1.029765 -0.150403,1.897497 -0.136072,1.67128 -0.151398,2.006803 -0.09331,2.042706 0.01986,0.01228 0.09182,-0.03645 0.159901,-0.108286 0.198575,-0.209515 0.920616,-0.738623 1.364254,-0.999718 1.837603,-1.081487 4.129154,-1.655142 6.319053,-1.58188 0.695007,0.02325 0.971184,0.05219 1.714763,0.179684 0.329438,0.05649 0.726587,0.158081 1.166694,0.298456 0.254721,0.08125 0.480182,0.147718 0.501025,0.147718 0.02198,0 0.0379,-3.716091 0.0379,-8.84788 0,-4.866334 -0.0098,-8.84788 -0.02177,-8.84788 -0.01197,0 -0.195382,-0.03867 -0.407572,-0.08593 -0.952315,-0.212125 -1.543724,-0.272651 -2.683405,-0.274625 -0.682669,-0.0012 -1.238085,0.01919 -1.492413,0.05475 -0.535262,0.07483 -1.492485,0.305093 -2.035631,0.489675 l -0.436616,0.148378 -0.04663,-0.176781 c -0.02564,-0.09723 -0.09391,-0.319 -0.151704,-0.492822 -0.08367,-0.251661 -0.09381,-0.32339 -0.04976,-0.352114 0.152006,-0.09913 1.553121,-0.509943 1.931492,-0.566326 0.09381,-0.01398 0.199344,-0.03386 0.234522,-0.04418 0.03518,-0.01032 0.22706,-0.03823 0.426404,-0.06203 0.199343,-0.0238 0.477572,-0.05738 0.618285,-0.07463 0.605881,-0.07427 2.321346,0.0014 3.070108,0.135384 0.625517,0.111947 1.699526,0.328554 1.776585,0.358304 0.05478,0.02115 0.147562,0.08995 0.206193,0.152897 0.104544,0.112239 0.106857,0.129606 0.119898,0.899972 l 0.0133,0.785524 h 0.873608 c 0.963757,0 1.0685,0.02248 1.188814,0.255141 0.05775,0.111671 0.06498,1.227941 0.0645,9.954191 -3.74e-4,6.857042 -0.01426,9.857909 -0.04591,9.925972 -0.02496,0.05366 -0.09683,0.135935 -0.159724,0.182839 -0.112967,0.08425 -0.189711,0.08542 -6.365535,0.09636 l -6.251189,0.01108 -0.07835,0.17376 c -0.146891,0.325744 -0.584003,0.605114 -1.204611,0.769898 -0.255818,0.06792 -0.493944,0.09051 -1.074831,0.101936 -0.410413,0.0081 -0.851741,-0.0025 -0.980729,-0.02339 z m -1.714054,-2.402241 c -0.878192,-0.570144 -2.172262,-1.139483 -3.029688,-1.332942 -0.04104,-0.0093 -0.1082,-0.02499 -0.149242,-0.03497 -1.008874,-0.245114 -1.465795,-0.296535 -2.654364,-0.298713 -0.907392,-0.0017 -1.114739,0.01083 -1.577694,0.09504 -0.704255,0.128113 -1.547532,0.350878 -2.039736,0.538831 -0.460195,0.17573 -0.635125,0.187887 -0.862744,0.05996 -0.306445,-0.172231 -0.285405,0.485123 -0.272062,-8.499984 0.0066,-4.45592 0.0014,-8.192816 -0.01167,-8.304214 l -0.0237,-0.202542 h -0.505746 -0.505745 v 9.125042 9.125042 l 6.022954,-10e-4 6.022955,-0.001 z m 16.76611,-8.854486 v -9.125042 h -0.511684 -0.511685 v 8.338312 c 0,9.09733 0.01694,8.485196 -0.239459,8.653195 -0.208784,0.1368 -0.350925,0.123193 -1.042846,-0.09983 -0.630816,-0.203332 -1.386947,-0.402691 -1.702522,-0.448881 -0.08208,-0.01201 -0.273964,-0.0417 -0.426404,-0.06596 -0.702701,-0.111861 -2.030606,-0.101521 -2.942186,0.02291 -0.50615,0.06909 -1.355912,0.282776 -2.046739,0.514687 -0.746033,0.250444 -1.783664,0.767865 -2.347594,1.170643 l -0.231044,0.165019 h 6.001082 6.001081 z M 61.939326,65.772353 61.886283,65.46321 61.582168,65.292649 c -0.379033,-0.212579 -0.817178,-0.644436 -0.995317,-0.981033 -0.13001,-0.245656 -0.312162,-0.81103 -0.312162,-0.968908 0,-0.0716 0.180498,-0.07548 3.512594,-0.07548 h 3.512593 l -0.02111,0.202541 c -0.04864,0.466648 -0.270945,0.946752 -0.605039,1.306665 -0.186219,0.20061 -0.729386,0.590481 -0.896592,0.64355 -0.05828,0.0185 -0.09804,0.109459 -0.150069,0.343336 l -0.07079,0.318173 H 63.77432 61.992365 Z m -2.274098,-3.124816 c -0.244291,-0.08966 -0.401629,-0.218294 -0.525473,-0.429619 -0.09413,-0.160626 -0.108812,-0.228081 -0.09248,-0.424985 0.0161,-0.194091 0.04395,-0.259374 0.163138,-0.382344 0.07905,-0.08156 0.211738,-0.167184 0.294861,-0.190276 0.09446,-0.02624 1.728215,-0.04207 4.356664,-0.04222 4.481057,-2.53e-4 4.381476,-0.0046 4.566968,0.200345 0.36405,0.402271 0.135687,1.071082 -0.43324,1.268839 -0.165009,0.05736 -0.691908,0.06525 -4.178757,0.06263 -3.297685,-0.0025 -4.018002,-0.0133 -4.151677,-0.06236 z m 1.160655,-2.500106 c -0.834297,-0.969354 -1.192637,-2.337638 -0.903796,-3.451051 0.130242,-0.502049 0.324224,-0.963451 0.471575,-1.121677 0.0676,-0.07259 0.4243,-0.447529 0.792663,-0.833197 0.368364,-0.385668 0.773012,-0.83659 0.899219,-1.002049 0.642642,-0.842513 0.955477,-1.837072 0.832673,-2.647216 -0.05109,-0.337039 -0.219405,-0.884497 -0.30285,-0.985042 -0.06768,-0.08156 -0.0414,-0.07582 0.333896,0.07292 0.712013,0.28218 1.137849,0.561094 1.661288,1.088107 0.458196,0.461324 0.670774,0.845683 0.849661,1.536258 0.09476,0.365806 0.10881,0.5075 0.107287,1.081863 -0.0013,0.508542 -0.02064,0.734367 -0.08369,0.979459 -0.07372,0.286603 -0.0755,0.328352 -0.01775,0.416489 0.08181,0.124853 0.104516,0.10668 0.490494,-0.392515 0.33364,-0.431504 0.725861,-1.192552 0.811823,-1.575222 l 0.0566,-0.251986 0.28015,0.465188 c 0.455119,0.755724 0.701905,1.295735 0.904371,1.978922 0.382171,1.289567 0.290936,2.497848 -0.273672,3.624432 -0.187404,0.373935 -0.574021,0.925476 -0.794489,1.133404 l -0.154602,0.145808 h -0.630329 -0.63033 l 0.18689,-0.373104 c 0.257721,-0.514509 0.344482,-0.960914 0.281535,-1.44855 -0.05261,-0.407569 -0.211401,-1.035252 -0.261895,-1.035252 -0.01834,0 -0.04496,0.04627 -0.05915,0.102827 -0.0411,0.163756 -0.43272,0.717216 -0.600767,0.849041 -0.0844,0.06621 -0.239701,0.158529 -0.345108,0.205155 -0.191375,0.08465 -0.191845,0.08465 -0.328832,-4.34e-4 -0.219452,-0.136309 -0.439911,-0.390573 -0.577649,-0.666225 -0.159895,-0.319995 -0.203177,-0.487974 -0.263682,-1.023369 -0.04016,-0.355354 -0.03683,-0.497453 0.02001,-0.852807 0.03751,-0.234523 0.07989,-0.464197 0.09419,-0.510387 0.036,-0.116328 -0.892428,0.753925 -1.121388,1.051118 -0.436623,0.566743 -0.666747,1.235765 -0.664465,1.931751 0.0014,0.416468 0.01403,0.534933 0.0968,0.905548 0.05038,0.225601 0.244203,0.744439 0.29831,0.798546 0.02231,0.02231 0.04056,0.05111 0.04056,0.06401 0,0.0129 -0.281459,0.02345 -0.625464,0.02345 h -0.625464 z"
         id="path51" /></g></g></svg>
