<?xml version="1.0" encoding="UTF-8" standalone="no"?>
<!-- Created with Inkscape (http://www.inkscape.org/) -->

<svg
   width="68.358345mm"
   height="67.937004mm"
   viewBox="0 0 68.358345 67.937004"
   version="1.1"
   id="svg1"
   xml:space="preserve"
   inkscape:version="1.4 (86a8ad7, 2024-10-11)"
   sodipodi:docname="Logo_general_plataforma.svg"
   inkscape:export-filename="Logo_general_plataforma.png"
   inkscape:export-xdpi="96"
   inkscape:export-ydpi="96"
   xmlns:inkscape="http://www.inkscape.org/namespaces/inkscape"
   xmlns:sodipodi="http://sodipodi.sourceforge.net/DTD/sodipodi-0.dtd"
   xmlns="http://www.w3.org/2000/svg"
   xmlns:svg="http://www.w3.org/2000/svg"><sodipodi:namedview
     id="namedview1"
     pagecolor="#ffffff"
     bordercolor="#000000"
     borderopacity="0.25"
     inkscape:showpageshadow="2"
     inkscape:pageopacity="0.0"
     inkscape:pagecheckerboard="0"
     inkscape:deskcolor="#d1d1d1"
     inkscape:document-units="mm"
     inkscape:zoom="2.8976696"
     inkscape:cx="363.56802"
     inkscape:cy="457.09145"
     inkscape:window-width="1366"
     inkscape:window-height="697"
     inkscape:window-x="-8"
     inkscape:window-y="-8"
     inkscape:window-maximized="1"
     inkscape:current-layer="layer1"
     showgrid="false"><inkscape:page
       x="0"
       y="0"
       width="68.358345"
       height="67.937004"
       id="page1"
       margin="0"
       bleed="0" /></sodipodi:namedview><defs
     id="defs1" /><g
     inkscape:label="Capa 1"
     inkscape:groupmode="layer"
     id="layer1"
     transform="translate(-75.070822,-98.593207)"><g
       id="g5"
       inkscape:transform-center-x="-20.563925"
       inkscape:transform-center-y="3.1475126"
       transform="matrix(0.14363039,0,0,0.14363039,89.280846,112.99188)"
       style="fill:#ffffff;fill-opacity:1;stroke-width:1.00257;stroke-dasharray:none"><path
         style="fill:#ffffff;fill-opacity:1;stroke-width:1.00257;stroke-dasharray:none"
         d="m 146.07089,372.379 c 0.0127,-0.30822 0.0754,-0.37091 0.15985,-0.15985 0.0764,0.191 0.067,0.4192 -0.0209,0.50712 -0.0879,0.0879 -0.15046,-0.0684 -0.13897,-0.34727 z m -8.53716,-1.08473 c 0.19099,-0.0764 0.4192,-0.067 0.50711,0.0209 0.0879,0.0879 -0.0684,0.15045 -0.34726,0.13896 -0.30823,-0.0127 -0.37092,-0.0754 -0.15985,-0.15985 z m -8.68164,-220.08489 c 7.05663,-7.05776 12.88977,-12.83229 12.96253,-12.83229 0.0728,0 -5.64132,5.77453 -12.69795,12.83229 -7.05664,7.05776 -12.88978,12.83229 -12.96254,12.83229 -0.0728,0 5.64132,-5.77453 12.69796,-12.83229 z m 30.29337,2.97656 -9.259,-9.32656 9.32656,9.259 c 8.66805,8.60525 9.44558,9.39412 9.259,9.39412 -0.0372,0 -4.23411,-4.19695 -9.32656,-9.32656 z M -88.106256,142.77511 c 0,-0.0549 0.20836,-0.2633 0.463021,-0.46302 0.419644,-0.32911 0.429002,-0.31975 0.0999,0.0999 -0.345644,0.44073 -0.562916,0.58089 -0.562916,0.36313 z m 2.178051,-5.19177 c 0,-0.50933 0.05445,-0.71769 0.121,-0.46302 0.06655,0.25466 0.06655,0.67138 0,0.92604 -0.06655,0.25466 -0.121,0.0463 -0.121,-0.46302 z m 457.473005,0.3393 c 0.40218,-0.0608 0.99749,-0.0592 1.32291,0.004 0.32542,0.0628 -0.004,0.11256 -0.73124,0.11058 -0.7276,-0.002 -0.99386,-0.0534 -0.59167,-0.11419 z M 155.04584,123.95729 c 7.05663,-7.05776 12.88977,-12.83229 12.96253,-12.83229 0.0728,0 -5.64131,5.77453 -12.69795,12.83229 -7.05664,7.05776 -12.88978,12.8323 -12.96254,12.8323 -0.0728,0 5.64132,-5.77454 12.69796,-12.8323 z m 216.49532,12.64279 c 0.40018,-0.0606 1.05502,-0.0606 1.45521,0 0.40018,0.0606 0.0728,0.11022 -0.72761,0.11022 -0.80036,0 -1.12778,-0.0496 -0.7276,-0.11022 z m 3.58841,-1.84332 c 0.191,-0.0764 0.4192,-0.067 0.50712,0.0209 0.0879,0.0879 -0.0684,0.15045 -0.34727,0.13896 -0.30822,-0.0127 -0.37092,-0.0754 -0.15985,-0.15985 z m -472.496243,-1.77124 c 0,-0.0549 0.20836,-0.2633 0.463021,-0.46302 0.419644,-0.3291 0.429002,-0.31975 0.09989,0.0999 -0.345644,0.44073 -0.562916,0.58089 -0.562916,0.36312 z m 221.587043,-12.66625 -8.72974,-8.79739 8.79739,8.72974 c 4.83857,4.80136 8.7974,8.76019 8.7974,8.7974 0,0.18669 -0.75188,-0.55371 -8.86505,-8.72975 z"
         id="path12" /><path
         style="fill:#ffffff;fill-opacity:1;stroke-width:1.00257;stroke-dasharray:none"
         d="m 144.95792,369.95366 c -0.32911,-0.41965 -0.31975,-0.429 0.0999,-0.0999 0.44072,0.34565 0.58088,0.56292 0.36312,0.56292 -0.0549,0 -0.2633,-0.20836 -0.46302,-0.46302 z m 1.35299,-228.60001 -3.5682,-3.63802 3.63802,3.5682 c 3.37949,3.31462 3.7579,3.70784 3.5682,3.70784 -0.0384,0 -1.67551,-1.63711 -3.63802,-3.63802 z m 229.49282,-4.0349 c 0,-1.38245 0.0446,-1.94799 0.0991,-1.25677 0.0545,0.69123 0.0545,1.82232 0,2.51354 -0.0545,0.69123 -0.0991,0.12568 -0.0991,-1.25677 z m -474.737015,0.904 c 0.0127,-0.30823 0.07539,-0.37092 0.159853,-0.15986 0.07643,0.191 0.06703,0.4192 -0.02089,0.50712 -0.08792,0.0879 -0.150453,-0.0684 -0.138965,-0.34726 z m 0,-1.32292 c 0.0127,-0.30823 0.07539,-0.37092 0.159853,-0.15985 0.07643,0.19099 0.06703,0.4192 -0.02089,0.50711 -0.08792,0.0879 -0.150453,-0.0683 -0.138965,-0.34726 z m 235.984255,-3.74827 -4.09784,-4.16718 4.16719,4.09784 c 2.29195,2.25381 4.16718,4.12904 4.16718,4.16719 0,0.18905 -0.42961,-0.2265 -4.23653,-4.09785 z m 239.76729,-1.25677 c 0.005,-0.43656 0.0647,-0.58312 0.13177,-0.32569 0.0671,0.25743 0.0627,0.61462 -0.01,0.79375 -0.0725,0.17913 -0.12736,-0.0315 -0.12197,-0.46806 z M 134.69381,-87.466846 c 0.0127,-0.308225 0.0754,-0.37092 0.15985,-0.159853 0.0764,0.190996 0.067,0.419199 -0.0209,0.507118 -0.0879,0.08792 -0.15045,-0.06835 -0.13896,-0.347265 z m 5.02708,0 c 0.0127,-0.308225 0.0754,-0.37092 0.15985,-0.159853 0.0764,0.190996 0.067,0.419199 -0.0209,0.507118 -0.0879,0.08792 -0.15046,-0.06835 -0.13897,-0.347265 z m 6.97139,-5.40191 c 0,-3.274219 0.038,-4.613672 0.0844,-2.976563 0.0464,1.63711 0.0464,4.316016 0,5.953125 -0.0464,1.63711 -0.0844,0.297657 -0.0844,-2.976562 z"
         id="path11" /><path
         style="fill:#ffffff;fill-opacity:1;stroke-width:1.00257;stroke-dasharray:none"
         d="m 366.46882,143.779 c 0.0127,-0.30823 0.0754,-0.37092 0.15985,-0.15986 0.0764,0.191 0.067,0.4192 -0.0209,0.50712 -0.0879,0.0879 -0.15045,-0.0684 -0.13896,-0.34726 z m -459.387185,-0.55557 c 0.190996,-0.0764 0.419199,-0.067 0.507118,0.0209 0.08792,0.0879 -0.06835,0.15045 -0.347266,0.13896 -0.308224,-0.0127 -0.370919,-0.0754 -0.159852,-0.15985 z m 464.856395,-0.27524 c 0.47295,-0.0587 1.24685,-0.0587 1.71979,0 0.47295,0.0587 0.086,0.10671 -0.85989,0.10671 -0.94589,0 -1.33284,-0.048 -0.8599,-0.10671 z M 137.95156,-92.604173 c 0,-1.964531 0.0417,-2.768203 0.0926,-1.785938 0.0509,0.982266 0.0509,2.58961 0,3.571876 -0.0509,0.982265 -0.0926,0.178593 -0.0926,-1.785938 z"
         id="path10" /><path
         style="fill:#ffffff;fill-opacity:1;stroke-width:1.00257;stroke-dasharray:none"
         d="m -96.256759,137.45104 c 0.0054,-0.43656 0.06469,-0.58312 0.131773,-0.32569 0.06708,0.25743 0.06267,0.61462 -0.0098,0.79375 -0.07248,0.17913 -0.127361,-0.0315 -0.121969,-0.46806 z M 136.63432,-93.530215 c 2.8e-4,-2.619375 0.0399,-3.655149 0.088,-2.301721 0.0481,1.353428 0.0479,3.496554 -5e-4,4.7625 -0.0484,1.265947 -0.0878,0.158596 -0.0875,-2.460779 z"
         id="path9" /><path
         style="fill:#ffffff;fill-opacity:1;stroke-width:1.00257;stroke-dasharray:none"
         d="m 368.40883,137.58334 c 0,-2.54662 0.0397,-3.58842 0.0882,-2.31511 0.0485,1.27331 0.0485,3.3569 0,4.63021 -0.0485,1.27331 -0.0882,0.23151 -0.0882,-2.3151 z"
         id="path8" /><path
         style="fill:#ffffff;fill-opacity:1;stroke-width:1.00257;stroke-dasharray:none"
         d="m -88.593646,137.84792 c 0,-0.3638 0.06005,-0.51263 0.133452,-0.33073 0.0734,0.1819 0.0734,0.47956 0,0.66146 -0.0734,0.1819 -0.133452,0.0331 -0.133452,-0.33073 z m 457.767296,-6.812 c 1.42639,-0.0477 3.68857,-0.0474 5.02708,4.6e-4 1.33851,0.0479 0.17147,0.0869 -2.59343,0.0867 -2.76489,-2.6e-4 -3.86004,-0.0395 -2.43365,-0.0871 z M 145.35821,-94.72084 c 0,-1.81901 0.0423,-2.563151 0.0939,-1.653646 0.0517,0.909506 0.0517,2.397787 0,3.307292 -0.0517,0.909505 -0.0939,0.165365 -0.0939,-1.653646 z m -10.22817,-5.48262 c 0.4697,-0.0584 1.30313,-0.0594 1.85208,-0.002 0.54895,0.0573 0.16465,0.1051 -0.85399,0.10627 -1.01865,10e-4 -1.46779,-0.0457 -0.99809,-0.10413 z m 9.67118,-0.004 c 0.69561,-0.0547 1.76717,-0.054 2.38125,10e-4 0.61407,0.0555 0.0449,0.10023 -1.26476,0.0994 -1.30969,-8.1e-4 -1.81211,-0.0462 -1.11649,-0.10089 z"
         id="path7" /></g><path
       style="opacity:1;fill:none;fill-opacity:1;stroke:#ffffff;stroke-width:0.187824;stroke-dasharray:none;stroke-opacity:1"
       d="m 407.22064,494.19721 c -6.56177,-6.53979 -7.06121,-7.12429 -6.85024,-8.0169 0.12516,-0.52955 3.31017,-22.50003 7.0778,-48.82329 l 6.85024,-47.86047 0.0883,27.93066 c 0.0486,15.36187 0.0486,40.50669 0,55.87738 l -0.0883,27.94672 z"
       id="path16"
       transform="scale(0.26458333)" /><path
       style="opacity:1;fill:none;fill-opacity:1;stroke:#ffffff;stroke-width:0.187824;stroke-dasharray:none;stroke-opacity:1"
       d="m 414.50782,558.90048 -0.0368,-57.11178 -7.16093,7.15116 -7.16092,7.15115 -25.88287,-3.74413 c -14.23558,-2.05928 -36.59838,-5.27869 -49.69511,-7.15425 l -23.81223,-3.4101 56.77074,-0.0873 56.77075,-0.0873 7.2925,7.27029 7.29249,7.27028 -7.17038,49.93187 -7.17038,49.93188 z"
       id="path17"
       transform="scale(0.26458333)" /><path
       style="opacity:1;fill:none;fill-opacity:1;stroke:#ffffff;stroke-width:0.187824;stroke-dasharray:none;stroke-opacity:1"
       d="m 407.27662,493.85431 c -6.51932,-6.6374 -6.67336,-6.82745 -6.53466,-8.06233 0.0781,-0.69558 3.08265,-21.66799 6.67671,-46.60536 l 6.53466,-45.34066 0.0884,26.81842 c 0.0486,14.75012 0.0486,38.78147 0,53.40298 l -0.0884,26.58458 z"
       id="path18"
       transform="scale(0.26458333)" /><path
       style="opacity:1;fill:#6b23b0;fill-opacity:1;stroke:#6b23b0;stroke-width:0.187824;stroke-dasharray:none;stroke-opacity:1"
       d="m 407.58485,493.73883 c -3.31285,-3.44857 -6.16442,-6.52219 -6.33682,-6.83025 -0.20753,-0.37082 1.82803,-15.48276 6.02337,-44.7173 l 6.33683,-44.1572 0.0885,25.58704 c 0.0487,14.07288 0.0487,37.01723 0,50.98744 l -0.0885,25.40041 z"
       id="path19"
       transform="scale(0.26458333)" /><path
       style="opacity:1;fill:#b09900;fill-opacity:1;stroke:#ffffff;stroke-width:0.187824;stroke-dasharray:none;stroke-opacity:1"
       d="m 421.72039,494.53521 7.07477,-7.07477 49.00374,7.03797 49.00374,7.03797 -56.07851,0.0368 -56.07851,0.0368 z"
       id="path20"
       transform="scale(0.26458333)" /><path
       style="opacity:1;fill:#187a47;fill-opacity:1;stroke:#ffffff;stroke-width:0.187824;stroke-dasharray:none;stroke-opacity:1"
       d="m 363.39547,510.55755 c -19.45529,-2.82263 -40.57571,-5.89686 -46.93427,-6.83163 l -11.56102,-1.69957 54.52334,-0.0356 54.52334,-0.0356 -6.89562,6.9021 c -4.63137,4.63572 -7.12333,6.89066 -7.58907,6.86727 -0.3814,-0.0192 -16.61142,-2.34426 -36.0667,-5.1669 z"
       id="path21"
       transform="scale(0.26458333)" /><path
       style="opacity:1;fill:#1e69b0;fill-opacity:1;stroke:#ffffff;stroke-width:0.187824;stroke-dasharray:none;stroke-opacity:1"
       d="m 414.85613,556.82783 -0.04,-54.35296 6.90072,6.90104 6.90072,6.90103 -6.73172,46.93427 c -3.70245,25.81384 -6.78975,47.16721 -6.86069,47.45192 -0.0709,0.28471 -0.14698,-23.94117 -0.169,-53.8353 z"
       id="path22"
       transform="scale(0.26458333)" /><path
       style="opacity:1;fill:#8a2be2;fill-opacity:1;stroke:#8a2be2;stroke-width:0.265623;stroke-dasharray:none;stroke-opacity:1"
       d="m 414.8964,446.8095 0.0522,-53.92761 6.78082,47.09463 6.78081,47.09462 -6.83298,6.83298 -6.83299,6.83299 z"
       id="path24"
       transform="scale(0.26458333)" /><path
       style="opacity:1;fill:#ffd900;fill-opacity:1;stroke:#ffffff;stroke-width:0.265623;stroke-dasharray:none;stroke-opacity:1"
       d="m 422.40904,508.79425 -6.81965,-6.83273 54.16724,0.0523 54.16723,0.0522 -46.85299,6.76337 c -25.76915,3.71986 -47.07556,6.77108 -47.34759,6.78049 -0.27202,0.009 -3.56343,-3.05762 -7.31424,-6.81562 z"
       id="path25"
       transform="scale(0.26458333)" /><path
       style="opacity:1;fill:#1e90ff;fill-opacity:1;stroke:#ffffff;stroke-width:0.265623;stroke-dasharray:none;stroke-opacity:1"
       d="m 407.36873,563.60973 -6.73701,-47.18739 6.86223,-6.86223 6.86223,-6.86223 v 54.04962 c 0,29.72729 -0.0564,54.04962 -0.12522,54.04962 -0.0689,0 -3.15687,-21.23432 -6.86223,-47.18739 z"
       id="path26"
       transform="scale(0.26458333)" /><path
       style="opacity:1;fill:#27ae60;fill-opacity:1;stroke:#ffffff;stroke-width:0.265623;stroke-dasharray:none;stroke-opacity:1"
       d="m 352.85923,494.58831 47.09462,-6.78081 6.83298,6.83298 6.83299,6.83299 -53.92761,-0.0522 -53.92761,-0.0522 z"
       id="path27"
       transform="scale(0.26458333)" /></g></svg>
