<?xml version="1.0" encoding="UTF-8" standalone="no"?>
<!-- Created with Inkscape (http://www.inkscape.org/) -->

<svg
   width="102.47014mm"
   height="116.16932mm"
   viewBox="0 0 102.47014 116.16932"
   version="1.1"
   id="svg1"
   xml:space="preserve"
   inkscape:version="1.4 (86a8ad7, 2024-10-11)"
   sodipodi:docname="Mapa_cdmx.svg"
   xmlns:inkscape="http://www.inkscape.org/namespaces/inkscape"
   xmlns:sodipodi="http://sodipodi.sourceforge.net/DTD/sodipodi-0.dtd"
   xmlns="http://www.w3.org/2000/svg"
   xmlns:svg="http://www.w3.org/2000/svg"><sodipodi:namedview
     id="namedview1"
     pagecolor="#ffffff"
     bordercolor="#000000"
     borderopacity="0.25"
     inkscape:showpageshadow="2"
     inkscape:pageopacity="0.0"
     inkscape:pagecheckerboard="0"
     inkscape:deskcolor="#d1d1d1"
     inkscape:document-units="mm"
     inkscape:zoom="1.0244809"
     inkscape:cx="432.90216"
     inkscape:cy="581.26998"
     inkscape:window-width="1366"
     inkscape:window-height="697"
     inkscape:window-x="-8"
     inkscape:window-y="-8"
     inkscape:window-maximized="1"
     inkscape:current-layer="layer1"><inkscape:page
       x="0"
       y="0"
       width="102.47014"
       height="116.16932"
       id="page2"
       margin="0"
       bleed="0" /></sodipodi:namedview><defs
     id="defs1" /><g
     inkscape:label="Capa 1"
     inkscape:groupmode="layer"
     id="layer1"
     transform="translate(-53.502897,-111.50986)"><circle
       style="opacity:1;fill:#00ab97;fill-opacity:1;stroke:#00796b;stroke-width:1;stroke-dasharray:none;stroke-opacity:1"
       id="path9"
       cx="104.73797"
       cy="176.44411"
       r="50.735073"
       inkscape:export-filename="..\Documentos\Pagina  web\Imagenes\Para_investigadores1,0.svg"
       inkscape:export-xdpi="96"
       inkscape:export-ydpi="96" /><path
       style="opacity:1;fill:#00ab97;fill-opacity:1;stroke:#00796b;stroke-width:1;stroke-dasharray:none;stroke-opacity:1"
       d="m 87.780293,128.6269 c 0,0 -0.505012,-16.49405 18.493487,-16.61658 15.95773,-0.10292 15.65262,16.69908 15.65262,16.69908 v 0 0 l -4.90803,-1.49149 c 0,0 0.33284,-10.66678 -11.3869,-10.55521 -12.711405,0.12101 -12.284024,10.34151 -12.284024,10.34151 z"
       id="path18"
       sodipodi:nodetypes="csccccscc" /><g
       id="g44"
       transform="matrix(1.9238526,0,0,1.9238526,1.1456298,95.238425)"
       style="fill:#ffffff;fill-opacity:1"><path
         style="fill:#ffffff;fill-opacity:1"
         d="m 47.849412,40.295782 c 0.423987,-0.0063 1.128943,-0.0063 1.566569,-1.9e-5 0.437626,0.0063 0.09073,0.01148 -0.770885,0.01149 -0.861613,1.1e-5 -1.21967,-0.0052 -0.795684,-0.01147 z m 3.667311,-4.2e-5 c 0.717783,-0.006 1.88096,-0.006 2.584838,7e-6 0.703879,0.006 0.116602,0.01087 -1.305059,0.01087 -1.421661,-4e-6 -1.997561,-0.0049 -1.279779,-0.01088 z m 3.913572,0.0034 c 0.02693,-0.01086 0.07099,-0.01086 0.09791,0 0.02693,0.01087 0.0049,0.01975 -0.04895,0.01975 -0.05385,0 -0.07588,-0.0089 -0.04896,-0.01975 z m 0.903355,-0.0034 c 0.416069,-0.0063 1.085777,-0.0063 1.48824,2.1e-5 0.402463,0.0064 0.06204,0.01156 -0.756489,0.01154 -0.818532,-1.2e-5 -1.14782,-0.0052 -0.731751,-0.01156 z m 2.485095,0.0022 c 0.03811,-0.0099 0.09098,-0.0093 0.117493,0.0015 0.02651,0.01073 -0.0047,0.01885 -0.06928,0.01805 -0.06462,-7.98e-4 -0.08631,-0.0096 -0.04821,-0.0195 z m 0.351733,-0.0016 c 0.102316,-0.0081 0.269743,-0.0081 0.37206,0 0.102316,0.0081 0.0186,0.01467 -0.18603,0.01467 -0.204633,0 -0.288347,-0.0066 -0.18603,-0.01467 z m 0.724538,1.11e-4 c 0.09155,-0.0082 0.241349,-0.0082 0.332895,0 0.09155,0.0082 0.01665,0.01499 -0.166447,0.01499 -0.183093,0 -0.257995,-0.0067 -0.166448,-0.01499 z M 47.069482,36.969 c 0.03811,-0.0099 0.09098,-0.0093 0.117492,0.0015 0.02652,0.01073 -0.0047,0.01885 -0.06928,0.01805 -0.06462,-7.98e-4 -0.08632,-0.0096 -0.04821,-0.01951 z m 0.567592,-5.59e-4 c 0.04872,-0.0094 0.119212,-0.009 0.156657,7.9e-4 0.03744,0.0098 -0.0024,0.01747 -0.08858,0.01703 -0.08616,-4.34e-4 -0.116798,-0.0085 -0.06808,-0.01782 z m 1.54653,-3.53e-4 c 0.05924,-0.009 0.156167,-0.009 0.215403,0 0.05924,0.009 0.01077,0.01632 -0.107702,0.01632 -0.118471,0 -0.166937,-0.0073 -0.107701,-0.01632 z m 0.37206,0.0021 c 0.02692,-0.01086 0.07099,-0.01086 0.09791,0 0.02693,0.01087 0.0049,0.01975 -0.04895,0.01975 -0.05385,0 -0.07588,-0.0089 -0.04895,-0.01975 z m 0.294477,-0.0012 c 0.03811,-0.0099 0.09098,-0.0093 0.117492,0.0015 0.02652,0.01073 -0.0047,0.01885 -0.06928,0.01805 -0.06462,-7.98e-4 -0.08632,-0.0096 -0.04821,-0.01951 z m 0.802121,0.0012 c 0.02692,-0.01086 0.07099,-0.01086 0.09791,0 0.02693,0.01087 0.0049,0.01975 -0.04895,0.01975 -0.05385,0 -0.07588,-0.0089 -0.04895,-0.01975 z m 0.274149,-0.0024 c 0.07001,-0.0087 0.184561,-0.0087 0.254568,0 0.07001,0.0087 0.01273,0.0158 -0.127284,0.0158 -0.140012,0 -0.19729,-0.0071 -0.127284,-0.0158 z m 0.589911,0.0016 c 0.02827,-0.01131 0.06205,-0.0099 0.07506,0.0031 0.01301,0.01301 -0.01012,0.02227 -0.0514,0.02057 -0.04562,-0.0019 -0.0549,-0.01116 -0.02366,-0.02366 z m 4.874035,-0.0014 c 0.05953,-0.009 0.147652,-0.0088 0.195821,5.35e-4 0.04817,0.0093 -5.38e-4,0.01666 -0.10824,0.01637 -0.107701,-2.94e-4 -0.147113,-0.0079 -0.08758,-0.0169 z m 0.978567,0.0011 c 0.0377,-0.0099 0.09938,-0.0099 0.137075,0 0.03769,0.0099 0.0069,0.01791 -0.06854,0.01791 -0.07539,0 -0.106233,-0.0081 -0.06854,-0.01791 z m -8.006039,-0.824821 c 1.385639,-0.0057 3.641497,-0.0057 5.013019,3e-6 1.371522,0.0057 0.237818,0.01037 -2.519343,0.01037 -2.75716,-10e-7 -3.879315,-0.0047 -2.493676,-0.01037 z m 14.220393,-2.898155 -0.09495,-0.107702 0.107702,0.09495 c 0.05923,0.05222 0.107701,0.100687 0.107701,0.107702 0,0.03072 -0.03171,0.0057 -0.120457,-0.09495 z m -2.135206,-0.842031 -0.07461,-0.08812 0.08812,0.07461 c 0.04847,0.04103 0.08812,0.08069 0.08812,0.08812 0,0.03134 -0.03152,0.0082 -0.101632,-0.07461 z m 0.255324,-0.998687 -0.09495,-0.107702 0.107701,0.09495 c 0.05924,0.05222 0.107702,0.100686 0.107702,0.107701 0,0.03072 -0.03171,0.0057 -0.120457,-0.09495 z m -3.05684,-1.76239 c -0.04871,-0.06212 -0.04733,-0.0635 0.01479,-0.01479 0.06524,0.05116 0.08598,0.08332 0.05375,0.08332 -0.0081,0 -0.03898,-0.03084 -0.06854,-0.06854 z"
         id="path51" /><path
         style="fill:#ffffff;fill-opacity:1"
         d="m 63.879649,44.261101 c 10e-7,-5.083514 0.0046,-7.157314 0.01011,-4.608444 0.0056,2.54887 0.0056,6.70811 -10e-7,9.242754 -0.0056,2.534644 -0.01011,0.449205 -0.01011,-4.63431 z M 58.641761,40.29916 c 0.02692,-0.01086 0.07099,-0.01086 0.09791,0 0.02693,0.01087 0.0049,0.01975 -0.04895,0.01975 -0.05385,0 -0.07588,-0.0089 -0.04895,-0.01975 z M 46.795332,36.969 c 0.03811,-0.0099 0.09098,-0.0093 0.117493,0.0015 0.02652,0.01073 -0.0047,0.01885 -0.06928,0.01805 -0.06462,-7.98e-4 -0.08631,-0.0096 -0.04821,-0.01951 z m 0.508928,-9.64e-4 c 0.05953,-0.009 0.147652,-0.0088 0.195821,5.35e-4 0.04817,0.0093 -5.38e-4,0.01666 -0.10824,0.01637 -0.107702,-2.94e-4 -0.147113,-0.0079 -0.08758,-0.0169 z m 0.567343,0.0022 c 0.02692,-0.01086 0.07099,-0.01086 0.09791,0 0.02693,0.01087 0.0049,0.01975 -0.04895,0.01975 -0.05385,0 -0.07588,-0.0089 -0.04895,-0.01975 z m 0.352478,-0.0024 c 0.07001,-0.0087 0.184561,-0.0087 0.254567,0 0.07001,0.0087 0.01273,0.0158 -0.127284,0.0158 -0.140012,0 -0.197289,-0.0071 -0.127283,-0.0158 z m 0.490091,2.27e-4 c 0.05953,-0.009 0.147651,-0.0088 0.195821,5.35e-4 0.04817,0.0093 -5.39e-4,0.01666 -0.10824,0.01637 -0.107702,-2.94e-4 -0.147113,-0.0079 -0.08758,-0.0169 z m 1.585612,0.0022 c 0.02692,-0.01086 0.07099,-0.01086 0.09791,0 0.02693,0.01087 0.0049,0.01975 -0.04895,0.01975 -0.05385,0 -0.07588,-0.0089 -0.04895,-0.01975 z m 2.114867,-0.0034 c 0.371571,-0.0064 0.979595,-0.0064 1.351165,0 0.371571,0.0064 0.06756,0.0117 -0.675582,0.0117 -0.743141,0 -1.047153,-0.0053 -0.675583,-0.0117 z m 2.114868,0.0017 c 0.04847,-0.0093 0.127773,-0.0093 0.176239,0 0.04847,0.0093 0.0088,0.01697 -0.08812,0.01697 -0.09693,0 -0.136585,-0.0076 -0.08812,-0.01697 z m 0.646209,-0.0016 c 0.210018,-0.007 0.553684,-0.007 0.763702,0 0.210018,0.007 0.03818,0.0128 -0.381851,0.0128 -0.420036,0 -0.591869,-0.0058 -0.381851,-0.0128 z m 1.51027,0.0024 c 0.02827,-0.01131 0.06205,-0.0099 0.07507,0.0031 0.01301,0.01301 -0.01012,0.02227 -0.0514,0.02057 -0.04562,-0.0019 -0.0549,-0.01116 -0.02366,-0.02366 z m 0.271702,-0.0016 c 0.07001,-0.0087 0.184561,-0.0087 0.254567,0 0.07001,0.0087 0.01273,0.0158 -0.127284,0.0158 -0.140012,0 -0.197289,-0.0071 -0.127283,-0.0158 z m 2.761077,-1.998333 c 0.317719,-0.0066 0.837624,-0.0066 1.155344,0 0.31772,0.0066 0.05777,0.01197 -0.577672,0.01197 -0.63544,0 -0.895392,-0.0054 -0.577672,-0.01197 z m 4.159725,-1.429578 -0.194349,-0.205612 0.205612,0.194349 c 0.191059,0.180592 0.223573,0.216875 0.194349,0.216875 -0.0062,0 -0.09872,-0.09253 -0.205612,-0.205612 z M 61.27259,32.227851 61.17764,32.12015 61.285341,32.2151 c 0.05924,0.05222 0.107702,0.100686 0.107702,0.107702 0,0.03071 -0.03172,0.0057 -0.120457,-0.09495 z m 0.66376,-0.587463 c -0.04871,-0.06212 -0.04733,-0.0635 0.01479,-0.01479 0.06524,0.05116 0.08598,0.08332 0.05375,0.08332 -0.0081,0 -0.03897,-0.03084 -0.06854,-0.06854 z m -3.425594,-2.13445 -0.07461,-0.08812 0.08812,0.07461 c 0.08281,0.07011 0.105949,0.101632 0.07461,0.101632 -0.0074,0 -0.04709,-0.03965 -0.08812,-0.08812 z M 48.031351,27.684851 c 1.794932,-0.0056 4.720499,-0.0056 6.501259,1e-6 1.780761,0.0056 0.312181,0.01025 -3.263512,0.01025 -3.575693,-10e-7 -5.032679,-0.0046 -3.237747,-0.01025 z"
         id="path50" /><path
         style="fill:#ffffff;fill-opacity:1"
         d="m 44.011772,52.642242 c 7.98e-4,-0.06462 0.0096,-0.08632 0.01951,-0.04821 0.0099,0.0381 0.0093,0.09098 -0.0015,0.117492 -0.01073,0.02652 -0.01885,-0.0047 -0.01805,-0.06928 z M 61.529363,47.04176 c 2e-6,-2.110951 0.0047,-2.968776 0.01054,-1.906277 0.0058,1.062498 0.0058,2.78964 -4e-6,3.838093 -0.0058,1.048452 -0.01054,0.179135 -0.01054,-1.931816 z m -0.966108,-0.712127 c 0.02827,-0.01131 0.06205,-0.0099 0.07507,0.0031 0.01301,0.01301 -0.01012,0.02227 -0.0514,0.02057 -0.04562,-0.0019 -0.0549,-0.01116 -0.02366,-0.02366 z M 44.015338,44.887729 c 2.94e-4,-0.107702 0.0079,-0.147113 0.0169,-0.08758 0.009,0.05953 0.0088,0.147651 -5.34e-4,0.195821 -0.0093,0.04817 -0.01666,-5.39e-4 -0.01637,-0.10824 z m -0.0036,-0.74412 c 7.98e-4,-0.06462 0.0096,-0.08632 0.01951,-0.04821 0.0099,0.03811 0.0093,0.09098 -0.0015,0.117492 -0.01073,0.02652 -0.01885,-0.0047 -0.01805,-0.06928 z M 57.09474,36.144904 c 0.102317,-0.0081 0.269744,-0.0081 0.37206,0 0.102317,0.0081 0.0186,0.01467 -0.18603,0.01467 -0.204633,0 -0.288346,-0.0066 -0.18603,-0.01467 z M 44.007229,34.780098 c 0.0019,-0.04562 0.01116,-0.0549 0.02366,-0.02366 0.01131,0.02827 0.0099,0.06205 -0.0031,0.07506 -0.01301,0.01301 -0.02227,-0.01012 -0.02057,-0.0514 z m 0.006,-0.68211 c 0,-0.07539 0.0081,-0.106233 0.01791,-0.06854 0.0099,0.03769 0.0099,0.09938 0,0.137075 -0.0099,0.03769 -0.01791,0.0069 -0.01791,-0.06854 z m 9.518354,-1.280395 c 0.03811,-0.0099 0.09098,-0.0093 0.117492,0.0015 0.02652,0.01073 -0.0047,0.01885 -0.06928,0.01806 -0.06462,-7.99e-4 -0.08631,-0.0096 -0.04821,-0.01951 z m -9.524348,-0.230691 c 0.0019,-0.04562 0.01116,-0.0549 0.02366,-0.02366 0.01131,0.02827 0.0099,0.06205 -0.0031,0.07507 -0.01301,0.01301 -0.02227,-0.01012 -0.02057,-0.0514 z m 0,-0.626627 c 0.0019,-0.04562 0.01116,-0.0549 0.02366,-0.02366 0.01131,0.02827 0.0099,0.06205 -0.0031,0.07507 -0.01301,0.01301 -0.02227,-0.01012 -0.02057,-0.0514 z m 0,-0.430806 c 0.0019,-0.04562 0.01116,-0.0549 0.02366,-0.02366 0.01131,0.02827 0.0099,0.06205 -0.0031,0.07506 -0.01301,0.01301 -0.02227,-0.01012 -0.02057,-0.0514 z m 0.0045,-0.231722 c 7.98e-4,-0.06462 0.0096,-0.08632 0.01951,-0.04821 0.0099,0.03811 0.0093,0.09098 -0.0015,0.117493 -0.01073,0.02651 -0.01885,-0.0047 -0.01805,-0.06928 z m 0,-0.626627 c 7.98e-4,-0.06462 0.0096,-0.08632 0.01951,-0.04821 0.0099,0.0381 0.0093,0.09098 -0.0015,0.117493 -0.01073,0.02651 -0.01885,-0.0047 -0.01805,-0.06928 z m 0.0022,-0.587463 c 4.35e-4,-0.08616 0.0085,-0.116798 0.01782,-0.06808 0.0094,0.04872 0.009,0.119212 -7.9e-4,0.156657 -0.0098,0.03744 -0.01747,-0.0024 -0.01703,-0.08858 z m -7.9e-4,-0.37206 c 0,-0.07539 0.0081,-0.106233 0.01791,-0.06854 0.0099,0.0377 0.0099,0.09938 0,0.137075 -0.0099,0.0377 -0.01791,0.0069 -0.01791,-0.06854 z m 14.302969,-0.401434 -0.115029,-0.127283 0.127284,0.115029 c 0.07001,0.06326 0.127284,0.120543 0.127284,0.127283 0,0.03026 -0.03232,0.0036 -0.139539,-0.115029 z"
         id="path49" /><path
         style="fill:#ffffff;fill-opacity:1"
         d="m 44.017821,53.484273 c 0,-0.183093 0.0067,-0.257994 0.01499,-0.166448 0.0082,0.09155 0.0082,0.24135 0,0.332896 -0.0082,0.09155 -0.01499,0.01665 -0.01499,-0.166448 z m -0.0025,-0.567881 c 2.94e-4,-0.107702 0.0079,-0.147113 0.0169,-0.08758 0.009,0.05953 0.0088,0.147652 -5.34e-4,0.195821 -0.0093,0.04817 -0.01666,-5.38e-4 -0.01637,-0.10824 z m 0.0047,-0.998687 c 0,-0.355416 0.0059,-0.500813 0.01319,-0.323105 0.0073,0.177707 0.0073,0.468502 0,0.646209 -0.0073,0.177708 -0.01319,0.03231 -0.01319,-0.323104 z m 0.0015,-1.899465 c 1.5e-5,-0.68929 0.0053,-0.965756 0.01184,-0.61437 0.0065,0.351387 0.0065,0.915352 -2.8e-5,1.253255 -0.0065,0.337904 -0.01183,0.0504 -0.01181,-0.638885 z m 1.58e-4,-2.624002 c 1.3e-5,-0.753911 0.0053,-1.056786 0.01169,-0.673056 0.0064,0.38373 0.0064,1.000566 -2.4e-5,1.370747 -0.0064,0.370181 -0.01168,0.05622 -0.01167,-0.697691 z m 4.82894,-1.067211 c 0.845457,-0.0059 2.228933,-0.0059 3.074391,0 0.845457,0.0059 0.153719,0.01071 -1.537196,0.01071 -1.690915,0 -2.382652,-0.0048 -1.537195,-0.01071 z m 7.046645,2e-6 c 0.843855,-0.0059 2.236143,-0.0059 3.093973,-5e-6 0.857829,0.0059 0.167402,0.01071 -1.534283,0.01071 -1.701685,3e-6 -2.403545,-0.0048 -1.55969,-0.01071 z M 44.017821,45.377281 c 0,-0.183092 0.0067,-0.257994 0.01499,-0.166448 0.0082,0.09155 0.0082,0.24135 0,0.332896 -0.0082,0.09155 -0.01499,0.01665 -0.01499,-0.166448 z m -0.003,-0.822448 c 0,-0.09693 0.0076,-0.136585 0.01697,-0.08812 0.0093,0.04847 0.0093,0.127774 0,0.176239 -0.0093,0.04847 -0.01697,0.0088 -0.01697,-0.08812 z m 0.0043,-0.959523 c 7.8e-5,-0.258484 0.0064,-0.359131 0.01409,-0.22366 0.0077,0.135471 0.0076,0.346958 -1.41e-4,0.469971 -0.0077,0.123012 -0.01402,0.01217 -0.01394,-0.246311 z m 0.0018,-1.370748 c 2.7e-5,-0.495427 0.0056,-0.692702 0.01247,-0.438388 0.0068,0.254315 0.0068,0.659664 -5e-5,0.900777 -0.0069,0.241114 -0.01245,0.03304 -0.01242,-0.462389 z m 0.0017,-3.583525 c 0,-1.475512 0.0049,-2.07913 0.01084,-1.341374 0.006,0.737755 0.006,1.944992 0,2.682748 -0.006,0.737756 -0.01084,0.134138 -0.01084,-1.341374 z m -0.0094,-2.819823 c 0,-0.07539 0.0081,-0.106233 0.01791,-0.06854 0.0099,0.0377 0.0099,0.09938 0,0.137075 -0.0099,0.0377 -0.01791,0.0069 -0.01791,-0.06854 z m 0.0056,-0.567881 c 8.8e-5,-0.236944 0.0065,-0.328826 0.01433,-0.204183 0.0078,0.124644 0.0077,0.318507 -1.6e-4,0.430807 -0.0079,0.1123 -0.01426,0.01032 -0.01417,-0.226624 z m 18.286956,-0.283814 c 0.232729,-0.0069 0.602831,-0.0069 0.822449,5.8e-5 0.219617,0.007 0.0292,0.01264 -0.423144,0.01261 -0.452347,-3.2e-5 -0.632034,-0.0057 -0.399305,-0.01267 z m 1.368619,0.0022 c 0.0377,-0.0099 0.09938,-0.0099 0.137075,0 0.03769,0.0099 0.0069,0.01791 -0.06854,0.01791 -0.07539,0 -0.106233,-0.0081 -0.06854,-0.01791 z M 44.015338,34.548377 c 2.94e-4,-0.107702 0.0079,-0.147113 0.0169,-0.08758 0.009,0.05953 0.0088,0.147651 -5.34e-4,0.195821 -0.0093,0.04817 -0.01666,-5.39e-4 -0.01637,-0.10824 z m -0.0081,-0.629891 c 0.0019,-0.04562 0.01116,-0.0549 0.02366,-0.02366 0.01131,0.02827 0.0099,0.06205 -0.0031,0.07507 -0.01301,0.01301 -0.02227,-0.01012 -0.02057,-0.0514 z m 0.0076,-0.329632 c 0,-0.09693 0.0076,-0.136586 0.01697,-0.08812 0.0093,0.04847 0.0093,0.127773 0,0.176239 -0.0093,0.04847 -0.01697,0.0088 -0.01697,-0.08812 z m -0.0076,-0.257832 c 0.0019,-0.04562 0.01116,-0.0549 0.02366,-0.02366 0.01131,0.02827 0.0099,0.06205 -0.0031,0.07507 -0.01301,0.01301 -0.02227,-0.01012 -0.02057,-0.0514 z m 0.009,-0.31005 c 2.19e-4,-0.129241 0.0075,-0.177391 0.01625,-0.107 0.0087,0.07039 0.0085,0.176135 -3.99e-4,0.234986 -0.0089,0.05885 -0.01607,0.0013 -0.01585,-0.127986 z m 9.690797,-0.202176 c 0.02693,-0.01086 0.07099,-0.01086 0.09791,0 0.02692,0.01086 0.0049,0.01975 -0.04896,0.01975 -0.05385,0 -0.07588,-0.0089 -0.04895,-0.01975 z m -9.699841,-0.114401 c 0.0019,-0.04562 0.01116,-0.0549 0.02366,-0.02366 0.01131,0.02827 0.0099,0.06205 -0.0031,0.07507 -0.01301,0.01301 -0.02227,-0.01012 -0.02057,-0.0514 z m 0.0081,-0.349214 c 2.94e-4,-0.107702 0.0079,-0.147113 0.0169,-0.08758 0.009,0.05953 0.0088,0.147651 -5.34e-4,0.195821 -0.0093,0.04817 -0.01666,-5.39e-4 -0.01637,-0.10824 z m -0.0081,-0.277413 c 0.0019,-0.04562 0.01116,-0.0549 0.02366,-0.02366 0.01131,0.02827 0.0099,0.06205 -0.0031,0.07507 -0.01301,0.01301 -0.02227,-0.01012 -0.02057,-0.0514 z m 16.97213,-0.143602 -0.115029,-0.127284 0.127284,0.115029 c 0.07001,0.06327 0.127283,0.120543 0.127283,0.127283 0,0.03026 -0.03231,0.0036 -0.139538,-0.115028 z m -16.97213,-0.169712 c 0.0019,-0.04562 0.01116,-0.0549 0.02366,-0.02366 0.01131,0.02827 0.0099,0.06205 -0.0031,0.07507 -0.01301,0.01301 -0.02227,-0.01012 -0.02057,-0.0514 z m 0,-0.626627 c 0.0019,-0.04562 0.01116,-0.05491 0.02366,-0.02366 0.01131,0.02827 0.0099,0.06205 -0.0031,0.07506 -0.01301,0.01301 -0.02227,-0.01012 -0.02057,-0.0514 z m 0.0031,-0.290468 c 0,-0.05385 0.0089,-0.07588 0.01975,-0.04896 0.01087,0.02693 0.01087,0.07099 0,0.09791 -0.01086,0.02692 -0.01975,0.0049 -0.01975,-0.04895 z m 0.0037,-0.411224 c 4.35e-4,-0.08616 0.0085,-0.116798 0.01782,-0.06808 0.0094,0.04872 0.009,0.119212 -7.9e-4,0.156657 -0.0098,0.03744 -0.01747,-0.0024 -0.01703,-0.08858 z m -0.0068,-0.551563 c 0.0019,-0.04562 0.01116,-0.0549 0.02366,-0.02366 0.01131,0.02827 0.0099,0.06205 -0.0031,0.07506 -0.01301,0.01301 -0.02227,-0.01012 -0.02057,-0.0514 z m 16.010075,-0.12402 c -0.04872,-0.06212 -0.04733,-0.0635 0.01479,-0.01479 0.06524,0.05116 0.08599,0.08332 0.05375,0.08332 -0.0081,0 -0.03897,-0.03084 -0.06854,-0.06854 z"
         id="path48" /><path
         style="fill:#ffffff;fill-opacity:1"
         d="m 46.363866,50.723196 c 4.35e-4,-0.08616 0.0085,-0.116797 0.01782,-0.06808 0.0094,0.04872 0.009,0.119213 -7.91e-4,0.156657 -0.0098,0.03745 -0.01747,-0.0024 -0.01703,-0.08858 z m -0.0037,-0.332896 c 0,-0.05385 0.0089,-0.07588 0.01975,-0.04896 0.01086,0.02693 0.01086,0.07099 0,0.09791 -0.01086,0.02692 -0.01975,0.0049 -0.01975,-0.04896 z m 0.912441,-1.58615 c 10e-6,-0.861613 0.0052,-1.208511 0.01149,-0.770885 0.0063,0.437626 0.0063,1.142582 -1.9e-5,1.566568 -0.0063,0.423987 -0.01148,0.06593 -0.01147,-0.795683 z m -0.907958,1.077016 c 0,-0.09693 0.0076,-0.136586 0.01697,-0.08812 0.0093,0.04847 0.0093,0.127773 0,0.176239 -0.0093,0.04847 -0.01697,0.0088 -0.01697,-0.08812 z m -7.9e-4,-0.411225 c 4.35e-4,-0.08616 0.0085,-0.116797 0.01782,-0.06808 0.0094,0.04872 0.009,0.119212 -7.91e-4,0.156656 -0.0098,0.03744 -0.01747,-0.0024 -0.01703,-0.08858 z m -0.0037,-0.254567 c 0,-0.05385 0.0089,-0.07588 0.01975,-0.04895 0.01086,0.02693 0.01086,0.07099 0,0.09791 -0.01086,0.02693 -0.01975,0.0049 -0.01975,-0.04895 z m 0.0075,-1.370747 c 0,-0.183093 0.0067,-0.257995 0.01499,-0.166448 0.0082,0.09155 0.0082,0.241349 0,0.332895 -0.0082,0.09155 -0.01499,0.01664 -0.01499,-0.166447 z m -0.0061,-0.842031 c 7.99e-4,-0.06462 0.0096,-0.08631 0.01951,-0.04821 0.0099,0.03811 0.0093,0.09098 -0.0015,0.117493 -0.01073,0.02651 -0.01885,-0.0047 -0.01806,-0.06928 z m 0.910671,-1.997375 c -1.5e-5,-0.71083 0.0053,-1.00715 0.01176,-0.658488 0.0065,0.348662 0.0065,0.930251 2.7e-5,1.292419 -0.0065,0.362169 -0.01178,0.0769 -0.01179,-0.633931 z m -0.903816,0.724538 c 0,-0.226173 0.0065,-0.318699 0.01438,-0.205612 0.0079,0.113087 0.0079,0.298138 0,0.411224 -0.0079,0.113087 -0.01438,0.02056 -0.01438,-0.205612 z m 0.0023,-1.468658 c 2.7e-5,-0.495427 0.0056,-0.692702 0.01247,-0.438388 0.0068,0.254315 0.0068,0.659664 -5e-5,0.900777 -0.0069,0.241114 -0.01245,0.03304 -0.01242,-0.462389 z m -0.0137,-0.982369 c 0.0019,-0.04562 0.01116,-0.0549 0.02366,-0.02366 0.01131,0.02827 0.0099,0.06205 -0.0031,0.07506 -0.01301,0.01301 -0.02227,-0.01012 -0.02057,-0.0514 z m 15.35907,-8.306964 c 0.0377,-0.0099 0.09938,-0.0099 0.137075,0 0.0377,0.0099 0.0069,0.01791 -0.06854,0.01791 -0.07539,0 -0.106233,-0.0081 -0.06854,-0.01791 z m 1.823584,2.44e-4 c 0.02827,-0.01131 0.06205,-0.0099 0.07507,0.0031 0.01301,0.01301 -0.01012,0.02227 -0.0514,0.02057 -0.04562,-0.0019 -0.05491,-0.01116 -0.02366,-0.02366 z m -2.215226,-0.864158 c 0.33926,-0.0065 0.894413,-0.0065 1.233673,0 0.33926,0.0065 0.06168,0.01185 -0.616836,0.01185 -0.67852,0 -0.956097,-0.0053 -0.616837,-0.01185 z m -0.658464,-2.487002 -0.115029,-0.127284 0.127284,0.115029 c 0.07001,0.06327 0.127284,0.120544 0.127284,0.127284 0,0.03026 -0.03232,0.0036 -0.139539,-0.115029 z m -0.37256,-1.586151 -0.09495,-0.107701 0.107702,0.09495 c 0.05924,0.05222 0.107701,0.100686 0.107701,0.107702 0,0.03072 -0.03171,0.0057 -0.120456,-0.09495 z"
         id="path47" /><path
         style="fill:#ffffff;fill-opacity:1"
         d="m 45.482586,54.747436 c 0.263869,-0.0068 0.695654,-0.0068 0.959523,0 0.263869,0.0068 0.04798,0.01232 -0.479762,0.01232 -0.527737,0 -0.74363,-0.0055 -0.479761,-0.01232 z m 1.742807,0.0012 c 0.05924,-0.009 0.156167,-0.009 0.215403,0 0.05924,0.009 0.01077,0.01632 -0.107701,0.01632 -0.118472,0 -0.166938,-0.0073 -0.107702,-0.01632 z m 0.705494,-5.1e-5 c 0.05953,-0.009 0.147652,-0.0088 0.195822,5.34e-4 0.04817,0.0093 -5.39e-4,0.01666 -0.108241,0.01637 -0.107701,-2.95e-4 -0.147113,-0.0079 -0.08758,-0.0169 z m 0.841493,-10e-4 c 0.177707,-0.0073 0.468501,-0.0073 0.646209,0 0.177708,0.0073 0.03231,0.01319 -0.323105,0.01319 -0.355415,0 -0.500812,-0.0059 -0.323104,-0.01319 z m 1.449075,2.65e-4 c 0.113087,-0.0079 0.298138,-0.0079 0.411225,0 0.113086,0.0079 0.02056,0.01438 -0.205613,0.01438 -0.226173,0 -0.318698,-0.0065 -0.205612,-0.01438 z m 0.763702,0.0019 c 0.0377,-0.0099 0.09938,-0.0099 0.137075,0 0.0377,0.0099 0.0069,0.01791 -0.06854,0.01791 -0.07539,0 -0.106233,-0.0081 -0.06854,-0.01791 z m 0.881195,-0.0023 c 0.371571,-0.0064 0.979595,-0.0064 1.351166,0 0.37157,0.0064 0.06756,0.0117 -0.675583,0.0117 -0.743141,0 -1.047153,-0.0053 -0.675583,-0.0117 z m 2.489137,4.4e-5 c 0.254314,-0.0068 0.659664,-0.0068 0.900777,5e-5 0.241113,0.0069 0.03304,0.01245 -0.462389,0.01242 -0.495427,-2.8e-5 -0.692702,-0.0056 -0.438388,-0.01247 z m 1.543903,10e-4 c 0.06953,-0.0087 0.192893,-0.0088 0.27415,-3.16e-4 0.08126,0.0085 0.02437,0.01556 -0.12641,0.01573 -0.150782,1.73e-4 -0.217265,-0.0068 -0.14774,-0.01541 z m 2.132398,-0.0011 c 0.876159,-0.0059 2.321319,-0.0059 3.211466,-5e-6 0.890147,0.0059 0.173289,0.01068 -1.593017,0.01068 -1.766306,3e-6 -2.494608,-0.0048 -1.618449,-0.01067 z m -9.181082,-4.308065 c 0.845457,-0.0059 2.228933,-0.0059 3.074391,0 0.845457,0.0059 0.153719,0.01071 -1.537196,0.01071 -1.690915,0 -2.382652,-0.0048 -1.537195,-0.01071 z m 7.09164,-3e-6 c 0.868602,-0.0059 2.278513,-0.0059 3.133136,5e-6 0.854624,0.0059 0.143949,0.0107 -1.579276,0.0107 -1.723226,-3e-6 -2.422463,-0.0048 -1.55386,-0.0107 z m -9.585267,-0.776767 c 0.0019,-0.04562 0.01116,-0.0549 0.02366,-0.02366 0.01131,0.02827 0.0099,0.06205 -0.0031,0.07506 -0.01301,0.01301 -0.02227,-0.01012 -0.02057,-0.0514 z m 0.0068,-0.662528 c 4.35e-4,-0.08616 0.0085,-0.116798 0.01782,-0.06808 0.0094,0.04872 0.009,0.119213 -7.91e-4,0.156657 -0.0098,0.03744 -0.01747,-0.0024 -0.01703,-0.08858 z m -0.0037,-0.293732 c 0,-0.05385 0.0089,-0.07588 0.01975,-0.04895 0.01086,0.02693 0.01086,0.07099 0,0.09791 -0.01086,0.02693 -0.01975,0.0049 -0.01975,-0.04896 z m 0.0045,-0.313313 c 0,-0.09693 0.0076,-0.136586 0.01697,-0.08812 0.0093,0.04847 0.0093,0.127773 0,0.176239 -0.0093,0.04847 -0.01697,0.0088 -0.01697,-0.08812 z m 0.0015,-1.077016 c 2.2e-4,-0.129242 0.0075,-0.177392 0.01625,-0.107 0.0087,0.07039 0.0085,0.176135 -4e-4,0.234985 -0.0089,0.05885 -0.01607,0.0013 -0.01585,-0.127985 z m 0.001,-0.685374 c 0,-0.161552 0.0069,-0.227642 0.01536,-0.146866 0.0084,0.08078 0.0084,0.212956 0,0.293732 -0.0084,0.08078 -0.01536,0.01469 -0.01536,-0.146866 z m 2.483551,-2.966676 c 0.845457,-0.0059 2.228933,-0.0059 3.074391,0 0.845457,0.0059 0.153719,0.01071 -1.537196,0.01071 -1.690915,0 -2.382652,-0.0048 -1.537195,-0.01071 z m 7.09164,-3e-6 c 0.868602,-0.0059 2.278513,-0.0059 3.133136,6e-6 0.854624,0.0059 0.143949,0.0107 -1.579276,0.01069 -1.723226,-3e-6 -2.422463,-0.0048 -1.55386,-0.0107 z m 7.0906,-9.712734 c -0.04871,-0.06212 -0.04733,-0.0635 0.01479,-0.01479 0.03769,0.02956 0.06854,0.06041 0.06854,0.06854 0,0.03223 -0.03216,0.01149 -0.08332,-0.05375 z m -2.545674,-2.50651 c -0.04872,-0.06212 -0.04733,-0.0635 0.01479,-0.01479 0.06524,0.05116 0.08598,0.08332 0.05375,0.08332 -0.0081,0 -0.03898,-0.03084 -0.06854,-0.06854 z m -0.03916,-1.253255 c -0.04872,-0.06212 -0.04733,-0.0635 0.01479,-0.01479 0.06524,0.05116 0.08598,0.08332 0.05375,0.08332 -0.0081,0 -0.03897,-0.03084 -0.06854,-0.06854 z"
         id="path46" /><path
         style="fill:#ffffff;fill-opacity:1"
         d="m 44.936735,54.749938 c 0.02827,-0.01131 0.06205,-0.0099 0.07506,0.0031 0.01301,0.01301 -0.01012,0.02227 -0.0514,0.02057 -0.04562,-0.0019 -0.0549,-0.01116 -0.02366,-0.02366 z m 2.014509,-2.43e-4 c 0.03769,-0.0099 0.09938,-0.0099 0.137074,0 0.0377,0.0099 0.0069,0.01791 -0.06854,0.01791 -0.07539,0 -0.106233,-0.0081 -0.06854,-0.01791 z m 0.646209,-6.42e-4 c 0.04847,-0.0093 0.127773,-0.0093 0.176239,0 0.04847,0.0093 0.0088,0.01697 -0.08812,0.01697 -0.09693,0 -0.136586,-0.0076 -0.08812,-0.01697 z m 0.785732,8.85e-4 c 0.02827,-0.01131 0.06205,-0.0099 0.07507,0.0031 0.01301,0.01301 -0.01012,0.02227 -0.0514,0.02057 -0.04562,-0.0019 -0.0549,-0.01116 -0.02366,-0.02366 z m 1.407464,-8.85e-4 c 0.04847,-0.0093 0.127773,-0.0093 0.176239,0 0.04847,0.0093 0.0088,0.01697 -0.08812,0.01697 -0.09693,0 -0.136585,-0.0076 -0.08812,-0.01697 z m 1.059881,8.85e-4 c 0.02827,-0.01131 0.06205,-0.0099 0.07507,0.0031 0.01301,0.01301 -0.01012,0.02227 -0.0514,0.02057 -0.04562,-0.0019 -0.0549,-0.01116 -0.02366,-0.02366 z M 46.951244,42.804611 c 0.03769,-0.0099 0.09938,-0.0099 0.137074,0 0.0377,0.0099 0.0069,0.01791 -0.06854,0.01791 -0.07539,0 -0.106233,-0.0081 -0.06854,-0.01791 z m 13.844548,-6.43e-4 c 0.04847,-0.0093 0.127774,-0.0093 0.176239,0 0.04847,0.0093 0.0088,0.01697 -0.08812,0.01697 -0.09693,0 -0.136585,-0.0076 -0.08812,-0.01697 z m 1.907784,-9.185741 -0.194349,-0.205612 0.205612,0.194348 c 0.191058,0.180593 0.223573,0.216876 0.194349,0.216876 -0.0062,0 -0.09872,-0.09253 -0.205612,-0.205612 z m -0.511384,-1.723226 -0.07461,-0.08812 0.08812,0.07461 c 0.04847,0.04103 0.08812,0.08069 0.08812,0.08812 0,0.03134 -0.03152,0.0082 -0.101632,-0.07461 z m -1.605733,-1.566568 -0.07461,-0.08812 0.08812,0.07461 c 0.04847,0.04103 0.08812,0.08069 0.08812,0.08812 0,0.03134 -0.03152,0.0082 -0.101632,-0.07461 z"
         id="path45" /><path
         style="fill:#ffffff;fill-opacity:1"
         d="m 44.650346,55.598278 c -0.657517,-0.131976 -1.207836,-0.6077 -1.419357,-1.226964 -0.06506,-0.190474 -0.06956,-0.887464 -0.08105,-12.557976 -0.0093,-9.394724 -0.001,-12.422017 0.03426,-12.630458 0.121692,-0.718507 0.67773,-1.301247 1.363794,-1.429287 0.23207,-0.04331 13.219906,-0.04851 13.409302,-0.0054 0.05973,0.01361 0.139041,0.06905 0.176239,0.123203 0.0372,0.05416 0.984075,0.996512 2.104171,2.094128 2.951202,2.891968 4.347515,4.28977 4.441008,4.445742 l 0.08217,0.137075 -1.49e-4,9.634396 c -1.02e-4,6.529545 -0.01338,9.715924 -0.0412,9.887379 -0.08123,0.500688 -0.477421,1.059416 -0.923296,1.302092 -0.104866,0.05707 -0.322434,0.140288 -0.483483,0.184917 -0.292545,0.08107 -0.301271,0.08114 -9.399284,0.07685 -5.008556,-0.0024 -9.176961,-0.01844 -9.263123,-0.03574 z m 18.627701,-0.968197 c 0.267628,-0.131756 0.391878,-0.26684 0.531578,-0.577927 0.06697,-0.14913 0.07085,-0.611562 0.08076,-9.624605 l 0.01042,-9.467948 h -2.420576 c -2.035688,0 -2.457692,-0.0095 -2.653999,-0.05945 -0.712392,-0.181431 -1.198415,-0.653565 -1.412545,-1.372178 -0.06229,-0.20906 -0.07083,-0.473961 -0.08353,-2.592497 l -0.01414,-2.359644 -6.293671,8.61e-4 c -6.07296,8.3e-4 -6.299165,0.0034 -6.450328,0.07436 -0.200814,0.09421 -0.349405,0.237995 -0.460204,0.445317 l -0.0881,0.164841 -0.01189,12.258398 c -0.0086,8.866738 1.26e-4,12.314487 0.03153,12.461118 0.07678,0.358451 0.343459,0.640645 0.698145,0.738765 0.147482,0.0408 1.938495,0.04936 9.230748,0.04412 l 9.047763,-0.0065 z M 46.605432,51.246252 c -0.0448,-0.02174 -0.11089,-0.08935 -0.146866,-0.150258 -0.05994,-0.101469 -0.06541,-0.440319 -0.06541,-4.049868 v -3.939133 l 0.113019,-0.126491 c 0.103266,-0.115574 0.139601,-0.128901 0.421016,-0.154415 0.396435,-0.03594 13.596022,-0.03614 14.029285,-2.07e-4 0.304115,0.02522 0.335113,0.03606 0.440598,0.154121 l 0.113467,0.126992 v 3.917748 c 0,4.301377 0.01232,4.079706 -0.233703,4.206927 -0.101529,0.0525 -0.956291,0.0591 -7.352418,0.05676 -4.783613,-0.0018 -7.26515,-0.01605 -7.318986,-0.04218 z m 6.876444,-2.402938 v -1.625315 h -3.113555 -3.113555 v 1.599205 c 0,0.879563 0.01175,1.610955 0.02611,1.625315 0.01436,0.01436 1.41546,0.02611 3.113555,0.02611 h 3.087445 z m 7.167051,0 v -1.625315 h -3.152719 -3.152719 v 1.625315 1.625315 h 3.152719 3.152719 z m -7.167051,-3.838329 v -1.351401 l -3.103764,0.01003 -3.103764,0.01003 -0.01031,1.341374 -0.01031,1.341375 h 3.114069 3.114069 z m 7.167051,2.36e-4 v -1.351165 h -3.152719 -3.152719 v 1.351165 1.351166 h 3.152719 3.152719 z M 46.618388,40.29074 c -0.02695,-0.0081 -0.08865,-0.05085 -0.137115,-0.09495 -0.127219,-0.115744 -0.123853,-0.412249 0.0064,-0.563677 l 0.09452,-0.109885 h 7.369653 7.369654 l 0.09452,0.109885 c 0.132877,0.154479 0.132098,0.423977 -0.0016,0.557686 -0.05287,0.05287 -0.127773,0.09686 -0.166448,0.09775 -0.471065,0.01088 -14.593862,0.01395 -14.629573,0.0032 z m -0.05961,-3.35977 c -0.08174,-0.03323 -0.16571,-0.23401 -0.164379,-0.393065 0.0014,-0.162517 0.05054,-0.248525 0.18221,-0.318652 0.06389,-0.03403 1.499618,-0.04556 5.6708,-0.04556 h 5.585255 l 0.09613,0.09613 c 0.133708,0.133707 0.134488,0.403206 0.0016,0.557686 l -0.09452,0.109886 -5.613668,0.0069 c -3.087517,0.0038 -5.636068,-0.0022 -5.663446,-0.01333 z m 0.0034,-3.303226 c -0.121004,-0.04875 -0.169008,-0.15969 -0.169008,-0.390574 0,-0.255274 0.105878,-0.374149 0.368293,-0.413501 0.100269,-0.01504 1.905908,-0.02046 4.01253,-0.01204 4.313667,0.01723 3.993894,-0.0075 4.080838,0.315397 0.05345,0.198487 -0.0035,0.438795 -0.11849,0.500357 -0.09356,0.05007 -8.049907,0.05043 -8.174163,3.65e-4 z M 63.1946,34.105076 c 0,-0.01764 -0.163021,-0.188562 -0.362269,-0.37982 -0.424823,-0.40779 -2.071588,-2.026723 -3.584764,-3.524177 l -1.068463,-1.057363 0.01103,2.016956 0.01103,2.016957 0.101871,0.217191 c 0.140197,0.298903 0.31083,0.480737 0.553845,0.590202 0.189556,0.08539 0.272724,0.09449 1.047928,0.114775 1.393605,0.03646 3.289793,0.0395 3.289793,0.0053 z"
         id="path44" /></g></g></svg>
